<svg width="512" height="512" viewBox="0 0 512 512" fill="none" xmlns="http://www.w3.org/2000/svg">
<path fill-rule="evenodd" clip-rule="evenodd" d="M220.956 48.0127L220.951 48.0126C216.102 48.0975 210.87 48.195 205.08 48.3028L205.073 48.3027C197.681 48.4402 189.381 48.5949 179.81 48.7619C189.384 48.5948 197.686 48.4403 205.08 48.3028C210.872 48.195 216.106 48.0976 220.956 48.0127Z" fill="#CE3A60"/>
<path d="M485.004 141.449C494.075 168.886 485.82 212.413 475.429 256L475.425 256.012C487.611 301.394 495.471 338.744 486.674 366.418C486.277 367.667 485.743 368.999 485.078 370.402C502.306 335.973 512 297.119 512 256C512 214.822 502.278 175.915 485.004 141.449Z" fill="#CE3A60"/>
<path d="M23.9151 147.816C8.57046 180.678 0 217.338 0 256C0 298.69 10.4493 338.939 28.9297 374.33C19.2118 346.967 26.0294 300.218 36.5714 256L36.5749 255.988C24.6122 211.438 15.9076 175.305 23.9151 147.816Z" fill="#CE3A60"/>
<path d="M326.095 48.7619C401.894 137.652 444.574 172.441 475.422 256L475.425 256.012L475.429 256C485.82 212.413 494.075 168.886 485.004 141.449C482.828 137.107 480.531 132.835 478.12 128.638C456.431 98.3718 391.201 50.306 326.095 48.7619Z" fill="#CE3A60"/>
<path d="M185.905 463.238C110.106 374.348 67.426 339.559 36.5781 256L36.5749 255.988L36.5714 256C26.0294 300.218 19.2118 346.967 28.9297 374.33C30.9442 378.188 33.0542 381.988 35.2565 385.727C56.5663 415.497 120.709 461.692 185.905 463.238Z" fill="#CE3A60"/>
<path fill-rule="evenodd" clip-rule="evenodd" d="M220.956 48.0127L220.951 48.0126C216.102 48.0975 210.87 48.195 205.08 48.3028L205.073 48.3027C197.681 48.4402 189.381 48.5949 179.81 48.7619C189.384 48.5948 197.686 48.4403 205.08 48.3028C210.872 48.195 216.106 48.0976 220.956 48.0127Z" fill="#39A256"/>
<path d="M485.004 141.449C494.075 168.886 485.82 212.413 475.429 256L475.425 256.012C487.611 301.394 495.471 338.744 486.674 366.418C486.277 367.667 485.743 368.999 485.078 370.402C502.306 335.973 512 297.119 512 256C512 214.822 502.278 175.915 485.004 141.449Z" fill="#39A256"/>
<path d="M23.9151 147.816C8.57046 180.678 0 217.338 0 256C0 298.69 10.4493 338.939 28.9297 374.33C19.2118 346.967 26.0294 300.218 36.5714 256L36.5749 255.988C24.6122 211.438 15.9076 175.305 23.9151 147.816Z" fill="#39A256"/>
<path d="M179.798 48.7619C119.117 49.8211 52.7706 102.149 30.9511 133.877C28.4692 138.441 26.1221 143.089 23.9151 147.816C15.9076 175.305 24.6122 211.438 36.5749 255.988C57.2926 186.682 105.564 137.208 179.81 48.7619H179.798Z" fill="#39A256"/>
<path d="M475.425 256.012C454.707 325.319 406.436 374.792 332.19 463.238C397.096 462.105 467.669 402.93 484.008 372.516C484.368 371.813 484.725 371.109 485.078 370.402C485.743 368.999 486.277 367.667 486.674 366.418C495.471 338.744 487.611 301.394 475.425 256.012Z" fill="#39A256"/>
<path fill-rule="evenodd" clip-rule="evenodd" d="M220.956 48.0127L220.951 48.0126C216.256 48.0948 211.201 48.1889 205.629 48.2925C205.45 48.2959 205.27 48.2992 205.089 48.3026L205.08 48.3028L205.073 48.3027C204.946 48.3051 204.818 48.3074 204.69 48.3098C204.82 48.3074 204.95 48.3052 205.08 48.3028L205.089 48.3026C205.27 48.2992 205.45 48.2959 205.629 48.2925C211.203 48.1888 216.26 48.0949 220.956 48.0127Z" fill="#324BF7"/>
<path d="M256 1.52588e-05C245.176 0.188954 202.021 25.2117 179.81 48.7619C180.031 48.7581 180.252 48.7542 180.473 48.7503C189.239 48.5969 196.933 48.4541 203.839 48.3257C204.124 48.3204 204.408 48.3151 204.69 48.3098L205.073 48.3027C204.665 48.3103 204.253 48.318 203.839 48.3257C196.933 48.4541 189.239 48.5969 180.473 48.7503C189.768 48.5877 197.858 48.4371 205.08 48.3028L205.073 48.3027L204.69 48.3098C204.408 48.3151 204.124 48.3204 203.839 48.3257C204.253 48.318 204.665 48.3103 205.073 48.3027L205.08 48.3028L205.089 48.3026L205.629 48.2925C211.201 48.1889 216.256 48.0948 220.951 48.0126L220.956 48.0127C254.907 47.418 270.049 47.4328 326.095 48.7619C301.104 24.1883 267.369 0.198107 256.264 0.000148798L256 1.52588e-05Z" fill="#324BF7"/>
<path d="M332.19 463.238C262.605 464.453 260.183 465 185.905 463.238C210.896 487.812 244.631 511.802 255.736 512L256 512C266.824 511.811 309.979 486.788 332.19 463.238Z" fill="#324BF7"/>
<path fill-rule="evenodd" clip-rule="evenodd" d="M220.956 48.0127L220.951 48.0126C216.102 48.0975 210.87 48.195 205.08 48.3028L205.073 48.3027C197.681 48.4402 189.381 48.5949 179.81 48.7619C189.384 48.5948 197.686 48.4403 205.08 48.3028C210.872 48.195 216.106 48.0976 220.956 48.0127Z" fill="#E553F4"/>
<path d="M485.004 141.449C494.075 168.886 485.82 212.413 475.429 256L475.425 256.012C487.611 301.394 495.471 338.744 486.674 366.418C486.277 367.667 485.743 368.999 485.078 370.402C502.306 335.973 512 297.119 512 256C512 214.822 502.278 175.915 485.004 141.449Z" fill="#E553F4"/>
<path d="M23.9151 147.816C8.57046 180.678 0 217.338 0 256C0 298.69 10.4493 338.939 28.9297 374.33C19.2118 346.967 26.0294 300.218 36.5714 256L36.5749 255.988C24.6122 211.438 15.9076 175.305 23.9151 147.816Z" fill="#E553F4"/>
<path d="M185.905 463.238C120.709 461.692 56.5663 415.497 35.2565 385.727C79.719 461.221 161.805 511.905 255.736 512C244.631 511.802 210.896 487.812 185.905 463.238Z" fill="#E553F4"/>
<path d="M326.095 48.7619C391.201 50.306 456.431 98.3718 478.12 128.638C433.989 51.8391 351.173 0.0960527 256.264 0.000148798C267.369 0.198107 301.104 24.1883 326.095 48.7619Z" fill="#E553F4"/>
<path fill-rule="evenodd" clip-rule="evenodd" d="M220.956 48.0127L220.951 48.0126C216.102 48.0975 210.87 48.195 205.08 48.3028L205.073 48.3027C197.681 48.4402 189.381 48.5949 179.81 48.7619C189.384 48.5948 197.686 48.4403 205.08 48.3028C210.872 48.195 216.106 48.0976 220.956 48.0127Z" fill="#33BAFF"/>
<path d="M485.004 141.449C494.075 168.886 485.82 212.413 475.429 256L475.425 256.012C487.611 301.394 495.471 338.744 486.674 366.418C486.277 367.667 485.743 368.999 485.078 370.402C502.306 335.973 512 297.119 512 256C512 214.822 502.278 175.915 485.004 141.449Z" fill="#33BAFF"/>
<path d="M23.9151 147.816C8.57046 180.678 0 217.338 0 256C0 298.69 10.4493 338.939 28.9297 374.33C19.2118 346.967 26.0294 300.218 36.5714 256L36.5749 255.988C24.6122 211.438 15.9076 175.305 23.9151 147.816Z" fill="#33BAFF"/>
<path d="M179.81 48.7619C202.021 25.2117 245.176 0.188954 256 1.52588e-05C158.838 1.52588e-05 74.318 54.1292 30.9511 133.877C52.7706 102.149 119.117 49.8211 179.798 48.7619C179.802 48.7619 179.806 48.762 179.81 48.7619Z" fill="#33BAFF"/>
<path d="M332.19 463.238C309.979 486.788 266.824 511.811 256 512C355.423 512 441.608 455.323 484.008 372.516C467.669 402.93 397.096 462.105 332.19 463.238Z" fill="#33BAFF"/>
<path fill-rule="evenodd" clip-rule="evenodd" d="M220.956 48.0127L220.951 48.0126C216.102 48.0975 210.87 48.195 205.08 48.3028L205.073 48.3027C197.681 48.4402 189.381 48.5949 179.81 48.7619C189.384 48.5948 197.686 48.4403 205.08 48.3028C210.872 48.195 216.106 48.0976 220.956 48.0127Z" fill="#D3CC5B"/>
<path d="M485.004 141.449C494.075 168.886 485.82 212.413 475.429 256L475.425 256.012C487.611 301.394 495.471 338.744 486.674 366.418C486.277 367.667 485.743 368.999 485.078 370.402C502.306 335.973 512 297.119 512 256C512 214.822 502.278 175.915 485.004 141.449Z" fill="#D3CC5B"/>
<path d="M23.9151 147.816C8.57046 180.678 0 217.338 0 256C0 298.69 10.4493 338.939 28.9297 374.33C19.2118 346.967 26.0294 300.218 36.5714 256L36.5749 255.988C24.6122 211.438 15.9076 175.305 23.9151 147.816Z" fill="#D3CC5B"/>
<path fill-rule="evenodd" clip-rule="evenodd" d="M220.956 48.0127L220.951 48.0126C216.105 48.0975 210.875 48.1949 205.089 48.3026L205.08 48.3028L205.073 48.3027C197.853 48.437 189.765 48.5877 180.473 48.7503C189.768 48.5877 197.858 48.4371 205.08 48.3028L205.089 48.3026C210.877 48.1949 216.108 48.0976 220.956 48.0127Z" fill="#393760"/>
<path d="M185.905 463.238C260.183 465 262.605 464.453 332.19 463.238C406.436 374.792 454.707 325.319 475.425 256.012L475.422 256C444.574 172.441 401.894 137.652 326.095 48.7619C270.049 47.4328 254.907 47.418 220.956 48.0127C216.108 48.0976 210.877 48.1949 205.089 48.3026L205.08 48.3028C197.858 48.4371 189.768 48.5877 180.473 48.7503C180.252 48.7542 180.031 48.7581 179.81 48.7619C105.564 137.208 57.2926 186.682 36.5749 255.988L36.5781 256C67.426 339.559 110.106 374.348 185.905 463.238Z" fill="#393760"/>
<path d="M106.893 352V312H112.928V346.805H131.053V352H106.893ZM140.058 352H133.651L148.046 312H155.019L169.413 352H163.007L151.698 319.266H151.386L140.058 352ZM141.132 336.336H161.913V341.414H141.132V336.336ZM204.962 322.508C204.753 320.659 203.894 319.227 202.383 318.211C200.873 317.182 198.972 316.668 196.68 316.668C195.04 316.668 193.62 316.928 192.423 317.449C191.225 317.957 190.294 318.66 189.63 319.559C188.979 320.444 188.653 321.453 188.653 322.586C188.653 323.536 188.874 324.357 189.317 325.047C189.773 325.737 190.365 326.316 191.094 326.785C191.837 327.241 192.631 327.625 193.477 327.938C194.324 328.237 195.137 328.484 195.919 328.68L199.825 329.695C201.101 330.008 202.41 330.431 203.751 330.965C205.092 331.499 206.335 332.202 207.481 333.074C208.627 333.947 209.551 335.027 210.255 336.316C210.971 337.605 211.329 339.148 211.329 340.945C211.329 343.211 210.743 345.223 209.571 346.98C208.412 348.738 206.726 350.125 204.512 351.141C202.312 352.156 199.649 352.664 196.524 352.664C193.529 352.664 190.938 352.189 188.751 351.238C186.563 350.288 184.851 348.94 183.614 347.195C182.377 345.438 181.693 343.354 181.563 340.945H187.618C187.735 342.391 188.204 343.595 189.024 344.559C189.857 345.509 190.919 346.219 192.208 346.688C193.51 347.143 194.936 347.371 196.485 347.371C198.191 347.371 199.708 347.104 201.036 346.57C202.377 346.023 203.432 345.268 204.2 344.305C204.968 343.328 205.352 342.189 205.352 340.887C205.352 339.702 205.014 338.732 204.337 337.977C203.673 337.221 202.768 336.596 201.622 336.102C200.489 335.607 199.206 335.171 197.774 334.793L193.048 333.504C189.844 332.632 187.305 331.349 185.43 329.656C183.568 327.964 182.637 325.724 182.637 322.938C182.637 320.633 183.262 318.621 184.512 316.902C185.762 315.184 187.455 313.849 189.591 312.898C191.726 311.935 194.135 311.453 196.817 311.453C199.525 311.453 201.915 311.928 203.985 312.879C206.068 313.829 207.709 315.138 208.907 316.805C210.105 318.458 210.73 320.359 210.782 322.508H204.962ZM249.987 332C249.987 336.271 249.206 339.943 247.643 343.016C246.081 346.076 243.939 348.432 241.217 350.086C238.509 351.727 235.43 352.547 231.979 352.547C228.515 352.547 225.423 351.727 222.702 350.086C219.993 348.432 217.858 346.069 216.295 342.996C214.733 339.923 213.952 336.258 213.952 332C213.952 327.729 214.733 324.064 216.295 321.004C217.858 317.931 219.993 315.574 222.702 313.934C225.423 312.28 228.515 311.453 231.979 311.453C235.43 311.453 238.509 312.28 241.217 313.934C243.939 315.574 246.081 317.931 247.643 321.004C249.206 324.064 249.987 327.729 249.987 332ZM244.01 332C244.01 328.745 243.483 326.004 242.428 323.777C241.387 321.538 239.954 319.845 238.131 318.699C236.321 317.54 234.271 316.961 231.979 316.961C229.674 316.961 227.617 317.54 225.807 318.699C223.997 319.845 222.565 321.538 221.51 323.777C220.469 326.004 219.948 328.745 219.948 332C219.948 335.255 220.469 338.003 221.51 340.242C222.565 342.469 223.997 344.161 225.807 345.32C227.617 346.466 229.674 347.039 231.979 347.039C234.271 347.039 236.321 346.466 238.131 345.32C239.954 344.161 241.387 342.469 242.428 340.242C243.483 338.003 244.01 335.255 244.01 332ZM279.934 312H285.989V338.309C285.989 341.108 285.331 343.589 284.016 345.75C282.701 347.898 280.852 349.591 278.469 350.828C276.086 352.052 273.293 352.664 270.09 352.664C266.9 352.664 264.114 352.052 261.731 350.828C259.348 349.591 257.499 347.898 256.184 345.75C254.869 343.589 254.211 341.108 254.211 338.309V312H260.246V337.82C260.246 339.63 260.644 341.238 261.438 342.645C262.245 344.051 263.384 345.158 264.856 345.965C266.327 346.759 268.072 347.156 270.09 347.156C272.121 347.156 273.873 346.759 275.344 345.965C276.828 345.158 277.961 344.051 278.742 342.645C279.537 341.238 279.934 339.63 279.934 337.82V312ZM291.463 352V312H305.721C308.82 312 311.391 312.534 313.436 313.602C315.493 314.669 317.029 316.147 318.045 318.035C319.061 319.91 319.568 322.078 319.568 324.539C319.568 326.987 319.054 329.142 318.025 331.004C317.01 332.853 315.473 334.292 313.416 335.32C311.372 336.349 308.8 336.863 305.701 336.863H294.9V331.668H305.154C307.108 331.668 308.696 331.388 309.92 330.828C311.157 330.268 312.062 329.454 312.635 328.387C313.208 327.319 313.494 326.036 313.494 324.539C313.494 323.029 313.201 321.72 312.615 320.613C312.042 319.507 311.137 318.66 309.9 318.074C308.677 317.475 307.068 317.176 305.076 317.176H297.498V352H291.463ZM311.209 333.953L321.092 352H314.217L304.529 333.953H311.209ZM356.835 325.008H350.741C350.507 323.706 350.071 322.56 349.433 321.57C348.794 320.581 348.013 319.741 347.089 319.051C346.164 318.361 345.129 317.84 343.983 317.488C342.85 317.137 341.646 316.961 340.37 316.961C338.065 316.961 336.002 317.54 334.179 318.699C332.369 319.858 330.936 321.557 329.882 323.797C328.84 326.036 328.319 328.771 328.319 332C328.319 335.255 328.84 338.003 329.882 340.242C330.936 342.482 332.375 344.174 334.198 345.32C336.021 346.466 338.072 347.039 340.35 347.039C341.614 347.039 342.811 346.87 343.944 346.531C345.09 346.18 346.125 345.665 347.05 344.988C347.974 344.311 348.755 343.484 349.393 342.508C350.044 341.518 350.494 340.385 350.741 339.109L356.835 339.129C356.509 341.095 355.878 342.905 354.94 344.559C354.016 346.199 352.824 347.619 351.366 348.816C349.921 350.001 348.267 350.919 346.405 351.57C344.543 352.221 342.512 352.547 340.311 352.547C336.848 352.547 333.762 351.727 331.054 350.086C328.345 348.432 326.21 346.069 324.647 342.996C323.098 339.923 322.323 336.258 322.323 332C322.323 327.729 323.104 324.064 324.667 321.004C326.229 317.931 328.365 315.574 331.073 313.934C333.781 312.28 336.861 311.453 340.311 311.453C342.434 311.453 344.413 311.759 346.249 312.371C348.098 312.97 349.758 313.855 351.229 315.027C352.701 316.186 353.918 317.605 354.882 319.285C355.845 320.952 356.496 322.859 356.835 325.008ZM360.757 352V312H385.835V317.195H366.792V329.383H384.526V334.559H366.792V346.805H386.069V352H360.757Z" fill="white"/>
<path d="M385 291H106V300H385V291Z" fill="white"/>
<path d="M126.73 282H113.505L163.772 143.818H177.266L227.532 282H214.308L170.991 160.214H170.046L126.73 282ZM136.243 229.035H204.794V240.37H136.243V229.035ZM218.915 282V143.818H263.513C273.319 143.818 281.506 145.707 288.073 149.486C294.685 153.219 299.656 158.302 302.984 164.734C306.358 171.167 308.045 178.409 308.045 186.46C308.045 194.512 306.38 201.776 303.052 208.254C299.723 214.686 294.775 219.791 288.208 223.57C281.641 227.303 273.477 229.17 263.716 229.17H228.631V217.835H263.379C270.621 217.835 276.625 216.485 281.393 213.786C286.161 211.042 289.715 207.309 292.054 202.586C294.438 197.863 295.63 192.488 295.63 186.46C295.63 180.433 294.438 175.058 292.054 170.335C289.715 165.612 286.139 161.901 281.326 159.202C276.558 156.503 270.508 155.153 263.176 155.153H231.532V282H218.915ZM305.365 282V143.818H385.521V155.153H317.982V207.174H381.27V218.509H317.982V270.665H386.87V282H305.365Z" fill="white"/>
</svg>
