<svg width="40" height="37" viewBox="0 0 40 37" fill="none" xmlns="http://www.w3.org/2000/svg">
<path d="M4.43712 28.8011H15.2V34.3211H9.60001C9.48426 34.3207 9.36956 34.3432 9.26251 34.3873C9.15546 34.4313 9.05816 34.496 8.97617 34.5778C8.89419 34.6595 8.82914 34.7566 8.78476 34.8635C8.74038 34.9704 8.71753 35.085 8.71753 35.2008C8.71753 35.3165 8.74038 35.4312 8.78476 35.5381C8.82914 35.645 8.89419 35.7421 8.97617 35.8238C9.05816 35.9055 9.15546 35.9703 9.26251 36.0143C9.36956 36.0584 9.48426 36.0808 9.60001 36.0805H30.4C30.5158 36.0808 30.6305 36.0584 30.7375 36.0143C30.8446 35.9703 30.9419 35.9055 31.0239 35.8238C31.1058 35.7421 31.1709 35.645 31.2153 35.5381C31.2597 35.4312 31.2825 35.3165 31.2825 35.2008C31.2825 35.085 31.2597 34.9704 31.2153 34.8635C31.1709 34.7566 31.1058 34.6595 31.0239 34.5778C30.9419 34.496 30.8446 34.4313 30.7375 34.3873C30.6305 34.3432 30.5158 34.3207 30.4 34.3211H24.8V28.8011H35.5633C36.6506 28.8009 37.6999 28.4012 38.512 27.6781C39.324 26.955 39.8422 25.9589 39.968 24.8789H0.0320139C0.158025 25.9589 0.676281 26.955 1.48836 27.6781C2.30044 28.4012 3.34979 28.8008 4.43712 28.8011Z" fill="black"/>
<path d="M35.5633 0H4.43711C3.26034 1.41437e-05 2.13177 0.467484 1.29965 1.29958C0.467539 2.13167 4.24332e-05 3.26023 0 4.437V23.1195H40V4.437C40 3.85435 39.8853 3.27739 39.6623 2.73908C39.4394 2.20076 39.1126 1.71163 38.7006 1.29962C38.2886 0.887605 37.7995 0.560772 37.2612 0.337783C36.7229 0.114794 36.1459 1.51747e-05 35.5633 0ZM27.2 11.2477C27.2 12.5719 26.8437 13.8717 26.1683 15.0108C25.493 16.1499 24.5236 17.0862 23.3617 17.7216L20 19.5598L16.6387 17.7216C15.4767 17.0863 14.5072 16.15 13.8318 15.0109C13.1564 13.8718 12.8 12.5719 12.8 11.2477V5.85644L20 3.55976L27.2 5.85644V11.2477Z" fill="black"/>
<path d="M17.1203 9.96018C17.1223 10.568 17.317 11.1594 17.6764 11.6496C18.0357 12.1397 18.5413 12.5033 19.1203 12.688V15.1594C19.1203 15.3927 19.213 15.6164 19.3779 15.7814C19.5429 15.9464 19.7667 16.0391 20 16.0391C20.2333 16.0391 20.457 15.9464 20.622 15.7814C20.787 15.6164 20.8797 15.3927 20.8797 15.1594V12.688C21.3842 12.5246 21.8336 12.2247 22.1783 11.8216C22.5229 11.4185 22.7492 10.9279 22.8323 10.4041C22.9153 9.88029 22.8517 9.34374 22.6487 8.85382C22.4456 8.36391 22.1109 7.93974 21.6817 7.62828C21.2524 7.31682 20.7454 7.13022 20.2166 7.08913C19.6879 7.04804 19.1581 7.15406 18.6859 7.39546C18.2137 7.63687 17.8175 8.00423 17.5412 8.45689C17.2649 8.90955 17.1192 9.42985 17.1203 9.96018Z" fill="black"/>
</svg>
