<svg width="41" height="37" viewBox="0 0 41 37" fill="none" xmlns="http://www.w3.org/2000/svg">
<path d="M5.31209 29.4317H16.075V34.952H10.475C10.3592 34.9517 10.2445 34.9741 10.1375 35.0182C10.0304 35.0622 9.93313 35.127 9.85114 35.2087C9.76916 35.2904 9.70411 35.3875 9.65973 35.4944C9.61534 35.6013 9.5925 35.716 9.5925 35.8317C9.5925 35.9475 9.61534 36.0621 9.65973 36.169C9.70411 36.2759 9.76916 36.373 9.85114 36.4547C9.93313 36.5365 10.0304 36.6012 10.1375 36.6452C10.2445 36.6893 10.3592 36.7118 10.475 36.7114H31.275C31.3907 36.7118 31.5054 36.6893 31.6125 36.6452C31.7195 36.6012 31.8168 36.5365 31.8988 36.4547C31.9808 36.373 32.0459 36.2759 32.0902 36.169C32.1346 36.0621 32.1575 35.9475 32.1575 35.8317C32.1575 35.716 32.1346 35.6013 32.0902 35.4944C32.0459 35.3875 31.9808 35.2904 31.8988 35.2087C31.8168 35.127 31.7195 35.0622 31.6125 35.0182C31.5054 34.9741 31.3907 34.9517 31.275 34.952H25.675V29.4317H36.4383C37.5256 29.4314 38.575 29.0317 39.3871 28.3085C40.1991 27.5854 40.7172 26.5891 40.8429 25.509H0.906982C1.03288 26.5891 1.55109 27.5854 2.36318 28.3085C3.17528 29.0317 4.22469 29.4314 5.31209 29.4317Z" fill="black"/>
<path d="M36.4383 0.63092H5.31211C4.13535 0.63093 3.00679 1.09838 2.17468 1.93046C1.34257 2.76253 0.875064 3.89107 0.875 5.06782V23.7496H40.875V5.06782C40.875 4.48517 40.7603 3.90822 40.5373 3.36992C40.3143 2.83162 39.9875 2.3425 39.5756 1.9305C39.1636 1.51849 38.6745 1.19167 38.1362 0.968687C37.5979 0.745705 37.0209 0.630932 36.4383 0.63092ZM28.075 12.6782C28.075 14.0025 27.7186 15.3022 27.0433 16.4413C26.3679 17.5804 25.3985 18.5167 24.2367 19.1521L20.875 20.9902L17.5137 19.152C16.3518 18.5167 15.3823 17.5804 14.7068 16.4414C14.0314 15.3023 13.675 14.0025 13.675 12.6782V7.28687L20.875 4.99026L28.075 7.28684V12.6782Z" fill="black"/>
<path d="M17.7742 12.699C17.6925 12.617 17.5956 12.552 17.4888 12.5076C17.382 12.4631 17.2676 12.4402 17.1519 12.4401C17.0363 12.44 16.9217 12.4627 16.8149 12.5069C16.708 12.5511 16.6109 12.6159 16.5291 12.6977C16.4474 12.7795 16.3825 12.8766 16.3383 12.9834C16.2941 13.0903 16.2714 13.2048 16.2715 13.3205C16.2717 13.4361 16.2946 13.5506 16.339 13.6574C16.3834 13.7641 16.4485 13.8611 16.5304 13.9427L18.7921 16.2045C18.8738 16.2862 18.9708 16.351 19.0776 16.3953C19.1844 16.4395 19.2988 16.4623 19.4144 16.4623C19.53 16.4623 19.6444 16.4395 19.7512 16.3953C19.8579 16.351 19.9549 16.2862 20.0367 16.2045L25.2203 11.0201C25.3019 10.9383 25.3667 10.8413 25.4108 10.7345C25.455 10.6277 25.4777 10.5132 25.4776 10.3977C25.4775 10.2821 25.4547 10.1677 25.4104 10.0609C25.3661 9.95418 25.3012 9.85721 25.2195 9.77555C25.1377 9.69388 25.0406 9.62912 24.9338 9.58496C24.827 9.5408 24.7126 9.51812 24.597 9.51819C24.4815 9.51826 24.367 9.5411 24.2603 9.58539C24.1536 9.62968 24.0566 9.69457 23.9749 9.77634L19.414 14.3381L17.7742 12.699Z" fill="black"/>
</svg>
