<svg width="800" height="800" viewBox="0 0 800 800" fill="none" xmlns="http://www.w3.org/2000/svg">
<path d="M766.667 0H33.3328C14.9 0 0 14.9328 0 33.3328V200H800V33.3328C800 14.9328 785.1 0 766.667 0ZM133.333 133.333C114.933 133.333 100 118.4 100 100C100 81.6 114.933 66.6672 133.333 66.6672C151.733 66.6672 166.667 81.6 166.667 100C166.667 118.4 151.733 133.333 133.333 133.333ZM233.333 133.333C214.933 133.333 200 118.4 200 100C200 81.6 214.933 66.6672 233.333 66.6672C251.733 66.6672 266.667 81.6 266.667 100C266.667 118.4 251.733 133.333 233.333 133.333ZM333.333 133.333C314.933 133.333 300 118.4 300 100C300 81.6 314.933 66.6672 333.333 66.6672C351.733 66.6672 366.667 81.6 366.667 100C366.667 118.4 351.733 133.333 333.333 133.333Z" fill="black"/>
<path fill-rule="evenodd" clip-rule="evenodd" d="M0 766.667C0 785.067 14.9 800 33.3328 800H766.666C785.098 800 799.998 785.067 799.998 766.667V266.667H0V766.667ZM332.27 661.984H388.011L445.727 387.833H389.986L332.27 661.984ZM281.02 616.763L319.589 578.194L266.305 524.908L319.589 471.622L281.02 433.053L189.166 524.908L281.02 616.763ZM496.98 616.761L458.411 578.192L511.695 524.906L458.411 471.62L496.98 433.052L588.834 524.906L496.98 616.761Z" fill="black"/>
</svg>
