<svg width="1073" height="800" viewBox="0 0 1073 800" fill="none" xmlns="http://www.w3.org/2000/svg">
<path fill-rule="evenodd" clip-rule="evenodd" d="M871.202 333.449C871.793 325.651 872.094 317.771 872.094 309.822C872.094 138.71 733.382 0 562.27 0C398.442 0 264.33 127.166 253.213 288.171C113.69 289.643 0 404.213 0 544.069C0 684.831 115.169 800 255.931 800H837.668C966.636 800 1072.16 694.477 1072.16 565.514V565.512C1072.16 447.925 984.434 349.847 871.202 333.449ZM482.27 631.984H538.011L595.727 357.833H539.986L482.27 631.984ZM431.02 586.763L469.589 548.194L416.305 494.908L469.589 441.622L431.02 403.053L339.166 494.908L431.02 586.763ZM646.98 586.761L608.411 548.192L661.695 494.906L608.411 441.62L646.98 403.052L738.834 494.906L646.98 586.761Z" fill="black"/>
</svg>
