<svg width="32" height="33" viewBox="0 0 32 33" fill="none" xmlns="http://www.w3.org/2000/svg">
  <path d="M21.3333 16.6667C21.3333 17.7215 21.0205 18.7527 20.4345 19.6297C19.8485 20.5068 19.0155 21.1904 18.041 21.594C17.0664 21.9977 15.9941 22.1033 14.9595 21.8975C13.925 21.6918 12.9746 21.1838 12.2288 20.4379C11.4829 19.692 10.9749 18.7417 10.7691 17.7072C10.5634 16.6726 10.669 15.6002 11.0726 14.6257C11.4763 13.6512 12.1599 12.8182 13.037 12.2322C13.914 11.6461 14.9452 11.3334 16 11.3334C17.4145 11.3334 18.771 11.8953 19.7712 12.8955C20.7714 13.8956 21.3333 15.2522 21.3333 16.6667ZM16 14C15.4726 14 14.957 14.1564 14.5185 14.4494C14.0799 14.7425 13.7382 15.1589 13.5363 15.6462C13.3345 16.1335 13.2817 16.6696 13.3846 17.1869C13.4875 17.7042 13.7414 18.1794 14.1144 18.5523C14.4873 18.9252 14.9625 19.1792 15.4798 19.2821C15.997 19.385 16.5332 19.3322 17.0205 19.1304C17.5078 18.9285 17.9242 18.5867 18.2173 18.1482C18.5103 17.7097 18.6667 17.1941 18.6667 16.6667C18.6667 15.9594 18.3857 15.2812 17.8856 14.7811C17.3855 14.281 16.7072 14 16 14ZM19.9573 28.24L21.6987 27.6134L25.8133 29.5067L28.912 26.384L26.9813 22.0534L27.7707 20.3787L32 18.8054V14.4054L27.5733 12.7094L26.9467 10.968L28.8267 6.86669L25.7173 3.75469L21.3867 5.68535L19.712 4.89602L18.1387 0.666687H13.7387L12.0427 5.09335L10.3013 5.72002L6.18667 3.82669L3.07733 6.94135L5.016 11.28L4.22933 12.9547L0 14.528V18.928L4.42667 20.624L5.05333 22.3654L3.16 26.48L6.27467 29.5894L10.6133 27.6507L12.288 28.4374L13.8613 32.6667H18.2613L19.9573 28.24ZM13.984 26.48L10.888 25.0294L7.15467 26.7014L6.056 25.6054L7.62933 22.184L6.472 18.968L2.66667 17.5067V15.9574L6.18667 14.6507L7.63733 11.5547L5.96533 7.82135L7.06133 6.72269L10.4827 8.29602L13.6987 7.13869L15.16 3.33335H16.7093L18.016 6.85335L21.1093 8.30135L24.832 6.64269L25.9307 7.74135L24.3707 11.1547L25.528 14.3654L29.3333 15.8267V17.376L25.8133 18.6827L24.3653 21.776L26.0267 25.504L24.9333 26.6054L21.52 25.0374L18.3013 26.1947L16.84 30H15.2907L13.984 26.48Z" fill="black"/>
</svg>
