<svg width="154" height="154" viewBox="0 0 154 154" fill="none" xmlns="http://www.w3.org/2000/svg">
  <circle cx="77" cy="77" r="75" fill="white" stroke="#324BF7" stroke-width="3" />
  <path
    d="M42.3282 106.58C42.35 107.497 42.5115 108.655 45.5368 109.697C52.7877 112.196 58.9217 113.395 75.3318 113.059C98.4343 112.586 137.866 95.9458 134.463 67.7093C132.63 52.491 112.828 32.8721 75.7902 34.0507C44.2533 34.9542 14 55.4419 14 82.3777C39.2111 21.6876 118.42 36.9976 118.42 72.2932C116.678 97.5043 83.5828 103.555 83.5828 103.555C81.1074 103.83 82.1159 101.813 82.1159 101.813C82.1159 101.813 82.6659 100.163 81.4742 99.7963C80.2824 99.4296 77.1653 100.621 69.9229 100.53C62.6805 100.438 58.1882 99.6129 58.1882 99.6129C56.9047 99.4295 56.538 98.5128 56.7214 97.5043L58.83 85.678H73.6816C79.0905 85.678 78.5405 77.6104 73.6816 77.6104H60.0218L62.0387 66.6092C62.222 65.1424 63.6888 64.3173 64.6056 64.0422C64.6056 64.0422 66.9892 63.0338 75.1485 63.0338C83.3078 63.0338 85.4163 64.2256 86.3331 64.2256C87.2498 64.2256 88.4417 63.5839 88.9917 62.5754C89.5417 61.567 90.5502 56.7081 90.5502 55.2413C90.5502 53.7745 89.5417 53.041 88.4416 52.491C87.3416 51.9409 81.9325 50.6574 72.2148 50.5658C62.4971 50.4741 54.8879 52.3076 54.8879 52.3076C53.421 52.6743 52.2292 53.3161 51.7709 54.5079C51.3125 55.6997 51.4041 59 50.6707 61.842C49.9373 65.7841 44.6201 94.204 43.8867 98.1461C43.1532 102.088 42.3282 103.738 42.3282 106.58Z"
    fill="url(#paint0_linear_638_60)" />
  <defs>
    <linearGradient id="paint0_linear_638_60" x1="74.335" y1="34" x2="74.335" y2="113.114"
      gradientUnits="userSpaceOnUse">
      <stop stop-color="#0C408A" />
      <stop offset="1" stop-color="#3DA6DC" />
    </linearGradient>
  </defs>
</svg>
