<?xml version="1.0" encoding="utf-8"?>
<svg width="505" height="512" viewBox="0 0 505 512" fill="none" xmlns="http://www.w3.org/2000/svg">
<path fill-rule="evenodd" clip-rule="evenodd" d="M496.43 378.02C496.43 304.23 436.62 244.41 362.83 244.41C289.04 244.41 229.23 304.23 229.23 378.02C229.23 451.8 289.04 511.62 362.83 511.62C436.62 511.62 496.43 451.8 496.43 378.02ZM422 352.985V296.347C421.996 295.458 421.641 294.607 421.013 293.979C420.384 293.352 419.534 293 418.647 293H397.405L382.5 314.861H401.969L349.839 372.003L372.942 327.436L358.17 327.273L376.177 293H310.338C309.453 293 308.604 293.353 307.978 293.98C307.352 294.608 307 295.46 307 296.347V353C307 381.497 326.898 409.416 356.073 410.616V459.004H339.218C331.211 459.004 331.108 475 339.218 475H392.116C400.329 475 400.329 459.004 392.116 459.004H374.922V410.468C403.136 408.35 422 380.742 422 352.985Z" fill="black"/>
<path fill-rule="evenodd" clip-rule="evenodd" d="M204.74 267.84L204.83 126.13L349.87 145.84V204.66C356.322 204.181 362.795 204.061 369.26 204.3V144.49L485.07 69.56V253.13C487.607 257.482 492.001 263.305 496.36 269.082C499.493 273.234 502.608 277.362 505 280.9L504.49 52.13V52.11C504.49 46.89 501 42.71 495.91 42.12L187.73 0.0800234C186 -0.159977 184.06 0.130023 182.48 0.850023L5.72 81.05C1.89 82.97 0.27 85.81 0 89.86V422.39C0 427.6 4.13 431.87 9.3 432.08L207.19 457.67C203.81 451.03 200.86 444.14 198.34 437.05L19.39 413.91V100.93L107.93 112.96L101.83 261.87L153.29 232.8L204.74 267.84ZM220.73 108.78L336.11 39.84L467.43 57.74L356.11 127.18L220.73 108.78ZM235.48 26.11L123.31 95.55L44.24 84.8L187.9 19.62L235.48 26.11Z" fill="black"/>
<path d="M51.0075 305.401L50.8565 384.025L37 382.29V400.603L152 416V397.37L133.346 394.899L133.271 315.939L152 318.353L124.657 283.103L100.531 311.749L114.965 313.613L115.039 392.5L69.5455 386.536L69.471 307.807L85.2518 309.845L60.3217 275L37 303.576L51.0075 305.401Z" fill="black"/>
</svg>
