<svg width="34" height="34" viewBox="0 0 34 34" fill="none" xmlns="http://www.w3.org/2000/svg">
<path d="M33.3523 15.4825L18.5074 0.642968C17.6555 -0.214323 16.267 -0.214323 15.4086 0.642968L12.3322 3.72475L16.2436 7.63089C17.1562 7.32707 18.1972 7.53103 18.9164 8.2566C19.6473 8.98747 19.8513 10.0381 19.5421 10.9453L23.3049 14.7134C24.2174 14.3979 25.2691 14.6029 25.9936 15.3327C27.0177 16.3504 27.0177 17.9991 25.9936 19.0179C24.9759 20.0356 23.3325 20.0356 22.3137 19.0179C21.5499 18.2541 21.3566 17.1259 21.7379 16.191L18.2132 12.6833V21.9286C18.4617 22.0508 18.6997 22.2165 18.9047 22.4215C19.9171 23.4456 19.9171 25.088 18.9047 26.1067C17.887 27.1244 16.2319 27.1244 15.2089 26.1067C14.1912 25.089 14.1912 23.4456 15.2089 22.4215C15.4692 22.1666 15.7571 21.9785 16.0662 21.8521V12.5186C15.7624 12.3858 15.4681 12.2031 15.2142 11.9492C14.4451 11.1801 14.2571 10.0519 14.6555 9.10539L10.8152 5.24386L0.635 15.4187C-0.211667 16.2707 -0.211667 17.6592 0.635 18.5175L15.4798 33.357C16.3371 34.2143 17.7203 34.2143 18.5786 33.357L33.3512 18.5844C34.2085 17.7325 34.2085 16.344 33.3512 15.4857L33.3523 15.4825Z" fill="black"/>
</svg>
