<svg width="34" height="34" viewBox="0 0 34 34" fill="none" xmlns="http://www.w3.org/2000/svg">
  <path d="M17 0C13.6377 0 10.3509 0.997032 7.55531 2.86502C4.75968 4.733 2.58074 7.38804 1.29406 10.4944C0.00736586 13.6007 -0.329291 17.0189 0.326658 20.3165C0.982606 23.6142 2.6017 26.6433 4.97919 29.0208C7.35668 31.3983 10.3858 33.0174 13.6835 33.6733C16.9811 34.3293 20.3993 33.9926 23.5056 32.7059C26.612 31.4193 29.267 29.2403 31.135 26.4447C33.003 23.6491 34 20.3623 34 17C34 12.4913 32.2089 8.1673 29.0208 4.97918C25.8327 1.79107 21.5087 0 17 0ZM15.0244 6.46235C15.2749 6.2102 15.5728 6.01008 15.901 5.87353C16.2292 5.73697 16.5811 5.66667 16.9365 5.66667C17.292 5.66667 17.6439 5.73697 17.972 5.87353C18.3002 6.01008 18.5981 6.2102 18.8486 6.46235C19.1012 6.71161 19.3007 7.00941 19.4352 7.33781C19.5696 7.6662 19.6363 8.01841 19.631 8.37323C19.6259 9.08554 19.3393 9.76691 18.8338 10.2688C18.3283 10.7706 17.6448 11.0523 16.9325 11.0523C16.2202 11.0523 15.5368 10.7706 15.0313 10.2688C14.5258 9.76691 14.2392 9.08554 14.234 8.37323C14.2291 8.01773 14.2966 7.66495 14.4325 7.33641C14.5684 7.00787 14.7698 6.71047 15.0244 6.46235ZM21.8179 28.3333H12.1821V24.752H14.5429V16.3687H12.1821V12.7875H19.5053V24.752H21.8179V28.3333Z" fill="white"/>
</svg>
