<svg width="32" height="34" viewBox="0 0 32 34" fill="none" xmlns="http://www.w3.org/2000/svg">
  <path d="M26.0026 14.2538H24.7135H24.7132V9.71315C24.7131 4.90879 20.8044 1 15.9999 1C11.1957 1 7.28691 4.90879 7.28691 9.71322V14.2538H5.99753C4.97826 14.2538 4.15182 15.0801 4.15182 16.0995V17.2223V30.0316V31.1543C4.15182 32.1737 4.97819 33 5.99753 33H16H26.0026C27.0219 33 27.8482 32.1737 27.8482 31.1543V30.0316V17.2223V16.0995C27.8482 15.0801 27.0219 14.2538 26.0026 14.2538ZM17.9645 27.4745H14.0355L14.7387 24.1238C14.0811 23.7053 13.6419 22.9745 13.6419 22.1373C13.6419 20.835 14.6977 19.7793 16 19.7793C17.3023 19.7793 18.358 20.835 18.358 22.1373C18.358 22.9745 17.9189 23.7053 17.2613 24.1236L17.9645 27.4745ZM21.6042 14.2538H16H10.3962H10.3958V9.71315C10.3958 6.62272 12.9097 4.10892 16 4.10892C19.0904 4.10892 21.6042 6.62279 21.6042 9.71315V14.2538Z" fill="black"/>
</svg>
