<svg width="32" height="32" viewBox="0 0 32 32" fill="none" xmlns="http://www.w3.org/2000/svg">
<path d="M28.6501 4.36607L27.3938 4.30527C22.6137 4.06496 19.2056 2.95318 16.9816 0.903325L15.9996 0L15.0176 0.903325C12.7936 2.95318 9.38549 4.06496 4.60687 4.30527L3.35048 4.36607L3.23495 5.62551C2.40602 14.763 3.19307 24.9978 15.305 31.6207L15.9996 32L16.6928 31.6207C28.8061 24.9978 29.5932 14.763 28.7657 5.62407L28.6501 4.36607ZM15.9967 30.3511C4.61842 24.1263 3.89347 14.4199 4.67908 5.75146C9.80862 5.49378 13.52 4.25605 16.0039 1.96878C18.4878 4.25605 22.1949 5.49812 27.3259 5.75435C28.1115 14.4257 27.375 24.1278 15.9967 30.3497V30.3511ZM23.9741 10.1624L24.894 11.0831L13.8334 21.9491L8.77895 17.1559L9.69886 16.2352L13.8334 20.1062L23.9741 10.1624Z" fill="black"/>
</svg>
