<svg width="32" height="32" viewBox="0 0 32 32" fill="none" xmlns="http://www.w3.org/2000/svg">
<path d="M7.45632 17.847L8.44583 16.859L12.8932 21.0128L23.8012 10.341L24.7907 11.3305L12.8932 22.9903L7.45632 17.847ZM32 16C32 19.1645 31.0616 22.2579 29.3035 24.8891C27.5454 27.5203 25.0466 29.5711 22.1229 30.7821C19.1993 31.9931 15.9823 32.3099 12.8786 31.6926C9.77487 31.0752 6.92394 29.5513 4.6863 27.3137C2.44866 25.0761 0.924806 22.2251 0.307443 19.1214C-0.309921 16.0177 0.00693256 12.8007 1.21793 9.87706C2.42894 6.95345 4.4797 4.45459 7.11088 2.69649C9.74207 0.938384 12.8355 6.79127e-07 16 6.79127e-07C18.1013 -0.000611624 20.1822 0.412822 22.1237 1.21668C24.0651 2.02054 25.8292 3.19907 27.3151 4.68493C28.8009 6.17078 29.9795 7.93485 30.7833 9.87634C31.5872 11.8178 32.0006 13.8987 32 16ZM30.4466 16C30.4466 13.1427 29.5993 10.3496 28.0119 7.9739C26.4245 5.59817 24.1683 3.74651 21.5285 2.65308C18.8887 1.55965 15.984 1.27356 13.1816 1.83099C10.3792 2.38841 7.80511 3.76432 5.78472 5.78471C3.76432 7.8051 2.38842 10.3792 1.83099 13.1816C1.27357 15.984 1.55966 18.8887 2.65309 21.5285C3.74652 24.1682 5.59817 26.4245 7.9739 28.0119C10.3496 29.5993 13.1427 30.4466 16 30.4466C19.8302 30.4425 23.5024 28.9191 26.2108 26.2107C28.9191 23.5024 30.4425 19.8302 30.4466 16Z" fill="black"/>
</svg>
