<svg width="32" height="35" viewBox="0 0 32 35" fill="none" xmlns="http://www.w3.org/2000/svg">
<path d="M25.1982 12.7666L24.8017 13.1562L13.2334 24.4794L7 18.5829L8.76562 16.8202L9.1543 17.1825L13.2168 20.9775L23.4316 11L25.1982 12.7666Z" fill="black"/>
<path fill-rule="evenodd" clip-rule="evenodd" d="M15.9767 0.353542L17.103 1.28891L17.3328 1.47276C19.7353 3.34902 23.4066 4.41972 28.6563 4.65767L30.6455 4.74454L30.8282 6.53852L30.9122 7.43348C31.3011 11.9284 31.2089 16.7 29.4363 21.2014C27.5963 25.8738 23.9632 30.2107 17.3014 33.6492L16.648 33.9795L15.8523 34.3714L15.5498 34.5209L15.2472 34.3714L14.4492 33.9795C7.37043 30.4906 3.56095 26.0243 1.6621 21.2014C-0.228127 16.4004 -0.205792 11.2923 0.272437 6.54054L0.45511 4.74454L2.44322 4.65767L3.43952 4.6011C8.3228 4.26703 11.748 3.1549 13.9942 1.28891L15.1217 0.353542L15.5498 0L15.9767 0.353542ZM15.5542 3.56472C12.6614 5.76292 8.55164 6.94955 3.1403 7.25772C2.7406 11.567 2.7911 16.0404 4.41229 20.2034C6.05906 24.4318 9.34426 28.3826 15.5442 31.5138C21.7466 28.3837 25.0358 24.4346 26.6861 20.2065C28.3106 16.0444 28.3632 11.5713 27.9637 7.26075C22.5511 6.95348 18.4462 5.76292 15.5542 3.56472Z" fill="black"/>
</svg>
