<svg width="34" height="34" viewBox="0 0 34 34" fill="none" xmlns="http://www.w3.org/2000/svg">
<path fill-rule="evenodd" clip-rule="evenodd" d="M17.4068 0.455078C19.4415 0.504595 21.451 0.929559 23.3336 1.70898C25.3417 2.54045 27.1668 3.75907 28.7037 5.2959C30.2406 6.83279 31.4591 8.65787 32.2906 10.666C33.1221 12.6742 33.55 14.8265 33.5494 17L33.5387 17.6123C33.4254 20.671 32.4652 23.6427 30.7603 26.1943C28.9418 28.9159 26.3567 31.0374 23.3326 32.29C20.3088 33.5424 16.9812 33.8709 13.7711 33.2324C10.5608 32.5938 7.61192 31.0166 5.29745 28.7021C2.983 26.3876 1.40574 23.4388 0.767178 20.2285C0.128723 17.0184 0.457127 13.6909 1.70956 10.667C2.96215 7.64298 5.08376 5.05779 7.80526 3.23926C10.5267 1.42088 13.7265 0.450275 16.9996 0.450195L17.4068 0.455078ZM22.318 4.16113C19.7788 3.10948 16.9842 2.83399 14.2887 3.37012C11.5931 3.90637 9.11681 5.23045 7.17343 7.17383C5.23007 9.11727 3.9059 11.5935 3.36972 14.2891C2.8336 16.9846 3.10902 19.7792 4.16073 22.3184C5.21249 24.8574 6.99387 27.0278 9.2789 28.5547C11.5638 30.0814 14.2506 30.8952 16.9986 30.8955C20.6831 30.8916 24.2165 29.4275 26.8219 26.8223C29.4271 24.217 30.892 20.6843 30.8961 17L30.8863 16.4854C30.7912 13.9172 29.9858 11.4217 28.5543 9.2793C27.0274 6.99422 24.857 5.21291 22.318 4.16113Z" fill="black"/>
<path d="M26.2183 13.1875L25.8218 13.5772L14.2535 24.9004L8.02015 19.0039L9.78577 17.2412L10.1744 17.6035L14.2369 21.3984L24.4517 11.4209L26.2183 13.1875Z" fill="black"/>
</svg>
