<svg width="34" height="34" viewBox="0 0 34 34" fill="none" xmlns="http://www.w3.org/2000/svg">
<path d="M24.7194 10.6875L25.0583 11.0273L18.8952 17.1895L24.7194 23.0137L25.0583 23.3535L23.3532 25.0586L23.0134 24.7197L17.1891 18.8955L11.027 25.0586L10.6872 24.7197L9.32098 23.3535L9.65984 23.0137L15.4831 17.1895L9.32098 11.0273L9.65984 10.6875L10.6872 9.66016L11.027 9.32129L17.1891 15.4834L23.0134 9.66016L23.3532 9.32129L24.7194 10.6875Z" fill="black"/>
<path fill-rule="evenodd" clip-rule="evenodd" d="M17.405 0.524414C19.4311 0.573692 21.4326 0.997257 23.3073 1.77344C25.3068 2.60139 27.1237 3.81542 28.654 5.3457C30.1843 6.87603 31.3983 8.69283 32.2263 10.6924C33.0542 12.6921 33.4808 14.8357 33.4802 17L33.4684 17.6104C33.3556 20.656 32.3995 23.6156 30.7018 26.1562C28.891 28.866 26.3174 30.9784 23.3063 32.2256C20.2951 33.4728 16.9815 33.7989 13.7848 33.1631C10.5882 32.5272 7.65107 30.958 5.34637 28.6533C3.04168 26.3486 1.47247 23.4116 0.836603 20.2148C0.200791 17.0182 0.526842 13.7046 1.7741 10.6934C3.02132 7.68231 5.13368 5.10867 7.84344 3.29785C10.5535 1.48706 13.7404 0.519594 16.9997 0.519531L17.405 0.524414ZM22.3444 4.09668C19.7925 3.03969 16.9842 2.76291 14.2751 3.30176C11.5659 3.8407 9.0769 5.17083 7.12371 7.12402C5.17054 9.07726 3.84034 11.5662 3.30145 14.2754C2.7626 16.9845 3.03933 19.7928 4.09637 22.3447C5.15343 24.8967 6.94324 27.0786 9.23992 28.6133C11.5364 30.1477 14.2368 30.9656 16.9987 30.9658C20.7017 30.9618 24.2523 29.4895 26.8708 26.8711C29.4891 24.2527 30.9624 20.7029 30.9665 17L30.9567 16.4824C30.861 13.9014 30.0516 11.3934 28.613 9.24023C27.0783 6.94351 24.8964 5.15375 22.3444 4.09668Z" fill="black"/>
</svg>
