<svg width="160" height="139" viewBox="0 0 160 139" fill="none" xmlns="http://www.w3.org/2000/svg">
  <path d="M147.556 0.52417H12.4444C5.57156 0.52417 0 6.09574 0 12.9686V27.1132C0 28.0948 0.795938 28.8911 1.77781 28.8911H158.222C159.204 28.8911 160 28.0951 160 27.1132V12.9686C160 6.09574 154.428 0.52417 147.556 0.52417ZM22.4391 18.7192C20.2234 18.7192 18.4278 16.9232 18.4278 14.7079C18.4278 12.4926 20.2238 10.6967 22.4391 10.6967C24.6544 10.6967 26.4503 12.4926 26.4503 14.7079C26.4506 16.9232 24.6547 18.7192 22.4391 18.7192ZM35.2991 18.7192C33.0834 18.7192 31.2878 16.9232 31.2878 14.7079C31.2878 12.4926 33.0838 10.6967 35.2991 10.6967C37.5144 10.6967 39.3103 12.4926 39.3103 14.7079C39.3106 16.9232 37.5144 18.7192 35.2991 18.7192ZM48.1591 18.7192C45.9437 18.7192 44.1478 16.9232 44.1478 14.7079C44.1478 12.4926 45.9437 10.6967 48.1591 10.6967C50.3747 10.6967 52.1703 12.4926 52.1703 14.7079C52.1703 16.9232 50.3744 18.7192 48.1591 18.7192Z" fill="#25465f"/>
  <path d="M158.222 36.0024H1.77781C0.79625 36.0024 0 36.7984 0 37.7803V126.442C0 133.315 5.57156 138.887 12.4444 138.887H147.556C154.428 138.887 160 133.315 160 126.442V37.7803C160 36.7984 159.204 36.0024 158.222 36.0024ZM55.6884 78.9659L49.4831 98.1153C48.5609 100.963 44.7216 101.475 43.1009 98.9281L38.3344 91.4356L33.5675 98.9287C31.9541 101.463 28.1097 100.97 27.1853 98.1159L20.9806 78.9665C19.5322 74.4984 26.295 72.299 27.745 76.7746L31.6216 88.739L35.3341 82.9037C36.7284 80.7122 39.9372 80.7081 41.3341 82.9037L45.0466 88.739L48.9234 76.7743C50.3747 72.2965 57.1366 74.4987 55.6884 78.9659ZM97.3541 78.9659L91.1494 98.1153C90.2272 100.963 86.3881 101.475 84.7672 98.9281L80 91.4362L75.2334 98.9287C73.62 101.463 69.7756 100.97 68.8513 98.1159L62.6466 78.9665C61.1981 74.4984 67.9609 72.299 69.4109 76.7746L73.2875 88.739L77 82.9037C78.3944 80.7122 81.6031 80.7081 83 82.9037L86.7125 88.739L90.5891 76.7746C92.0372 72.305 98.8047 74.4909 97.3541 78.9659ZM139.019 78.9659L132.815 98.1153C131.891 100.968 128.047 101.464 126.433 98.9281L121.666 91.4356L116.899 98.9281C115.279 101.474 111.44 100.964 110.517 98.1153L104.312 78.9659C102.863 74.4971 109.626 72.2984 111.076 76.774L114.953 88.7387L118.666 82.9034C120.06 80.7118 123.269 80.7078 124.666 82.9034L128.378 88.7387L132.255 76.7743C133.703 72.305 140.47 74.4909 139.019 78.9659Z" fill="#25465f"/>
</svg>
