<svg width="2208" height="600" viewBox="0 0 2208 600" fill="none" xmlns="http://www.w3.org/2000/svg">
<g clip-path="url(#clip0_671_109)">
<path d="M2063.58 491.327V486.64H2074.48V455.884C2073.44 456.413 2072.24 456.943 2070.88 457.473C2069.52 457.984 2068.2 458.431 2066.93 458.807C2065.66 459.168 2064.62 459.404 2063.81 459.517V454.69C2064.53 454.522 2065.4 454.264 2066.45 453.925C2067.49 453.563 2068.57 453.165 2069.68 452.731C2070.82 452.296 2071.88 451.84 2072.87 451.369C2073.85 450.876 2074.66 450.41 2075.28 449.976H2081.27V486.64H2090.96V491.327H2063.58Z" fill="#D9D9D9"/>
<path d="M2105.64 491.326V490.644L2119.02 473.547C2118.13 474.116 2117.14 474.56 2116.07 474.882C2114.99 475.206 2113.91 475.365 2112.83 475.365C2111.2 475.365 2109.65 475.08 2108.17 474.514C2106.71 473.926 2105.42 473.085 2104.28 471.986C2103.14 470.868 2102.24 469.524 2101.58 467.954C2100.92 466.362 2100.59 464.556 2100.59 462.529C2100.59 460.028 2101.18 457.797 2102.38 455.825C2103.57 453.839 2105.24 452.277 2107.38 451.142C2109.53 449.985 2112.06 449.409 2114.96 449.409C2117.23 449.409 2119.25 449.767 2121.01 450.487C2122.77 451.188 2124.26 452.164 2125.47 453.413C2126.7 454.644 2127.63 456.073 2128.25 457.702C2128.89 459.331 2129.22 461.051 2129.22 462.869C2129.22 464.801 2128.97 466.561 2128.48 468.153C2127.99 469.742 2127.28 471.275 2126.38 472.754C2125.49 474.211 2124.45 475.726 2123.25 477.297L2112.69 491.326H2105.64ZM2114.7 470.991C2115.61 470.991 2116.54 470.841 2117.49 470.538C2118.43 470.235 2119.3 469.751 2120.1 469.09C2120.91 468.407 2121.57 467.538 2122.06 466.475C2122.55 465.416 2122.8 464.118 2122.8 462.585C2122.8 461.051 2122.48 459.661 2121.86 458.412C2121.25 457.142 2120.37 456.128 2119.22 455.372C2118.06 454.613 2116.65 454.237 2114.99 454.237C2113.34 454.237 2111.92 454.613 2110.73 455.372C2109.53 456.128 2108.62 457.142 2108 458.412C2107.38 459.661 2107.06 461.06 2107.06 462.615C2107.06 465.018 2107.71 467.017 2108.99 468.606C2110.3 470.198 2112.2 470.991 2114.7 470.991Z" fill="#D9D9D9"/>
<path d="M2155.21 491.327V481.102H2138.33L2137.2 476.446L2154.38 449.976H2161.85V476.275H2167.08L2166.71 481.102H2161.85V491.327H2155.21ZM2143.08 476.36H2155.18V457.16L2143.08 476.36Z" fill="#D9D9D9"/>
<path d="M2190.31 491.896C2188.06 491.896 2186.04 491.544 2184.26 490.843C2182.5 490.124 2181.01 489.141 2179.8 487.889C2178.59 486.64 2177.67 485.21 2177.04 483.603C2176.42 481.975 2176.11 480.242 2176.11 478.405C2176.11 476.474 2176.32 474.723 2176.76 473.149C2177.22 471.56 2177.86 470.027 2178.69 468.551C2179.55 467.073 2180.55 465.53 2181.7 463.92L2191.73 449.976H2198.78V450.658C2196.58 453.631 2194.38 456.603 2192.18 459.576C2189.99 462.548 2187.78 465.511 2185.57 468.465C2186.4 467.801 2187.4 467.216 2188.55 466.705C2189.7 466.194 2191.04 465.937 2192.55 465.937C2194.14 465.937 2195.65 466.222 2197.07 466.788C2198.51 467.357 2199.78 468.19 2200.88 469.289C2201.99 470.385 2202.87 471.723 2203.49 473.293C2204.13 474.863 2204.45 476.654 2204.45 478.659C2204.45 481.16 2203.88 483.413 2202.72 485.419C2201.59 487.408 2199.96 488.988 2197.84 490.163C2195.73 491.317 2193.22 491.896 2190.31 491.896ZM2190.25 487.038C2191.92 487.038 2193.32 486.649 2194.46 485.875C2195.61 485.097 2196.49 484.075 2197.1 482.807C2197.7 481.518 2198.01 480.107 2198.01 478.574C2198.01 476.966 2197.7 475.546 2197.1 474.315C2196.49 473.066 2195.62 472.09 2194.49 471.389C2193.37 470.67 2191.99 470.311 2190.37 470.311C2189.48 470.311 2188.58 470.461 2187.67 470.764C2186.76 471.067 2185.91 471.551 2185.11 472.212C2184.34 472.877 2183.71 473.746 2183.24 474.827C2182.76 475.886 2182.53 477.175 2182.53 478.69C2182.53 480.202 2182.82 481.595 2183.41 482.862C2184.02 484.133 2184.89 485.146 2186.05 485.902C2187.21 486.658 2188.6 487.038 2190.25 487.038Z" fill="#D9D9D9"/>
<path d="M1689.12 492.092V449.792H1715.35V455.287H1695.5V468.174H1713.47V473.648H1695.5V492.092H1689.12Z" fill="#D9D9D9"/>
<path d="M1762.86 470.942C1762.86 475.457 1762.03 479.342 1760.38 482.59C1758.73 485.825 1756.46 488.317 1753.59 490.068C1750.72 491.804 1747.46 492.67 1743.81 492.67C1740.15 492.67 1736.88 491.804 1734 490.068C1731.14 488.317 1728.88 485.819 1727.23 482.571C1725.57 479.32 1724.75 475.445 1724.75 470.942C1724.75 466.426 1725.57 462.548 1727.23 459.312C1728.88 456.064 1731.14 453.572 1734 451.837C1736.88 450.089 1740.15 449.213 1743.81 449.213C1747.46 449.213 1750.72 450.089 1753.59 451.837C1756.46 453.572 1758.73 456.064 1760.38 459.312C1762.03 462.548 1762.86 466.426 1762.86 470.942ZM1756.54 470.942C1756.54 467.498 1755.98 464.602 1754.87 462.245C1753.76 459.878 1752.25 458.088 1750.32 456.875C1748.41 455.651 1746.24 455.039 1743.81 455.039C1741.38 455.039 1739.2 455.651 1737.29 456.875C1735.37 458.088 1733.86 459.878 1732.74 462.245C1731.64 464.602 1731.09 467.498 1731.09 470.942C1731.09 474.383 1731.64 477.291 1732.74 479.657C1733.86 482.011 1735.37 483.802 1737.29 485.026C1739.2 486.239 1741.38 486.845 1743.81 486.845C1746.24 486.845 1748.41 486.239 1750.32 485.026C1752.25 483.802 1753.76 482.011 1754.87 479.657C1755.98 477.291 1756.54 474.383 1756.54 470.942Z" fill="#D9D9D9"/>
<path d="M1807.87 449.792V492.092H1802.01L1780.5 461.069H1780.11V492.092H1773.73V449.792H1779.63L1801.16 480.857H1801.55V449.792H1807.87Z" fill="#D9D9D9"/>
<path d="M1833.79 492.092H1820.09V449.792H1834.22C1838.37 449.792 1841.93 450.637 1844.9 452.333C1847.88 454.01 1850.16 456.428 1851.74 459.582C1853.34 462.722 1854.14 466.488 1854.14 470.88C1854.14 475.286 1853.33 479.072 1851.72 482.241C1850.12 485.406 1847.81 487.843 1844.78 489.551C1841.75 491.244 1838.09 492.092 1833.79 492.092ZM1826.48 486.514H1833.44C1836.66 486.514 1839.34 485.908 1841.47 484.696C1843.61 483.471 1845.2 481.702 1846.26 479.388C1847.33 477.061 1847.86 474.226 1847.86 470.88C1847.86 467.562 1847.33 464.746 1846.26 462.432C1845.22 460.117 1843.66 458.363 1841.58 457.166C1839.5 455.966 1836.91 455.369 1833.83 455.369H1826.48V486.514Z" fill="#D9D9D9"/>
<path d="M1864.98 492.092V449.792H1891.5V455.287H1871.37V468.174H1890.12V473.648H1871.37V486.597H1891.75V492.092H1864.98ZM1875.68 445.558L1880.52 436.035H1887.02L1880.62 445.558H1875.68Z" fill="#D9D9D9"/>
<path d="M1902.94 492.092V449.792H1929.46V455.287H1909.32V468.174H1928.08V473.648H1909.32V486.597H1929.71V492.092H1902.94Z" fill="#D9D9D9"/>
<path d="M1959.2 492.092V449.792H1985.72V455.287H1965.58V468.174H1984.34V473.648H1965.58V486.597H1985.97V492.092H1959.2Z" fill="#D9D9D9"/>
<path d="M2031.31 449.792V492.092H2025.44L2003.93 461.069H2003.54V492.092H1997.16V449.792H2003.07L2024.59 480.857H2024.98V449.792H2031.31Z" fill="#D9D9D9"/>
<path d="M973.337 492.857V439.424H1008.09V447.539H983.015V462.046H1006.29V470.158H983.015V484.742H1008.3V492.857H973.337ZM987.114 434.155L992.959 422.232H1002.2L994.184 434.155H987.114Z" fill="#D9D9D9"/>
<path d="M1065.55 457.454H1055.79C1055.51 455.853 1055 454.436 1054.25 453.199C1053.5 451.947 1052.57 450.888 1051.46 450.018C1050.34 449.149 1049.07 448.497 1047.64 448.059C1046.24 447.609 1044.71 447.383 1043.08 447.383C1040.17 447.383 1037.6 448.114 1035.36 449.574C1033.11 451.016 1031.35 453.141 1030.09 455.939C1028.82 458.721 1028.18 462.122 1028.18 466.142C1028.18 470.229 1028.82 473.672 1030.09 476.473C1031.37 479.256 1033.13 481.359 1035.36 482.786C1037.6 484.194 1040.17 484.901 1043.05 484.901C1044.65 484.901 1046.15 484.69 1047.54 484.273C1048.95 483.839 1050.21 483.205 1051.32 482.369C1052.45 481.534 1053.4 480.508 1054.17 479.29C1054.95 478.071 1055.49 476.682 1055.79 475.117L1065.55 475.169C1065.18 477.707 1064.39 480.092 1063.17 482.317C1061.97 484.543 1060.4 486.508 1058.45 488.213C1056.5 489.9 1054.22 491.222 1051.61 492.178C1049 493.117 1046.11 493.589 1042.92 493.589C1038.23 493.589 1034.03 492.502 1030.35 490.326C1026.66 488.152 1023.75 485.011 1021.63 480.909C1019.51 476.804 1018.45 471.882 1018.45 466.142C1018.45 460.384 1019.52 455.461 1021.66 451.375C1023.8 447.269 1026.71 444.129 1030.4 441.955C1034.08 439.782 1038.26 438.695 1042.92 438.695C1045.9 438.695 1048.66 439.111 1051.22 439.947C1053.78 440.783 1056.06 442.007 1058.06 443.627C1060.06 445.225 1061.7 447.19 1062.99 449.522C1064.29 451.834 1065.14 454.479 1065.55 457.454Z" fill="#D9D9D9"/>
<path d="M1124 466.142C1124 471.897 1122.92 476.829 1120.76 480.934C1118.62 485.02 1115.7 488.152 1112 490.326C1108.31 492.502 1104.12 493.589 1099.44 493.589C1094.77 493.589 1090.57 492.502 1086.87 490.326C1083.18 488.134 1080.26 484.996 1078.1 480.909C1075.96 476.804 1074.89 471.882 1074.89 466.142C1074.89 460.384 1075.96 455.461 1078.1 451.375C1080.26 447.269 1083.18 444.129 1086.87 441.955C1090.57 439.782 1094.77 438.695 1099.44 438.695C1104.12 438.695 1108.31 439.782 1112 441.955C1115.7 444.129 1118.62 447.269 1120.76 451.375C1122.92 455.461 1124 460.384 1124 466.142ZM1114.26 466.142C1114.26 462.089 1113.63 458.669 1112.36 455.887C1111.11 453.089 1109.37 450.974 1107.14 449.547C1104.91 448.105 1102.35 447.383 1099.44 447.383C1096.54 447.383 1093.97 448.105 1091.75 449.547C1089.52 450.974 1087.77 453.089 1086.5 455.887C1085.25 458.669 1084.62 462.089 1084.62 466.142C1084.62 470.195 1085.25 473.62 1086.5 476.421C1087.77 479.204 1089.52 481.316 1091.75 482.761C1093.97 484.188 1096.54 484.901 1099.44 484.901C1102.35 484.901 1104.91 484.188 1107.14 482.761C1109.37 481.316 1111.11 479.204 1112.36 476.421C1113.63 473.62 1114.26 470.195 1114.26 466.142Z" fill="#D9D9D9"/>
<path d="M1134.99 492.857V439.424H1144.67V484.742H1168.2V492.857H1134.99Z" fill="#D9D9D9"/>
<path d="M1178.44 492.857V439.424H1213.2V447.539H1188.12V462.046H1211.4V470.158H1188.12V484.742H1213.41V492.857H1178.44Z" fill="#D9D9D9"/>
<path d="M1288.89 439.424V492.857H1280.28L1255.1 456.462H1254.65V492.857H1244.97V439.424H1253.64L1278.79 475.846H1279.26V439.424H1288.89Z" fill="#D9D9D9"/>
<path d="M1349.02 466.142C1349.02 471.897 1347.94 476.829 1345.79 480.934C1343.65 485.02 1340.73 488.152 1337.02 490.326C1333.33 492.502 1329.15 493.589 1324.47 493.589C1319.79 493.589 1315.6 492.502 1311.89 490.326C1308.21 488.134 1305.28 484.996 1303.13 480.909C1300.99 476.804 1299.91 471.882 1299.91 466.142C1299.91 460.384 1300.99 455.461 1303.13 451.375C1305.28 447.269 1308.21 444.129 1311.89 441.955C1315.6 439.782 1319.79 438.695 1324.47 438.695C1329.15 438.695 1333.33 439.782 1337.02 441.955C1340.73 444.129 1343.65 447.269 1345.79 451.375C1347.94 455.461 1349.02 460.384 1349.02 466.142ZM1339.29 466.142C1339.29 462.089 1338.66 458.669 1337.39 455.887C1336.13 453.089 1334.39 450.974 1332.17 449.547C1329.94 448.105 1327.37 447.383 1324.47 447.383C1321.56 447.383 1319 448.105 1316.77 449.547C1314.55 450.974 1312.8 453.089 1311.53 455.887C1310.27 458.669 1309.65 462.089 1309.65 466.142C1309.65 470.195 1310.27 473.62 1311.53 476.421C1312.8 479.204 1314.55 481.316 1316.77 482.761C1319 484.188 1321.56 484.901 1324.47 484.901C1327.37 484.901 1329.94 484.188 1332.17 482.761C1334.39 481.316 1336.13 479.204 1337.39 476.421C1338.66 473.62 1339.29 470.195 1339.29 466.142Z" fill="#D9D9D9"/>
<path d="M1393.7 439.424H1403.38V474.334C1403.38 478.16 1402.47 481.525 1400.66 484.43C1398.87 487.335 1396.35 489.603 1393.1 491.241C1389.85 492.857 1386.04 493.665 1381.7 493.665C1377.33 493.665 1373.52 492.857 1370.27 491.241C1367.01 489.603 1364.49 487.335 1362.7 484.43C1360.91 481.525 1360.01 478.16 1360.01 474.334V439.424H1369.69V473.526C1369.69 475.751 1370.18 477.735 1371.15 479.474C1372.15 481.212 1373.54 482.578 1375.33 483.569C1377.12 484.543 1379.24 485.03 1381.7 485.03C1384.15 485.03 1386.27 484.543 1388.06 483.569C1389.87 482.578 1391.26 481.212 1392.24 479.474C1393.21 477.735 1393.7 475.751 1393.7 473.526V439.424Z" fill="#D9D9D9"/>
<path d="M1422.89 439.424L1436.79 481.482H1437.34L1451.22 439.424H1461.87L1443.03 492.857H1431.08L1412.27 439.424H1422.89Z" fill="#D9D9D9"/>
<path d="M1470.74 492.857V439.424H1505.5V447.539H1480.42V462.046H1503.7V470.158H1480.42V484.742H1505.71V492.857H1470.74Z" fill="#D9D9D9"/>
<path d="M1517.21 492.857V439.424H1526.89V484.742H1550.43V492.857H1517.21Z" fill="#D9D9D9"/>
<path d="M1560.67 492.857V439.424H1570.35V484.742H1593.89V492.857H1560.67Z" fill="#D9D9D9"/>
<path d="M1604.12 492.857V439.424H1638.88V447.539H1613.81V462.046H1637.08V470.158H1613.81V484.742H1639.09V492.857H1604.12Z" fill="#D9D9D9"/>
<path d="M1017.05 228.061C1020.11 225 1020.11 220.408 1017.05 217.347C1013.99 214.286 1009.4 214.286 1006.33 214.286C1003.27 214.286 997.15 215.816 986.435 215.816C975.719 215.816 971.127 214.286 966.534 214.286C961.942 214.286 957.35 217.347 957.35 217.347C954.288 220.408 954.288 225 957.35 228.061C957.35 228.061 968.065 229.592 969.596 229.592C971.127 229.592 974.188 232.653 974.188 235.714V365.816C974.188 368.878 972.658 370.408 969.596 371.939C963.473 375 962.481 371.758 957.35 373.469C952.222 375.178 952.757 384.566 957.35 385.714C965.337 387.71 971.127 384.184 1020.11 384.184C1066.04 384.239 1072.16 387.245 1079.81 385.714C1087.47 384.184 1086.69 369.652 1098.18 358.163C1105.84 350.51 1095.12 350.51 1089 350.51C1082.87 350.51 1076.77 365.994 1066.04 371.939H1003.27C1001.74 371.939 998.681 368.878 998.681 365.816V235.714C998.681 232.653 1000.21 229.592 1003.27 229.592L1017.05 228.061Z" fill="#D9D9D9"/>
<path d="M1402.81 225C1419.65 225 1433.42 235.714 1441.08 261.735C1442.61 266.326 1450.26 266.326 1451.79 261.735C1454.34 254.082 1449.75 249.351 1449.75 240.306C1449.75 232.653 1450.77 223.469 1448.73 220.408C1446.41 216.927 1439.55 217.347 1438.02 220.408C1437.05 222.336 1438.02 225 1434.95 225C1428.64 225 1419.65 212.755 1402.81 212.755C1384.44 212.755 1356.88 226.531 1356.88 247.959C1356.88 290.816 1387.98 291.413 1407.4 303.061C1426.82 314.709 1438.02 326.458 1438.02 339.796C1438.02 352.041 1427.3 376.531 1408.93 376.531C1364.54 376.531 1365.69 336.735 1364.54 332.143C1363.01 326.02 1353.82 326.02 1352.29 332.143C1351.14 336.735 1353.82 376.531 1356.88 382.653C1359.95 388.775 1366.07 385.714 1367.6 382.653C1369.13 379.592 1367.6 378.061 1370.66 376.531C1373.72 375 1387.5 388.775 1408.93 388.775C1430.36 388.775 1460.98 362.587 1460.98 332.143C1460.98 301.699 1427.3 284.694 1408.93 277.041C1394.88 271.188 1379.85 264.796 1379.85 247.959C1379.85 233.953 1388.8 225 1402.81 225Z" fill="#D9D9D9"/>
<path d="M1699.78 269.388C1704.37 269.388 1705.9 257.143 1699.78 257.143C1693.66 257.143 1693.66 258.674 1679.88 258.674C1666.1 258.674 1666.1 257.143 1659.98 257.143C1655.2 257.143 1655.2 269.388 1659.98 269.388C1664.57 269.388 1669.16 269.388 1669.16 273.98C1669.16 278.571 1668.8 348.98 1669.16 350.51C1669.16 367.347 1692.13 388.776 1727.33 388.776C1761.69 388.776 1782.44 362.755 1782.44 350.51V273.98C1782.44 269.388 1787.62 269.388 1791.63 269.388C1796.22 269.388 1796.41 257.143 1791.63 257.143C1787.03 257.143 1787.03 258.674 1774.79 258.674C1764.07 258.674 1764.07 257.143 1757.95 257.143C1753.36 257.143 1753.36 269.388 1757.95 269.388C1762.54 269.388 1767.13 269.388 1767.13 273.98C1767.13 278.571 1767.47 348.98 1767.13 350.51C1759.48 385.714 1698.25 385.714 1690.6 350.51C1690.29 348.98 1690.6 278.571 1690.6 273.98C1690.6 269.388 1695.19 269.388 1699.78 269.388Z" fill="#D9D9D9"/>
<path d="M1883.47 322.959C1883.47 322.959 1914.09 318.367 1914.09 287.755C1914.09 275.51 1903.37 263.265 1894.19 260.204C1885 257.143 1880.41 257.143 1868.17 257.143C1843.67 257.143 1843.67 260.204 1822.24 260.204C1816.12 260.204 1816.12 273.98 1823.77 273.98C1828.37 273.98 1826.41 269.388 1829.9 269.388C1832.52 269.388 1832.96 270.918 1832.96 273.98V370.408C1832.96 373.469 1825.24 372.006 1822.24 375C1819.18 378.061 1819.43 382.898 1822.24 385.714C1825.3 388.776 1831.43 384.184 1843.67 384.184C1855.92 384.184 1863.57 388.776 1866.64 385.714C1869.7 382.653 1869.7 378.061 1866.64 375C1863.57 371.939 1854.39 373.469 1854.39 370.408V273.98C1854.39 267.857 1862.53 266.327 1868.17 266.327C1874.29 266.327 1895.72 272.449 1895.72 290.816C1895.72 313.776 1865.1 315.306 1862.04 316.837C1858.98 318.367 1858.98 322.959 1862.04 324.49C1865.1 326.02 1881.94 338.265 1892.66 361.225C1903.37 384.184 1917.15 385.714 1917.15 385.714C1917.15 385.714 1927.87 387.245 1932.46 384.184C1937.05 381.122 1935.52 371.939 1933.99 370.408C1932.46 368.878 1929.4 368.878 1927.87 370.408C1926.34 371.939 1924.81 378.061 1920.21 376.531C1915.62 375 1909.5 350.51 1901.84 336.735C1897.49 328.898 1883.47 322.959 1883.47 322.959Z" fill="#D9D9D9"/>
<path d="M2051.86 264.796C2048.8 264.796 2044.21 257.143 2018.18 257.143C1992.16 257.143 1950.83 275.825 1950.83 322.959C1950.83 361.938 1976.85 388.776 2018.18 388.776C2059.51 388.776 2080.95 348.98 2079.41 344.388C2077.88 339.796 2068.7 339.796 2067.17 344.388C2065.64 348.98 2056.45 373.469 2018.18 373.469C1979.91 373.469 1972.26 341.327 1972.26 322.959C1972.26 304.592 1979.91 266.327 2018.18 266.327C2045.74 266.327 2061.32 297.495 2062.58 300C2064.11 303.061 2071.76 303.061 2073.29 300C2074.58 297.423 2068.7 277.041 2064.11 260.204C2062.58 257.143 2057.98 257.143 2056.45 260.204C2054.92 263.265 2054.92 264.796 2051.86 264.796Z" fill="#D9D9D9"/>
<path d="M2146.77 258.674C2119.21 258.674 2122.28 257.143 2105.44 257.143C2102.38 258.674 2102.38 267.857 2105.44 269.388H2117.68V368.878C2117.68 368.878 2117.68 373.469 2108.5 373.469C2102.38 373.469 2102.38 385.714 2108.5 385.714C2117.68 385.714 2132.99 384.184 2159.01 384.184C2185.04 384.184 2188.1 387.245 2195.75 385.714C2198.81 385.102 2208 362.755 2208 359.694C2208 356.633 2206.47 355.102 2201.88 355.102C2197.28 355.102 2194.79 364.417 2188.1 368.878C2183.51 371.939 2180.45 373.469 2159.01 373.469C2137.58 373.469 2139.11 368.878 2139.11 368.878V321.429H2165.14C2168.2 321.429 2168.2 324.49 2168.2 324.49V339.796C2168.2 340.717 2177.38 340.788 2177.38 339.796V293.878C2177.38 293.029 2168.2 293.076 2168.2 293.878V307.653C2168.2 310.714 2165.14 310.714 2165.14 310.714H2139.11V273.98C2139.11 269.388 2151.36 269.388 2159.01 269.388C2181.98 269.388 2183.51 281.632 2186.57 284.694C2189.63 287.755 2195.75 284.694 2195.75 280.102C2195.75 275.51 2188.1 257.143 2181.98 257.143C2175.85 257.143 2174.32 258.674 2146.77 258.674Z" fill="#D9D9D9"/>
<path fill-rule="evenodd" clip-rule="evenodd" d="M1563.54 255.612C1610.99 258.674 1635.43 289.717 1629.36 332.143C1626.3 353.572 1601.81 387.245 1560.48 388.776C1523.76 390.135 1490.06 364.286 1488.53 332.143C1486.71 293.878 1516.09 252.551 1563.54 255.612ZM1560.48 267.857C1532.92 267.857 1509.96 286.225 1509.96 322.959C1509.96 345.918 1531.39 376.531 1560.48 376.531C1588.03 376.531 1607.93 353.572 1607.93 322.959C1607.93 292.347 1583.44 267.857 1560.48 267.857Z" fill="#D9D9D9"/>
<path fill-rule="evenodd" clip-rule="evenodd" d="M1168.6 257.143C1168.6 253.905 1174.72 252.551 1180.84 257.143C1181.61 257.908 1195.77 286.221 1209.93 314.535C1224.09 342.854 1238.25 371.173 1239.01 371.939C1240.74 373.668 1242.96 373.442 1245.39 373.197C1247.26 373.007 1249.26 372.805 1251.26 373.469C1255.85 375 1255.85 384.184 1251.26 385.714C1249.68 386.241 1248.61 386.027 1246.54 385.613C1243.82 385.071 1239.39 384.184 1229.83 384.184C1220.17 384.184 1215.04 385.022 1211.85 385.546C1209.48 385.935 1208.17 386.149 1206.87 385.714C1202.28 384.184 1202.28 375 1206.87 373.469C1208.96 372.774 1211.36 373.025 1213.22 373.221C1215.45 373.457 1216.89 373.607 1216.05 371.939L1206.87 355.102H1142.57L1134.92 371.939C1134.07 373.647 1136.07 373.448 1138.54 373.206C1140.5 373.013 1142.75 372.793 1144.11 373.469C1148.7 376.531 1147.17 384.184 1144.11 385.714C1142.71 386.409 1141.64 386.158 1139.59 385.674C1137.12 385.093 1133.25 384.184 1125.74 384.184C1118.22 384.184 1113.44 385.093 1110.39 385.674C1107.86 386.158 1106.53 386.409 1105.84 385.714C1102.77 382.653 1103.03 376.27 1105.84 373.469C1106.72 372.585 1108.98 372.808 1111.34 373.041C1114.22 373.322 1117.24 373.619 1118.08 371.939C1118.08 371.939 1168.6 269.388 1170.13 266.327C1171.07 263.503 1170.28 261.837 1169.52 260.261C1169.05 259.274 1168.6 258.322 1168.6 257.143ZM1173.19 289.286L1200.74 342.857H1148.7L1173.19 289.286Z" fill="#D9D9D9"/>
<path d="M704.771 327.551C704.771 316.837 715.486 307.653 724.671 307.653C733.855 307.653 741.509 315.306 741.509 326.021C741.509 336.735 732.325 345.919 721.609 345.919C710.894 345.919 704.771 338.265 704.771 327.551Z" stroke="#D9D9D9" stroke-width="7.5"/>
<path d="M736.917 593.877L734.809 597.07L737.01 598.524L739.151 596.985L736.917 593.877ZM814.149 375.043C792.699 382.472 763.764 386.036 715.553 382.01L714.916 389.636C763.702 393.71 793.818 390.184 816.654 382.273L814.149 375.043ZM710.074 386.841C708.428 427.583 722.869 453.588 751.1 494.394L757.394 490.041C729.316 449.455 716.183 425.238 717.722 387.15L710.074 386.841ZM644.349 489.376C657.141 470.473 665.594 455.385 671.579 437.691C677.548 420.043 680.997 399.998 684.035 371.271L676.424 370.466C673.402 399.031 670.022 418.405 664.329 435.239C658.652 452.02 650.61 466.466 638.01 485.088L644.349 489.376ZM643.338 309.787C672.515 338.721 692.918 356.097 717.469 366.291C741.994 376.475 770.293 379.344 814.889 380.247L815.044 372.594C770.486 371.694 743.478 368.804 720.405 359.225C697.358 349.653 677.871 333.254 648.728 304.353L643.338 309.787ZM683.16 367.849C660.488 335.124 653.583 322.13 647.586 306.924L640.466 309.732C646.779 325.739 654.066 339.294 676.868 372.205L683.16 367.849ZM754.72 490.531C742.11 483.321 726.645 467.737 698.01 436.411L692.36 441.572C720.693 472.57 737.035 489.236 750.92 497.173L754.72 490.531ZM689.941 437.173C682.855 448.748 672.094 460.653 662.135 469.763C657.166 474.306 652.469 478.09 648.616 480.747C646.686 482.075 645.024 483.086 643.685 483.765C643.017 484.102 642.471 484.338 642.043 484.488C641.831 484.561 641.666 484.61 641.544 484.641C641.42 484.668 641.363 484.674 641.364 484.674L641.986 492.303C643.681 492.162 645.499 491.424 647.144 490.592C648.891 489.707 650.859 488.495 652.961 487.047C657.173 484.142 662.146 480.125 667.3 475.411C677.587 466.001 688.888 453.551 696.469 441.168L689.941 437.173ZM911.83 385.929L869.656 494.363L876.788 497.137L918.964 388.702L911.83 385.929ZM870.775 492.918L734.683 590.77L739.151 596.985L875.245 499.13L870.775 492.918ZM739.025 590.685L591.381 493.28L587.166 499.668L734.809 597.07L739.025 590.685ZM591.172 498.774L617.844 483.958L614.126 477.266L587.455 492.083L591.172 498.774ZM595.769 467.274L613.399 483.432L618.571 477.793L600.941 461.633L595.769 467.274ZM666.705 434.167L597.23 459.839L599.883 467.017L669.358 441.343L666.705 434.167ZM912.639 383.232L787.259 454.221L791.03 460.88L916.411 389.89L912.639 383.232ZM613.411 483.444L731.281 590.587L736.43 584.923L618.559 477.781L613.411 483.444ZM730.433 589.466L733.494 595.589L740.34 592.166L737.278 586.044L730.433 589.466ZM785.359 456.352L730.332 586.264L737.379 589.246L792.406 459.337L785.359 456.352ZM845.053 423.793L791.248 390.282L787.201 396.777L841.006 430.289L845.053 423.793ZM787.283 389.917L717.153 417.355L719.942 424.482L790.072 397.044L787.283 389.917ZM791.248 390.282C791.24 390.275 791.027 390.141 790.8 390.024C790.505 389.877 789.992 389.657 789.312 389.593L788.608 397.215C788.001 397.157 787.555 396.961 787.343 396.854C787.248 396.805 787.182 396.765 787.173 396.759C787.163 396.753 787.161 396.753 787.201 396.777L791.248 390.282ZM790.072 397.044C790.116 397.025 790.113 397.025 790.103 397.032C790.092 397.035 790.021 397.062 789.919 397.09C789.69 397.157 789.216 397.27 788.608 397.215L789.312 389.593C788.632 389.532 788.087 389.654 787.771 389.746C787.526 389.816 787.291 389.911 787.283 389.917L790.072 397.044ZM787.259 454.221C787.255 454.224 787.097 454.31 786.945 454.411C786.748 454.54 786.435 454.766 786.12 455.118L791.833 460.212C791.552 460.527 791.278 460.72 791.134 460.815C791.07 460.858 791.022 460.886 791.013 460.889C791.005 460.895 791.002 460.895 791.03 460.88L787.259 454.221ZM792.406 459.337C792.419 459.306 792.418 459.309 792.414 459.318C792.41 459.327 792.388 459.38 792.353 459.447C792.277 459.6 792.114 459.894 791.833 460.212L786.12 455.118C785.805 455.47 785.616 455.807 785.51 456.018C785.429 456.181 785.36 456.349 785.359 456.352L792.406 459.337ZM591.381 493.28C591.274 493.209 591.239 493.185 591.219 493.172C591.194 493.154 591.281 493.212 591.405 493.322C591.521 493.426 591.813 493.705 592.073 494.158C592.368 494.679 592.567 495.337 592.539 496.074L584.891 495.784C584.822 497.581 585.903 498.67 586.297 499.022C586.652 499.341 587.085 499.613 587.166 499.668L591.381 493.28ZM587.455 492.083C587.37 492.132 586.918 492.37 586.539 492.661C586.12 492.983 584.959 493.987 584.891 495.784L592.539 496.074C592.511 496.812 592.262 497.455 591.928 497.948C591.635 498.383 591.322 498.637 591.199 498.732C591.067 498.833 590.976 498.885 591.002 498.869C591.023 498.857 591.06 498.836 591.172 498.774L587.455 492.083ZM869.656 494.363C869.645 494.388 869.647 494.385 869.65 494.378C869.653 494.369 869.671 494.323 869.7 494.262C869.763 494.124 869.894 493.861 870.121 493.567L876.172 498.254C876.426 497.926 876.58 497.623 876.665 497.434C876.733 497.287 876.788 497.14 876.788 497.137L869.656 494.363ZM875.245 499.13C875.248 499.13 875.376 499.038 875.502 498.937C875.664 498.805 875.918 498.582 876.172 498.254L870.121 493.567C870.348 493.273 870.571 493.081 870.688 492.986C870.742 492.943 870.781 492.912 870.789 492.909C870.795 492.903 870.798 492.9 870.775 492.918L875.245 499.13ZM918.964 388.702C919.047 388.485 919.267 387.94 919.389 387.444C919.441 387.223 920.045 384.94 918.125 383.277L913.119 389.066C912.296 388.356 911.965 387.441 911.889 386.731C911.824 386.149 911.928 385.726 911.947 385.65C911.974 385.534 911.996 385.488 911.965 385.573C911.938 385.65 911.898 385.748 911.83 385.929L918.964 388.702ZM916.411 389.89C916.576 389.795 916.671 389.743 916.741 389.703C916.824 389.66 916.778 389.691 916.668 389.734C916.594 389.764 916.19 389.926 915.605 389.948C914.892 389.972 913.94 389.776 913.119 389.066L918.125 383.277C916.205 381.618 914.032 382.546 913.824 382.628C913.346 382.818 912.841 383.115 912.639 383.232L916.411 389.89ZM698.01 436.411C697.832 436.215 697.425 435.756 696.998 435.404C696.515 435.006 695.375 434.204 693.738 434.363L694.469 441.98C693.858 442.038 693.301 441.924 692.856 441.738C692.459 441.572 692.21 441.376 692.131 441.312C692.047 441.242 692.02 441.208 692.084 441.275C692.144 441.337 692.221 441.422 692.36 441.572L698.01 436.411ZM696.469 441.168C696.576 440.994 696.634 440.899 696.68 440.828C696.728 440.755 696.707 440.795 696.636 440.881C696.568 440.963 696.359 441.205 695.998 441.444C695.594 441.71 695.072 441.921 694.469 441.98L693.738 434.363C692.113 434.516 691.148 435.508 690.742 435.998C690.388 436.426 690.076 436.953 689.941 437.173L696.469 441.168ZM648.728 304.353C648.002 303.633 647.229 302.858 646.58 302.338C646.271 302.091 645.708 301.663 644.981 301.385C644.173 301.076 642.63 300.778 641.119 301.774L645.33 308.164C644.751 308.547 644.102 308.727 643.484 308.743C642.915 308.755 642.482 308.623 642.247 308.535C641.836 308.375 641.65 308.195 641.792 308.308C641.885 308.385 642.051 308.529 642.334 308.801C642.609 309.064 642.932 309.383 643.338 309.787L648.728 304.353ZM647.586 306.924C647.379 306.401 647.216 305.986 647.085 305.635C646.951 305.276 646.885 305.072 646.855 304.965C646.809 304.796 646.904 305.048 646.883 305.496C646.871 305.753 646.817 306.202 646.578 306.719C646.319 307.276 645.898 307.791 645.33 308.164L641.119 301.774C639.629 302.755 639.278 304.265 639.237 305.144C639.202 305.927 639.371 306.615 639.475 306.995C639.694 307.791 640.098 308.798 640.466 309.732L647.586 306.924ZM684.035 371.271C684.042 371.207 684.069 370.971 684.077 370.742C684.088 370.457 684.083 370.004 683.946 369.471L676.531 371.366C676.422 370.941 676.424 370.598 676.429 370.454C676.431 370.39 676.435 370.353 676.434 370.365C676.433 370.377 676.431 370.402 676.424 370.466L684.035 371.271ZM676.868 372.205C676.905 372.26 676.918 372.278 676.926 372.291C676.934 372.3 676.912 372.269 676.879 372.214C676.807 372.095 676.64 371.795 676.531 371.366L683.946 369.471C683.81 368.936 683.596 368.535 683.451 368.293C683.333 368.094 683.197 367.901 683.16 367.849L676.868 372.205ZM638.01 485.088C637.991 485.115 637.491 485.789 637.238 486.579C636.826 487.861 637.049 489.116 637.639 490.129L644.249 486.269C644.393 486.517 644.583 486.927 644.654 487.478C644.727 488.048 644.644 488.547 644.525 488.917C644.421 489.245 644.294 489.453 644.277 489.481C644.263 489.505 644.26 489.508 644.349 489.376L638.01 485.088ZM641.364 484.674C641.233 484.684 641.314 484.674 641.422 484.674C641.553 484.674 641.909 484.681 642.353 484.815C642.845 484.962 643.292 485.219 643.657 485.55C643.987 485.85 644.171 486.135 644.249 486.269L637.639 490.129C638.02 490.782 638.778 491.731 640.144 492.144C640.702 492.312 641.181 492.331 641.452 492.327C641.701 492.327 641.939 492.306 641.986 492.303L641.364 484.674ZM751.1 494.394C751.365 494.776 751.565 495.067 751.726 495.309C751.893 495.563 751.956 495.673 751.971 495.704C752.011 495.781 751.83 495.477 751.763 494.945C751.725 494.642 751.715 494.192 751.855 493.671C752.001 493.126 752.277 492.631 752.647 492.23L758.285 497.403C759.298 496.301 759.481 494.975 759.358 493.993C759.255 493.172 758.942 492.52 758.765 492.181C758.408 491.492 757.842 490.687 757.394 490.041L751.1 494.394ZM750.92 497.173C751.585 497.556 752.428 498.046 753.143 498.34C753.497 498.487 754.178 498.741 755.01 498.768C756.013 498.799 757.294 498.484 758.285 497.403L752.647 492.23C753.007 491.838 753.466 491.522 753.99 491.326C754.492 491.14 754.939 491.109 755.251 491.118C755.554 491.127 755.777 491.18 755.884 491.207C755.943 491.222 755.987 491.238 756.012 491.247C756.038 491.256 756.053 491.262 756.053 491.262C756.054 491.262 756.046 491.259 756.027 491.25C756.008 491.241 755.982 491.228 755.948 491.213C755.877 491.176 755.784 491.127 755.664 491.063C755.414 490.929 755.117 490.757 754.72 490.531L750.92 497.173ZM600.941 461.633C600.847 461.547 600.816 461.516 600.799 461.501C600.778 461.48 600.855 461.553 600.96 461.682C601.058 461.801 601.302 462.119 601.486 462.609C601.696 463.166 601.789 463.846 601.647 464.568L594.137 463.093C593.792 464.85 594.681 466.09 595.015 466.5C595.315 466.87 595.698 467.21 595.769 467.274L600.941 461.633ZM597.23 459.839C597.14 459.872 596.657 460.041 596.239 460.267C595.775 460.524 594.482 461.336 594.137 463.093L601.647 464.568C601.506 465.288 601.162 465.882 600.758 466.319C600.402 466.702 600.055 466.904 599.918 466.981C599.773 467.06 599.674 467.097 599.702 467.085C599.724 467.075 599.764 467.06 599.883 467.017L597.23 459.839ZM715.553 382.01C715.36 381.992 714.828 381.94 714.334 381.964C713.735 381.995 712.612 382.154 711.597 383.051L716.664 388.788C716.287 389.121 715.871 389.339 715.48 389.464C715.123 389.581 714.841 389.602 714.724 389.608C714.609 389.614 714.551 389.608 714.612 389.611C714.67 389.614 714.75 389.623 714.916 389.636L715.553 382.01ZM717.722 387.15C717.729 386.985 717.732 386.905 717.736 386.85C717.74 386.789 717.739 386.85 717.718 386.966C717.697 387.083 717.639 387.361 717.479 387.701C717.304 388.074 717.038 388.457 716.664 388.788L711.597 383.051C710.588 383.942 710.288 385.029 710.182 385.625C710.096 386.115 710.082 386.651 710.074 386.841L717.722 387.15ZM816.654 382.273C817.668 381.924 818.74 381.557 819.514 381.196C819.879 381.024 820.526 380.7 821.104 380.158C821.751 379.555 822.724 378.248 822.432 376.402L814.872 377.596C814.761 376.895 814.871 376.209 815.133 375.621C815.373 375.086 815.69 374.743 815.876 374.568C816.2 374.265 816.445 374.183 816.265 374.265C816.146 374.32 815.926 374.412 815.54 374.553C815.164 374.691 814.714 374.847 814.149 375.043L816.654 382.273ZM814.889 380.247C815.501 380.259 815.99 380.268 816.401 380.284C816.823 380.299 817.071 380.317 817.212 380.336C817.419 380.36 817.173 380.357 816.782 380.18C816.558 380.075 816.15 379.855 815.751 379.42C815.314 378.943 814.986 378.315 814.872 377.596L822.432 376.402C822.135 374.519 820.762 373.586 819.979 373.224C819.265 372.897 818.553 372.79 818.15 372.741C817.294 372.634 816.147 372.615 815.044 372.594L814.889 380.247Z" fill="#D9D9D9"/>
<path fill-rule="evenodd" clip-rule="evenodd" d="M759.879 123.214C721.677 123.214 691.759 158.12 691.759 195.918C691.759 215.1 700.978 230.274 714.27 240.589C727.52 250.872 744.863 256.377 761.409 256.377C794.749 256.378 824.937 227.872 824.937 194.388C824.937 178.004 821.043 160.251 810.902 146.531C800.681 132.705 784.285 123.214 759.879 123.214ZM699.413 195.918C699.413 160.31 726.076 130.867 761.409 130.867C782.057 130.867 795.117 139.653 803.118 151.834C811.205 164.148 814.222 180.107 814.222 194.388C814.222 222.201 793.819 244.133 762.94 244.133C747.142 244.133 731.167 240.739 719.22 233.02C707.386 225.375 699.413 213.448 699.413 195.918Z" fill="#D9D9D9"/>
<path d="M769.177 130.232C758.947 130.828 749.16 133.475 740.68 138.122C726.039 147.597 714.892 164.211 712.781 181.037C712.569 183.108 712.449 185.241 712.424 187.434C712.633 203.323 719.945 219.134 732.597 229.582C743.468 237.221 758.334 241.324 776.208 241.398C780.473 240.943 784.299 240.137 787.725 239.01C750.367 230.087 733.851 213.703 733.851 186.735C733.851 149.79 765.658 133.641 772.404 130.631C771.339 130.454 770.264 130.321 769.177 130.232Z" fill="#C7D89B"/>
<path d="M780.635 132.922C767.184 141.221 750.689 158.993 750.689 186.735C750.689 217.084 780.403 229.996 791.845 234.968C792.471 235.24 793.042 235.488 793.551 235.714C793.904 235.831 794.216 235.961 794.492 236.1C792.432 237.228 790.181 238.201 787.725 239.01C750.367 230.087 733.851 213.703 733.851 186.735C733.851 149.791 765.657 133.641 772.403 130.631C775.238 131.102 777.988 131.878 780.635 132.922Z" fill="#3AAA35"/>
<path d="M780.548 132.888C780.525 132.901 780.502 132.913 780.479 132.926C767.057 140.245 750.689 149.17 750.689 186.735C750.689 219.134 771.997 227.185 785.7 232.362C788.828 233.544 791.56 234.576 793.551 235.714C793.833 235.875 794.108 236.024 794.377 236.162C798.993 233.655 802.659 230.374 805.538 226.433C802.827 225.371 779.774 215.457 779.774 185.204C779.774 150.293 790.698 142.689 794.09 141.17C790.006 137.649 785.453 134.809 780.548 132.888Z" fill="#06A099"/>
<path d="M794.046 141.131C790.38 142.509 778.244 149.425 778.244 180.612C778.244 215.24 802.727 225.386 805.536 226.436C812.671 216.673 814.982 202.859 814.982 186.735C814.982 169.71 806.799 152.102 794.046 141.131Z" fill="#1F71B8"/>
<path d="M889.995 177.551C870.049 178.072 841.01 185.204 841.01 185.204C841.01 185.204 873.319 188.265 893.057 188.265C923.673 188.265 938.98 182.143 938.98 182.143C938.98 182.143 909.204 177.049 889.995 177.551Z" fill="#D9D9D9"/>
<path d="M857.849 91.8368C874.109 76.6656 900.711 59.6939 900.711 59.6939C900.711 59.6939 883.006 82.6815 870.095 94.898C853.073 111.006 822.641 130.102 822.641 130.102C822.641 130.102 843.91 104.842 857.849 91.8368Z" fill="#D9D9D9"/>
<path d="M778.248 52.0408C782.471 31.282 793.556 0 793.556 0C793.556 0 793.093 32.0608 788.964 52.0408C784.755 72.4032 772.125 102.551 772.125 102.551C772.125 102.551 774.287 71.5117 778.248 52.0408Z" fill="#D9D9D9"/>
<path d="M689.463 71.9388C677.745 50.6051 663.439 15.3061 663.439 15.3061C663.439 15.3061 685.884 45.9037 697.117 67.3469C707.059 86.3281 720.078 117.857 720.078 117.857C720.078 117.857 699.681 90.544 689.463 71.9388Z" fill="#D9D9D9"/>
<path d="M623.639 146.939C604.515 140.028 576.185 125.51 576.185 125.51C576.185 125.51 608.536 129.688 628.231 136.224C650.308 143.551 681.809 162.245 681.809 162.245C681.809 162.245 645.731 154.922 623.639 146.939Z" fill="#D9D9D9"/>
<path d="M615.985 223.469C638.232 213.465 675.686 205.102 675.686 205.102C675.686 205.102 642.95 224.613 620.577 234.184C600.241 242.883 567 252.551 567 252.551C567 252.551 595.695 232.594 615.985 223.469Z" fill="#D9D9D9"/>
<path d="M704.771 281.633C712.883 269.74 729.263 254.082 729.263 254.082C729.263 254.082 720.695 274.717 712.424 286.225C704.773 296.87 689.463 310.714 689.463 310.714C689.463 310.714 697.538 292.235 704.771 281.633Z" fill="#D9D9D9"/>
<path d="M816.518 296.939C808.351 283.069 801.21 258.673 801.21 258.673C801.21 258.673 819.51 276.632 827.233 290.816C834.194 303.6 839.479 326.02 839.479 326.02C839.479 326.02 823.86 309.407 816.518 296.939Z" fill="#D9D9D9"/>
<path d="M880.811 258.673C861.59 247.203 833.356 226.531 833.356 226.531C833.356 226.531 867.036 239.474 886.934 251.02C908.031 263.263 937.45 287.755 937.45 287.755C937.45 287.755 902.162 271.415 880.811 258.673Z" fill="#D9D9D9"/>
<path d="M889.995 177.551C870.049 178.072 841.01 185.204 841.01 185.204C841.01 185.204 873.319 188.265 893.057 188.265C923.673 188.265 938.98 182.143 938.98 182.143C938.98 182.143 909.204 177.049 889.995 177.551Z" stroke="#D9D9D9"/>
<path d="M857.849 91.8368C874.109 76.6656 900.711 59.6939 900.711 59.6939C900.711 59.6939 883.006 82.6815 870.095 94.898C853.073 111.006 822.641 130.102 822.641 130.102C822.641 130.102 843.91 104.842 857.849 91.8368Z" stroke="#D9D9D9"/>
<path d="M778.248 52.0408C782.471 31.282 793.556 0 793.556 0C793.556 0 793.093 32.0608 788.964 52.0408C784.755 72.4032 772.125 102.551 772.125 102.551C772.125 102.551 774.287 71.5117 778.248 52.0408Z" stroke="#D9D9D9"/>
<path d="M689.463 71.9388C677.745 50.6051 663.439 15.3061 663.439 15.3061C663.439 15.3061 685.884 45.9037 697.117 67.3469C707.059 86.3281 720.078 117.857 720.078 117.857C720.078 117.857 699.681 90.544 689.463 71.9388Z" stroke="#D9D9D9"/>
<path d="M623.639 146.939C604.515 140.028 576.185 125.51 576.185 125.51C576.185 125.51 608.536 129.688 628.231 136.224C650.308 143.551 681.809 162.245 681.809 162.245C681.809 162.245 645.731 154.922 623.639 146.939Z" stroke="#D9D9D9"/>
<path d="M615.985 223.469C638.232 213.465 675.686 205.102 675.686 205.102C675.686 205.102 642.95 224.613 620.577 234.184C600.241 242.883 567 252.551 567 252.551C567 252.551 595.695 232.594 615.985 223.469Z" stroke="#D9D9D9"/>
<path d="M704.771 281.633C712.883 269.74 729.263 254.082 729.263 254.082C729.263 254.082 720.695 274.717 712.424 286.225C704.773 296.87 689.463 310.714 689.463 310.714C689.463 310.714 697.538 292.235 704.771 281.633Z" stroke="#D9D9D9"/>
<path d="M816.518 296.939C808.351 283.069 801.21 258.673 801.21 258.673C801.21 258.673 819.51 276.632 827.233 290.816C834.194 303.6 839.479 326.02 839.479 326.02C839.479 326.02 823.86 309.407 816.518 296.939Z" stroke="#D9D9D9"/>
<path d="M880.811 258.673C861.59 247.203 833.356 226.531 833.356 226.531C833.356 226.531 867.036 239.474 886.934 251.02C908.031 263.263 937.45 287.755 937.45 287.755C937.45 287.755 902.162 271.415 880.811 258.673Z" stroke="#D9D9D9"/>
</g>
<path fill-rule="evenodd" clip-rule="evenodd" d="M220.956 92.0126L220.951 92.0126C216.102 92.0975 210.87 92.195 205.08 92.3027L205.073 92.3027C197.681 92.4402 189.381 92.5948 179.81 92.7619C189.384 92.5948 197.686 92.4403 205.08 92.3027C210.872 92.195 216.106 92.0976 220.956 92.0126Z" fill="#CE3A60"/>
<path d="M485.004 185.449C494.075 212.886 485.82 256.413 475.429 300L475.425 300.012C487.611 345.394 495.471 382.744 486.674 410.418C486.277 411.667 485.743 412.999 485.078 414.402C502.306 379.973 512 341.119 512 300C512 258.822 502.278 219.915 485.004 185.449Z" fill="#CE3A60"/>
<path d="M23.9151 191.816C8.57046 224.678 0 261.338 0 300C0 342.69 10.4493 382.939 28.9297 418.33C19.2118 390.967 26.0294 344.218 36.5714 300L36.5749 299.988C24.6122 255.438 15.9076 219.305 23.9151 191.816Z" fill="#CE3A60"/>
<path d="M326.095 92.7619C401.894 181.652 444.574 216.441 475.422 300L475.425 300.012L475.429 300C485.82 256.413 494.075 212.886 485.004 185.449C482.828 181.107 480.531 176.835 478.12 172.638C456.431 142.372 391.201 94.3059 326.095 92.7619Z" fill="#CE3A60"/>
<path d="M185.905 507.238C110.106 418.348 67.426 383.559 36.5781 300L36.5749 299.988L36.5714 300C26.0294 344.218 19.2118 390.967 28.9297 418.33C30.9442 422.188 33.0542 425.988 35.2565 429.727C56.5663 459.497 120.709 505.692 185.905 507.238Z" fill="#CE3A60"/>
<path fill-rule="evenodd" clip-rule="evenodd" d="M220.956 92.0126L220.951 92.0126C216.102 92.0975 210.87 92.195 205.08 92.3027L205.073 92.3027C197.681 92.4402 189.381 92.5948 179.81 92.7619C189.384 92.5948 197.686 92.4403 205.08 92.3027C210.872 92.195 216.106 92.0976 220.956 92.0126Z" fill="#39A256"/>
<path d="M485.004 185.449C494.075 212.886 485.82 256.413 475.429 300L475.425 300.012C487.611 345.394 495.471 382.744 486.674 410.418C486.277 411.667 485.743 412.999 485.078 414.402C502.306 379.973 512 341.119 512 300C512 258.822 502.278 219.915 485.004 185.449Z" fill="#39A256"/>
<path d="M23.9151 191.816C8.57046 224.678 0 261.338 0 300C0 342.69 10.4493 382.939 28.9297 418.33C19.2118 390.967 26.0294 344.218 36.5714 300L36.5749 299.988C24.6122 255.438 15.9076 219.305 23.9151 191.816Z" fill="#39A256"/>
<path d="M179.798 92.7619C119.117 93.8211 52.7706 146.149 30.9511 177.877C28.4692 182.441 26.1221 187.089 23.9151 191.816C15.9076 219.305 24.6122 255.438 36.5749 299.988C57.2926 230.682 105.564 181.208 179.81 92.7619H179.798Z" fill="#39A256"/>
<path d="M475.425 300.012C454.707 369.319 406.436 418.792 332.19 507.238C397.096 506.105 467.669 446.93 484.008 416.516C484.368 415.813 484.725 415.109 485.078 414.402C485.743 412.999 486.277 411.667 486.674 410.418C495.471 382.744 487.611 345.394 475.425 300.012Z" fill="#39A256"/>
<path fill-rule="evenodd" clip-rule="evenodd" d="M220.956 92.0126L220.951 92.0126C216.256 92.0948 211.201 92.1888 205.629 92.2925C205.45 92.2959 205.27 92.2992 205.089 92.3026L205.08 92.3027L205.073 92.3027C204.946 92.3051 204.818 92.3074 204.69 92.3098C204.82 92.3074 204.95 92.3052 205.08 92.3027L205.089 92.3026C205.27 92.2992 205.45 92.2959 205.629 92.2925C211.203 92.1888 216.26 92.0949 220.956 92.0126Z" fill="#324BF7"/>
<path d="M256 44C245.176 44.1889 202.021 69.2117 179.81 92.7619C180.031 92.758 180.252 92.7542 180.473 92.7503C189.239 92.5969 196.933 92.4541 203.839 92.3256C204.124 92.3203 204.408 92.3151 204.69 92.3098L205.073 92.3027C204.665 92.3103 204.253 92.318 203.839 92.3256C196.933 92.4541 189.239 92.5969 180.473 92.7503C189.768 92.5876 197.858 92.4371 205.08 92.3027L205.073 92.3027L204.69 92.3098C204.408 92.3151 204.124 92.3203 203.839 92.3256C204.253 92.318 204.665 92.3103 205.073 92.3027L205.08 92.3027L205.089 92.3026L205.629 92.2925C211.201 92.1888 216.256 92.0948 220.951 92.0126L220.956 92.0126C254.907 91.418 270.049 91.4328 326.095 92.7619C301.104 68.1882 267.369 44.1981 256.264 44.0001L256 44Z" fill="#324BF7"/>
<path d="M332.19 507.238C262.605 508.453 260.183 509 185.905 507.238C210.896 531.812 244.631 555.802 255.736 556L256 556C266.824 555.811 309.979 530.788 332.19 507.238Z" fill="#324BF7"/>
<path fill-rule="evenodd" clip-rule="evenodd" d="M220.956 92.0126L220.951 92.0126C216.102 92.0975 210.87 92.195 205.08 92.3027L205.073 92.3027C197.681 92.4402 189.381 92.5948 179.81 92.7619C189.384 92.5948 197.686 92.4403 205.08 92.3027C210.872 92.195 216.106 92.0976 220.956 92.0126Z" fill="#E553F4"/>
<path d="M485.004 185.449C494.075 212.886 485.82 256.413 475.429 300L475.425 300.012C487.611 345.394 495.471 382.744 486.674 410.418C486.277 411.667 485.743 412.999 485.078 414.402C502.306 379.973 512 341.119 512 300C512 258.822 502.278 219.915 485.004 185.449Z" fill="#E553F4"/>
<path d="M23.9151 191.816C8.57046 224.678 0 261.338 0 300C0 342.69 10.4493 382.939 28.9297 418.33C19.2118 390.967 26.0294 344.218 36.5714 300L36.5749 299.988C24.6122 255.438 15.9076 219.305 23.9151 191.816Z" fill="#E553F4"/>
<path d="M185.905 507.238C120.709 505.692 56.5663 459.497 35.2565 429.727C79.719 505.221 161.805 555.905 255.736 556C244.631 555.802 210.896 531.812 185.905 507.238Z" fill="#E553F4"/>
<path d="M326.095 92.7619C391.201 94.3059 456.431 142.372 478.12 172.638C433.989 95.8391 351.173 44.096 256.264 44.0001C267.369 44.1981 301.104 68.1882 326.095 92.7619Z" fill="#E553F4"/>
<path fill-rule="evenodd" clip-rule="evenodd" d="M220.956 92.0126L220.951 92.0126C216.102 92.0975 210.87 92.195 205.08 92.3027L205.073 92.3027C197.681 92.4402 189.381 92.5948 179.81 92.7619C189.384 92.5948 197.686 92.4403 205.08 92.3027C210.872 92.195 216.106 92.0976 220.956 92.0126Z" fill="#33BAFF"/>
<path d="M485.004 185.449C494.075 212.886 485.82 256.413 475.429 300L475.425 300.012C487.611 345.394 495.471 382.744 486.674 410.418C486.277 411.667 485.743 412.999 485.078 414.402C502.306 379.973 512 341.119 512 300C512 258.822 502.278 219.915 485.004 185.449Z" fill="#33BAFF"/>
<path d="M23.9151 191.816C8.57046 224.678 0 261.338 0 300C0 342.69 10.4493 382.939 28.9297 418.33C19.2118 390.967 26.0294 344.218 36.5714 300L36.5749 299.988C24.6122 255.438 15.9076 219.305 23.9151 191.816Z" fill="#33BAFF"/>
<path d="M179.81 92.7619C202.021 69.2117 245.176 44.1889 256 44C158.838 44 74.318 98.1292 30.9511 177.877C52.7706 146.149 119.117 93.8211 179.798 92.7619C179.802 92.7618 179.806 92.762 179.81 92.7619Z" fill="#33BAFF"/>
<path d="M332.19 507.238C309.979 530.788 266.824 555.811 256 556C355.423 556 441.608 499.323 484.008 416.516C467.669 446.93 397.096 506.105 332.19 507.238Z" fill="#33BAFF"/>
<path fill-rule="evenodd" clip-rule="evenodd" d="M220.956 92.0126L220.951 92.0126C216.102 92.0975 210.87 92.195 205.08 92.3027L205.073 92.3027C197.681 92.4402 189.381 92.5948 179.81 92.7619C189.384 92.5948 197.686 92.4403 205.08 92.3027C210.872 92.195 216.106 92.0976 220.956 92.0126Z" fill="#D3CC5B"/>
<path d="M485.004 185.449C494.075 212.886 485.82 256.413 475.429 300L475.425 300.012C487.611 345.394 495.471 382.744 486.674 410.418C486.277 411.667 485.743 412.999 485.078 414.402C502.306 379.973 512 341.119 512 300C512 258.822 502.278 219.915 485.004 185.449Z" fill="#D3CC5B"/>
<path d="M23.9151 191.816C8.57046 224.678 0 261.338 0 300C0 342.69 10.4493 382.939 28.9297 418.33C19.2118 390.967 26.0294 344.218 36.5714 300L36.5749 299.988C24.6122 255.438 15.9076 219.305 23.9151 191.816Z" fill="#D3CC5B"/>
<path fill-rule="evenodd" clip-rule="evenodd" d="M220.956 92.0126L220.951 92.0126C216.105 92.0974 210.875 92.1949 205.089 92.3026L205.08 92.3027L205.073 92.3027C197.853 92.437 189.765 92.5877 180.473 92.7503C189.768 92.5876 197.858 92.4371 205.08 92.3027L205.089 92.3026C210.877 92.1949 216.108 92.0975 220.956 92.0126Z" fill="#393760"/>
<path d="M185.905 507.238C260.183 509 262.605 508.453 332.19 507.238C406.436 418.792 454.707 369.319 475.425 300.012L475.422 300C444.574 216.441 401.894 181.652 326.095 92.7619C270.049 91.4328 254.907 91.418 220.956 92.0126C216.108 92.0975 210.877 92.1949 205.089 92.3026L205.08 92.3027C197.858 92.4371 189.768 92.5876 180.473 92.7503C180.252 92.7542 180.031 92.758 179.81 92.7619C105.564 181.208 57.2926 230.682 36.5749 299.988L36.5781 300C67.426 383.559 110.106 418.348 185.905 507.238Z" fill="#393760"/>
<path d="M331.006 372.676V211.619H416.091V224.831H344.399V285.463H411.579V298.675H344.399V359.464H417.524V372.676H331.006Z" fill="white"/>
<path d="M216.709 372.676V211.619H264.05C274.459 211.619 283.149 213.821 290.12 218.225C297.138 222.576 302.414 228.501 305.948 235.998C309.529 243.495 311.319 251.936 311.319 261.32C311.319 270.705 309.553 279.172 306.019 286.721C302.486 294.218 297.234 300.169 290.263 304.573C283.292 308.924 274.626 311.1 264.265 311.1H227.022V297.888H263.907C271.594 297.888 277.968 296.316 283.029 293.17C288.09 289.972 291.862 285.62 294.345 280.115C296.876 274.611 298.141 268.346 298.141 261.32C298.141 254.295 296.876 248.03 294.345 242.525C291.862 237.02 288.066 232.695 282.958 229.549C277.896 226.404 271.474 224.831 263.692 224.831H230.102V372.676H216.709Z" fill="white"/>
<path d="M96.3233 372.676H82.2857L135.643 211.619H149.967L203.324 372.676H189.287L143.306 230.729H142.304L96.3233 372.676ZM106.422 310.943H179.188V324.155H106.422V310.943Z" fill="white"/>
<path fill-rule="evenodd" clip-rule="evenodd" d="M220.956 92.0126L220.951 92.0126C216.102 92.0975 210.87 92.195 205.08 92.3027L205.073 92.3027C197.681 92.4402 189.381 92.5948 179.81 92.7619C189.384 92.5948 197.686 92.4403 205.08 92.3027C210.872 92.195 216.106 92.0976 220.956 92.0126Z" fill="#CE3A60"/>
<path d="M485.004 185.449C494.075 212.886 485.82 256.413 475.429 300L475.425 300.012C487.611 345.394 495.471 382.744 486.674 410.418C486.277 411.667 485.743 412.999 485.078 414.402C502.306 379.973 512 341.119 512 300C512 258.822 502.278 219.915 485.004 185.449Z" fill="#CE3A60"/>
<path d="M23.9151 191.816C8.57046 224.678 0 261.338 0 300C0 342.69 10.4493 382.939 28.9297 418.33C19.2118 390.967 26.0294 344.218 36.5714 300L36.5749 299.988C24.6122 255.438 15.9076 219.305 23.9151 191.816Z" fill="#CE3A60"/>
<path d="M326.095 92.7619C401.894 181.652 444.574 216.441 475.422 300L475.425 300.012L475.429 300C485.82 256.413 494.075 212.886 485.004 185.449C482.828 181.107 480.531 176.835 478.12 172.638C456.431 142.372 391.201 94.3059 326.095 92.7619Z" fill="#CE3A60"/>
<path d="M185.905 507.238C110.106 418.348 67.426 383.559 36.5781 300L36.5749 299.988L36.5714 300C26.0294 344.218 19.2118 390.967 28.9297 418.33C30.9442 422.188 33.0542 425.988 35.2565 429.727C56.5663 459.497 120.709 505.692 185.905 507.238Z" fill="#CE3A60"/>
<path fill-rule="evenodd" clip-rule="evenodd" d="M220.956 92.0126L220.951 92.0126C216.102 92.0975 210.87 92.195 205.08 92.3027L205.073 92.3027C197.681 92.4402 189.381 92.5948 179.81 92.7619C189.384 92.5948 197.686 92.4403 205.08 92.3027C210.872 92.195 216.106 92.0976 220.956 92.0126Z" fill="#39A256"/>
<path d="M485.004 185.449C494.075 212.886 485.82 256.413 475.429 300L475.425 300.012C487.611 345.394 495.471 382.744 486.674 410.418C486.277 411.667 485.743 412.999 485.078 414.402C502.306 379.973 512 341.119 512 300C512 258.822 502.278 219.915 485.004 185.449Z" fill="#39A256"/>
<path d="M23.9151 191.816C8.57046 224.678 0 261.338 0 300C0 342.69 10.4493 382.939 28.9297 418.33C19.2118 390.967 26.0294 344.218 36.5714 300L36.5749 299.988C24.6122 255.438 15.9076 219.305 23.9151 191.816Z" fill="#39A256"/>
<path d="M179.798 92.7619C119.117 93.8211 52.7706 146.149 30.9511 177.877C28.4692 182.441 26.1221 187.089 23.9151 191.816C15.9076 219.305 24.6122 255.438 36.5749 299.988C57.2926 230.682 105.564 181.208 179.81 92.7619H179.798Z" fill="#39A256"/>
<path d="M475.425 300.012C454.707 369.319 406.436 418.792 332.19 507.238C397.096 506.105 467.669 446.93 484.008 416.516C484.368 415.813 484.725 415.109 485.078 414.402C485.743 412.999 486.277 411.667 486.674 410.418C495.471 382.744 487.611 345.394 475.425 300.012Z" fill="#39A256"/>
<path fill-rule="evenodd" clip-rule="evenodd" d="M220.956 92.0126L220.951 92.0126C216.256 92.0948 211.201 92.1888 205.629 92.2925C205.45 92.2959 205.27 92.2992 205.089 92.3026L205.08 92.3027L205.073 92.3027C204.946 92.3051 204.818 92.3074 204.69 92.3098C204.82 92.3074 204.95 92.3052 205.08 92.3027L205.089 92.3026C205.27 92.2992 205.45 92.2959 205.629 92.2925C211.203 92.1888 216.26 92.0949 220.956 92.0126Z" fill="#324BF7"/>
<path d="M256 44C245.176 44.1889 202.021 69.2117 179.81 92.7619C180.031 92.758 180.252 92.7542 180.473 92.7503C189.239 92.5969 196.933 92.4541 203.839 92.3256C204.124 92.3203 204.408 92.3151 204.69 92.3098L205.073 92.3027C204.665 92.3103 204.253 92.318 203.839 92.3256C196.933 92.4541 189.239 92.5969 180.473 92.7503C189.768 92.5876 197.858 92.4371 205.08 92.3027L205.073 92.3027L204.69 92.3098C204.408 92.3151 204.124 92.3203 203.839 92.3256C204.253 92.318 204.665 92.3103 205.073 92.3027L205.08 92.3027L205.089 92.3026L205.629 92.2925C211.201 92.1888 216.256 92.0948 220.951 92.0126L220.956 92.0126C254.907 91.418 270.049 91.4328 326.095 92.7619C301.104 68.1882 267.369 44.1981 256.264 44.0001L256 44Z" fill="#324BF7"/>
<path d="M332.19 507.238C262.605 508.453 260.183 509 185.905 507.238C210.896 531.812 244.631 555.802 255.736 556L256 556C266.824 555.811 309.979 530.788 332.19 507.238Z" fill="#324BF7"/>
<path fill-rule="evenodd" clip-rule="evenodd" d="M220.956 92.0126L220.951 92.0126C216.102 92.0975 210.87 92.195 205.08 92.3027L205.073 92.3027C197.681 92.4402 189.381 92.5948 179.81 92.7619C189.384 92.5948 197.686 92.4403 205.08 92.3027C210.872 92.195 216.106 92.0976 220.956 92.0126Z" fill="#E553F4"/>
<path d="M485.004 185.449C494.075 212.886 485.82 256.413 475.429 300L475.425 300.012C487.611 345.394 495.471 382.744 486.674 410.418C486.277 411.667 485.743 412.999 485.078 414.402C502.306 379.973 512 341.119 512 300C512 258.822 502.278 219.915 485.004 185.449Z" fill="#E553F4"/>
<path d="M23.9151 191.816C8.57046 224.678 0 261.338 0 300C0 342.69 10.4493 382.939 28.9297 418.33C19.2118 390.967 26.0294 344.218 36.5714 300L36.5749 299.988C24.6122 255.438 15.9076 219.305 23.9151 191.816Z" fill="#E553F4"/>
<path d="M185.905 507.238C120.709 505.692 56.5663 459.497 35.2565 429.727C79.719 505.221 161.805 555.905 255.736 556C244.631 555.802 210.896 531.812 185.905 507.238Z" fill="#E553F4"/>
<path d="M326.095 92.7619C391.201 94.3059 456.431 142.372 478.12 172.638C433.989 95.8391 351.173 44.096 256.264 44.0001C267.369 44.1981 301.104 68.1882 326.095 92.7619Z" fill="#E553F4"/>
<path fill-rule="evenodd" clip-rule="evenodd" d="M220.956 92.0126L220.951 92.0126C216.102 92.0975 210.87 92.195 205.08 92.3027L205.073 92.3027C197.681 92.4402 189.381 92.5948 179.81 92.7619C189.384 92.5948 197.686 92.4403 205.08 92.3027C210.872 92.195 216.106 92.0976 220.956 92.0126Z" fill="#33BAFF"/>
<path d="M485.004 185.449C494.075 212.886 485.82 256.413 475.429 300L475.425 300.012C487.611 345.394 495.471 382.744 486.674 410.418C486.277 411.667 485.743 412.999 485.078 414.402C502.306 379.973 512 341.119 512 300C512 258.822 502.278 219.915 485.004 185.449Z" fill="#33BAFF"/>
<path d="M23.9151 191.816C8.57046 224.678 0 261.338 0 300C0 342.69 10.4493 382.939 28.9297 418.33C19.2118 390.967 26.0294 344.218 36.5714 300L36.5749 299.988C24.6122 255.438 15.9076 219.305 23.9151 191.816Z" fill="#33BAFF"/>
<path d="M179.81 92.7619C202.021 69.2117 245.176 44.1889 256 44C158.838 44 74.318 98.1292 30.9511 177.877C52.7706 146.149 119.117 93.8211 179.798 92.7619C179.802 92.7618 179.806 92.762 179.81 92.7619Z" fill="#33BAFF"/>
<path d="M332.19 507.238C309.979 530.788 266.824 555.811 256 556C355.423 556 441.608 499.323 484.008 416.516C467.669 446.93 397.096 506.105 332.19 507.238Z" fill="#33BAFF"/>
<path fill-rule="evenodd" clip-rule="evenodd" d="M220.956 92.0126L220.951 92.0126C216.102 92.0975 210.87 92.195 205.08 92.3027L205.073 92.3027C197.681 92.4402 189.381 92.5948 179.81 92.7619C189.384 92.5948 197.686 92.4403 205.08 92.3027C210.872 92.195 216.106 92.0976 220.956 92.0126Z" fill="#D3CC5B"/>
<path d="M485.004 185.449C494.075 212.886 485.82 256.413 475.429 300L475.425 300.012C487.611 345.394 495.471 382.744 486.674 410.418C486.277 411.667 485.743 412.999 485.078 414.402C502.306 379.973 512 341.119 512 300C512 258.822 502.278 219.915 485.004 185.449Z" fill="#D3CC5B"/>
<path d="M23.9151 191.816C8.57046 224.678 0 261.338 0 300C0 342.69 10.4493 382.939 28.9297 418.33C19.2118 390.967 26.0294 344.218 36.5714 300L36.5749 299.988C24.6122 255.438 15.9076 219.305 23.9151 191.816Z" fill="#D3CC5B"/>
<path fill-rule="evenodd" clip-rule="evenodd" d="M220.956 92.0126L220.951 92.0126C216.105 92.0974 210.875 92.1949 205.089 92.3026L205.08 92.3027L205.073 92.3027C197.853 92.437 189.765 92.5877 180.473 92.7503C189.768 92.5876 197.858 92.4371 205.08 92.3027L205.089 92.3026C210.877 92.1949 216.108 92.0975 220.956 92.0126Z" fill="#393760"/>
<path d="M185.905 507.238C260.183 509 262.605 508.453 332.19 507.238C406.436 418.792 454.707 369.319 475.425 300.012L475.422 300C444.574 216.441 401.894 181.652 326.095 92.7619C270.049 91.4328 254.907 91.418 220.956 92.0126C216.108 92.0975 210.877 92.1949 205.089 92.3026L205.08 92.3027C197.858 92.4371 189.768 92.5876 180.473 92.7503C180.252 92.7542 180.031 92.758 179.81 92.7619C105.564 181.208 57.2926 230.682 36.5749 299.988L36.5781 300C67.426 383.559 110.106 418.348 185.905 507.238Z" fill="#393760"/>
<path d="M106.893 396V356H112.928V390.805H131.053V396H106.893ZM140.058 396H133.651L148.046 356H155.019L169.413 396H163.007L151.698 363.266H151.386L140.058 396ZM141.132 380.336H161.913V385.414H141.132V380.336ZM204.962 366.508C204.753 364.659 203.894 363.227 202.383 362.211C200.873 361.182 198.972 360.668 196.68 360.668C195.04 360.668 193.62 360.928 192.423 361.449C191.225 361.957 190.294 362.66 189.63 363.559C188.979 364.444 188.653 365.453 188.653 366.586C188.653 367.536 188.874 368.357 189.317 369.047C189.773 369.737 190.365 370.316 191.094 370.785C191.837 371.241 192.631 371.625 193.477 371.938C194.324 372.237 195.137 372.484 195.919 372.68L199.825 373.695C201.101 374.008 202.41 374.431 203.751 374.965C205.092 375.499 206.335 376.202 207.481 377.074C208.627 377.947 209.551 379.027 210.255 380.316C210.971 381.605 211.329 383.148 211.329 384.945C211.329 387.211 210.743 389.223 209.571 390.98C208.412 392.738 206.726 394.125 204.512 395.141C202.312 396.156 199.649 396.664 196.524 396.664C193.529 396.664 190.938 396.189 188.751 395.238C186.563 394.288 184.851 392.94 183.614 391.195C182.377 389.437 181.693 387.354 181.563 384.945H187.618C187.735 386.391 188.204 387.595 189.024 388.559C189.857 389.509 190.919 390.219 192.208 390.687C193.51 391.143 194.936 391.371 196.485 391.371C198.191 391.371 199.708 391.104 201.036 390.57C202.377 390.023 203.432 389.268 204.2 388.305C204.968 387.328 205.352 386.189 205.352 384.887C205.352 383.702 205.014 382.732 204.337 381.977C203.673 381.221 202.768 380.596 201.622 380.102C200.489 379.607 199.206 379.171 197.774 378.793L193.048 377.504C189.844 376.632 187.305 375.349 185.43 373.656C183.568 371.964 182.637 369.724 182.637 366.937C182.637 364.633 183.262 362.621 184.512 360.902C185.762 359.184 187.455 357.849 189.591 356.898C191.726 355.935 194.135 355.453 196.817 355.453C199.525 355.453 201.915 355.928 203.985 356.879C206.068 357.829 207.709 359.138 208.907 360.805C210.105 362.458 210.73 364.359 210.782 366.508H204.962ZM249.987 376C249.987 380.271 249.206 383.943 247.643 387.016C246.081 390.076 243.939 392.432 241.217 394.086C238.509 395.727 235.43 396.547 231.979 396.547C228.515 396.547 225.423 395.727 222.702 394.086C219.993 392.432 217.858 390.069 216.295 386.996C214.733 383.923 213.952 380.258 213.952 376C213.952 371.729 214.733 368.064 216.295 365.004C217.858 361.931 219.993 359.574 222.702 357.934C225.423 356.28 228.515 355.453 231.979 355.453C235.43 355.453 238.509 356.28 241.217 357.934C243.939 359.574 246.081 361.931 247.643 365.004C249.206 368.064 249.987 371.729 249.987 376ZM244.01 376C244.01 372.745 243.483 370.004 242.428 367.777C241.387 365.538 239.954 363.845 238.131 362.699C236.321 361.54 234.271 360.961 231.979 360.961C229.674 360.961 227.617 361.54 225.807 362.699C223.997 363.845 222.565 365.538 221.51 367.777C220.469 370.004 219.948 372.745 219.948 376C219.948 379.255 220.469 382.003 221.51 384.242C222.565 386.469 223.997 388.161 225.807 389.32C227.617 390.466 229.674 391.039 231.979 391.039C234.271 391.039 236.321 390.466 238.131 389.32C239.954 388.161 241.387 386.469 242.428 384.242C243.483 382.003 244.01 379.255 244.01 376ZM279.934 356H285.989V382.309C285.989 385.108 285.331 387.589 284.016 389.75C282.701 391.898 280.852 393.591 278.469 394.828C276.086 396.052 273.293 396.664 270.09 396.664C266.9 396.664 264.114 396.052 261.731 394.828C259.348 393.591 257.499 391.898 256.184 389.75C254.869 387.589 254.211 385.108 254.211 382.309V356H260.246V381.82C260.246 383.63 260.644 385.238 261.438 386.645C262.245 388.051 263.384 389.158 264.856 389.965C266.327 390.759 268.072 391.156 270.09 391.156C272.121 391.156 273.873 390.759 275.344 389.965C276.828 389.158 277.961 388.051 278.742 386.645C279.537 385.238 279.934 383.63 279.934 381.82V356ZM291.463 396V356H305.721C308.82 356 311.391 356.534 313.436 357.602C315.493 358.669 317.029 360.147 318.045 362.035C319.061 363.91 319.568 366.078 319.568 368.539C319.568 370.987 319.054 373.142 318.025 375.004C317.01 376.853 315.473 378.292 313.416 379.32C311.372 380.349 308.8 380.863 305.701 380.863H294.9V375.668H305.154C307.108 375.668 308.696 375.388 309.92 374.828C311.157 374.268 312.062 373.454 312.635 372.387C313.208 371.319 313.494 370.036 313.494 368.539C313.494 367.029 313.201 365.72 312.615 364.613C312.042 363.507 311.137 362.66 309.9 362.074C308.677 361.475 307.068 361.176 305.076 361.176H297.498V396H291.463ZM311.209 377.953L321.092 396H314.217L304.529 377.953H311.209ZM356.835 369.008H350.741C350.507 367.706 350.071 366.56 349.433 365.57C348.794 364.581 348.013 363.741 347.089 363.051C346.164 362.361 345.129 361.84 343.983 361.488C342.85 361.137 341.646 360.961 340.37 360.961C338.065 360.961 336.002 361.54 334.179 362.699C332.369 363.858 330.936 365.557 329.882 367.797C328.84 370.036 328.319 372.771 328.319 376C328.319 379.255 328.84 382.003 329.882 384.242C330.936 386.482 332.375 388.174 334.198 389.32C336.021 390.466 338.072 391.039 340.35 391.039C341.614 391.039 342.811 390.87 343.944 390.531C345.09 390.18 346.125 389.665 347.05 388.988C347.974 388.311 348.755 387.484 349.393 386.508C350.044 385.518 350.494 384.385 350.741 383.109L356.835 383.129C356.509 385.095 355.878 386.905 354.94 388.559C354.016 390.199 352.824 391.618 351.366 392.816C349.921 394.001 348.267 394.919 346.405 395.57C344.543 396.221 342.512 396.547 340.311 396.547C336.848 396.547 333.762 395.727 331.054 394.086C328.345 392.432 326.21 390.069 324.647 386.996C323.098 383.923 322.323 380.258 322.323 376C322.323 371.729 323.104 368.064 324.667 365.004C326.229 361.931 328.365 359.574 331.073 357.934C333.781 356.28 336.861 355.453 340.311 355.453C342.434 355.453 344.413 355.759 346.249 356.371C348.098 356.97 349.758 357.855 351.229 359.027C352.701 360.186 353.918 361.605 354.882 363.285C355.845 364.952 356.496 366.859 356.835 369.008ZM360.757 396V356H385.835V361.195H366.792V373.383H384.526V378.559H366.792V390.805H386.069V396H360.757Z" fill="white"/>
<path d="M385 335H106V344H385V335Z" fill="white"/>
<path d="M126.73 326H113.505L163.772 187.818H177.266L227.532 326H214.308L170.991 204.214H170.046L126.73 326ZM136.243 273.035H204.794V284.37H136.243V273.035ZM218.915 326V187.818H263.513C273.319 187.818 281.506 189.707 288.073 193.486C294.685 197.219 299.656 202.302 302.984 208.734C306.358 215.167 308.045 222.409 308.045 230.46C308.045 238.512 306.38 245.776 303.052 252.254C299.723 258.686 294.775 263.791 288.208 267.57C281.641 271.303 273.477 273.17 263.716 273.17H228.631V261.834H263.379C270.621 261.834 276.625 260.485 281.393 257.786C286.161 255.042 289.715 251.309 292.054 246.586C294.438 241.863 295.63 236.488 295.63 230.46C295.63 224.433 294.438 219.058 292.054 214.335C289.715 209.611 286.139 205.901 281.326 203.202C276.558 200.503 270.508 199.153 263.176 199.153H231.532V326H218.915ZM305.365 326V187.818H385.521V199.153H317.982V251.174H381.27V262.509H317.982V314.665H386.87V326H305.365Z" fill="white"/>
<defs>
<clipPath id="clip0_671_109">
<rect width="1641" height="600" fill="white" transform="translate(567)"/>
</clipPath>
</defs>
</svg>
