<svg width="20" height="28" viewBox="0 0 20 28" fill="none" xmlns="http://www.w3.org/2000/svg">
<path d="M10 8C4.486 8 0 12.486 0 18C0 23.514 4.486 28 10 28C15.514 28 20 23.514 20 18C20 12.486 15.514 8 10 8ZM10 9.5C14.687 9.5 18.5 13.313 18.5 18C18.5 20.926 17.0138 23.51 14.7568 25.04L7.87109 14.8301C7.68759 14.5566 7.34377 14.4372 7.03027 14.5322C6.71527 14.6292 6.5 14.9205 6.5 15.25V21.75C6.5 22.164 6.836 22.5 7.25 22.5C7.664 22.5 8 22.164 8 21.75V17.7031L13.4385 25.7666C12.3855 26.2341 11.224 26.5 10 26.5C5.313 26.5 1.5 22.687 1.5 18C1.5 13.313 5.313 9.5 10 9.5ZM12.75 13.5C12.336 13.5 12 13.836 12 14.25V18.4932L13.5 20.6445V14.25C13.5 13.836 13.164 13.5 12.75 13.5Z" fill="white"/>
</svg>
