<svg width="21" height="28" viewBox="0 0 21 28" fill="none" xmlns="http://www.w3.org/2000/svg">
<path d="M10.2058 28C9.88884 28 9.59302 27.9155 9.31833 27.7676L6.50804 26.0983C6.08544 25.8659 6.29674 25.7814 6.42352 25.7391C6.99403 25.5489 7.09968 25.5067 7.69132 25.1686C7.75471 25.1263 7.83923 25.1475 7.90262 25.1897L10.0579 26.4786C10.1424 26.5209 10.248 26.5209 10.3114 26.4786L18.7423 21.5976C18.8268 21.5554 18.8691 21.4708 18.8691 21.3652V11.6243C18.8691 11.5186 18.8268 11.4341 18.7423 11.3918L10.3114 6.53192C10.2269 6.48966 10.1213 6.48966 10.0579 6.53192L1.62701 11.3918C1.54249 11.4341 1.50023 11.5397 1.50023 11.6243V21.3652C1.50023 21.4497 1.54249 21.5554 1.62701 21.5976L3.93018 22.9288C5.17685 23.5627 5.95866 22.8232 5.95866 22.0836V12.4695C5.95866 12.3427 6.06431 12.2159 6.21222 12.2159H7.28985C7.41663 12.2159 7.54341 12.3215 7.54341 12.4695V22.0836C7.54341 23.7529 6.63482 24.7249 5.05007 24.7249C4.56408 24.7249 4.18374 24.7249 3.10611 24.1966L0.88746 22.9288C0.33808 22.6119 0 22.0202 0 21.3863V11.6454C0 11.0115 0.33808 10.4198 0.88746 10.1029L9.31833 5.22186C9.84658 4.92605 10.565 4.92605 11.0932 5.22186L19.5241 10.1029C20.0735 10.4198 20.4116 11.0115 20.4116 11.6454V21.3863C20.4116 22.0202 20.0735 22.6119 19.5241 22.9288L11.0932 27.8098C10.8186 27.9366 10.5016 28 10.2058 28ZM12.8048 21.3018C9.10703 21.3018 8.34635 19.6114 8.34635 18.1746C8.34635 18.0478 8.452 17.921 8.59991 17.921H9.69867C9.82545 17.921 9.9311 18.0055 9.9311 18.1323C10.1001 19.2522 10.5861 19.8016 12.8259 19.8016C14.6008 19.8016 15.3615 19.4001 15.3615 18.4492C15.3615 17.8999 15.1502 17.4984 12.3822 17.2237C10.079 16.9913 8.64217 16.4842 8.64217 14.6458C8.64217 12.9343 10.079 11.9201 12.4878 11.9201C15.1925 11.9201 16.5237 12.8498 16.6927 14.8783C16.6927 14.9417 16.6716 15.0051 16.6293 15.0684C16.587 15.1107 16.5237 15.153 16.4603 15.153H15.3615C15.2559 15.153 15.1502 15.0684 15.1291 14.9628C14.8755 13.8006 14.2205 13.4203 12.4878 13.4203C10.5439 13.4203 10.3114 14.0965 10.3114 14.6036C10.3114 15.2164 10.5861 15.4065 13.2062 15.7446C15.8052 16.0827 17.0308 16.5687 17.0308 18.3859C17.0096 20.2453 15.4883 21.3018 12.8048 21.3018Z" fill="#539E43"/>
</svg>
