<svg width="20" height="28" viewBox="0 0 20 28" fill="none" xmlns="http://www.w3.org/2000/svg">
<path d="M0 8H20V28H0V8Z" fill="#222222"/>
<path d="M9.98452 19.6603C10.9082 19.6603 11.657 18.9115 11.657 17.9878C11.657 17.0642 10.9082 16.3154 9.98452 16.3154C9.06084 16.3154 8.31205 17.0642 8.31205 17.9878C8.31205 18.9115 9.06084 19.6603 9.98452 19.6603Z" fill="#00D8FF"/>
<path d="M9.98452 14.5876C12.2296 14.5876 14.3155 14.9099 15.8879 15.4509C17.7826 16.1031 18.9477 17.0919 18.9477 17.9873C18.9477 18.9202 17.7129 19.9709 15.6784 20.6447C14.1403 21.1543 12.1157 21.4207 9.98452 21.4207C7.79915 21.4207 5.73039 21.1708 4.17454 20.6391C2.20638 19.9665 1.02084 18.9026 1.02084 17.9873C1.02084 17.0991 2.13342 16.1181 4.00155 15.467C5.58006 14.917 7.71735 14.5876 9.98452 14.5876Z" stroke="#00D8FF" stroke-miterlimit="10"/>
<path d="M7.02482 16.2977C8.14624 14.3527 9.46775 12.7068 10.7224 11.6152C12.234 10.2998 13.6727 9.78467 14.4481 10.2318C15.2562 10.6977 15.5497 12.2923 15.1169 14.392C14.7897 15.9793 14.0093 17.8657 12.9442 19.7123C11.8526 21.6053 10.6024 23.2728 9.36495 24.3549C7.79915 25.724 6.28475 26.2192 5.49218 25.7621C4.72282 25.3183 4.42878 23.8647 4.79744 21.9209C5.10916 20.2771 5.89178 18.2614 7.02482 16.2977Z" stroke="#00D8FF" stroke-miterlimit="10"/>
<path d="M7.02758 19.7161C5.90284 17.7728 5.13679 15.8063 4.81733 14.1742C4.43265 12.2077 4.70458 10.7038 5.47947 10.2556C6.28696 9.78798 7.81462 10.3302 9.41745 11.7534C10.6295 12.8295 11.8737 14.4478 12.9415 16.2927C14.0364 18.184 14.8571 20.0997 15.176 21.7119C15.5801 23.7525 15.2529 25.3117 14.4608 25.7699C13.692 26.2148 12.286 25.7439 10.7859 24.4533C9.51915 23.3628 8.16338 21.6782 7.02758 19.7161Z" stroke="#00D8FF" stroke-miterlimit="10"/>
</svg>
