<svg width="20" height="28" viewBox="0 0 20 28" fill="none" xmlns="http://www.w3.org/2000/svg">
<path d="M9.99218 11.5094C6.40895 11.5094 3.49372 14.4246 3.49372 18.0078C3.49372 21.5911 6.40895 24.5063 9.99218 24.5063C13.5754 24.5063 16.4906 21.5911 16.4906 18.0078C16.4906 14.4246 13.5754 11.5094 9.99218 11.5094ZM9.99218 21.3708C8.13461 21.3708 6.6292 19.8654 6.6292 18.0078C6.6292 16.1503 8.13461 14.6449 9.99218 14.6449C11.8498 14.6449 13.3552 16.1503 13.3552 18.0078C13.3552 19.8654 11.8498 21.3708 9.99218 21.3708Z" fill="white"/>
<path fill-rule="evenodd" clip-rule="evenodd" d="M10.5367 10.442V8.0157C15.8105 8.29766 20 12.6639 20 18.0079C20 23.3518 15.8105 27.7168 10.5367 28V25.5737C14.4672 25.2929 17.5797 22.0086 17.5797 18.0079C17.5797 14.0071 14.4672 10.7228 10.5367 10.442ZM4.26091 22.9694C3.21898 21.7665 2.54735 20.2345 2.42755 18.5524H0C0.125855 20.9061 1.06735 23.042 2.54251 24.6866L4.2597 22.9694H4.26091ZM9.44759 28V25.5737C7.76428 25.4539 6.23224 24.7834 5.02935 23.7403L3.31216 25.4575C4.95796 26.9339 7.09386 27.8741 9.44638 28H9.44759Z" fill="url(#paint0_linear_667_21)"/>
<defs>
<linearGradient id="paint0_linear_667_21" x1="10.9289" y1="9.4208" x2="1.09286" y2="19.2568" gradientUnits="userSpaceOnUse">
<stop stop-color="#0096FF"/>
<stop offset="1" stop-color="#FF1E56"/>
</linearGradient>
</defs>
</svg>
