<svg width="20" height="28" viewBox="0 0 20 28" fill="none" xmlns="http://www.w3.org/2000/svg">
<path d="M0 18V28H10H20V18V8H10H0V18Z" fill="#007ACC"/>
<path d="M4.42275 18.0663L4.4164 18.8854H5.71798H7.01957V22.5838L7.01957 26.2822H7.94021H8.86084V22.5838V18.8854H10.1624H11.464V18.0822C11.464 17.6378 11.4545 17.2663 11.4418 17.2568C11.4323 17.2441 9.84814 17.2378 7.92751 17.2409L4.43227 17.2505L4.42275 18.0663Z" fill="white"/>
<path d="M16.138 17.2272C16.646 17.3542 17.0333 17.5796 17.3888 17.9478C17.5729 18.1447 17.846 18.5034 17.8682 18.5891C17.8745 18.6145 17.0047 19.1986 16.4777 19.5256C16.4587 19.5383 16.3825 19.4558 16.2967 19.3288C16.0396 18.9542 15.7698 18.7923 15.3571 18.7637C14.7507 18.7225 14.3602 19.0399 14.3634 19.5701C14.3634 19.7256 14.3856 19.8177 14.4491 19.9447C14.5825 20.2209 14.8301 20.3859 15.6079 20.7225C17.0396 21.3383 17.6523 21.7447 18.0333 22.3225C18.4587 22.9669 18.5539 23.9955 18.265 24.7605C17.9475 25.5923 17.1602 26.1574 16.0523 26.3447C15.7094 26.405 14.8967 26.3955 14.5285 26.3288C13.7253 26.1859 12.9634 25.7891 12.4936 25.2685C12.3094 25.0653 11.9507 24.5351 11.9729 24.4971C11.9825 24.4844 12.065 24.4336 12.1571 24.3796C12.246 24.3288 12.5825 24.1351 12.8999 23.951L13.4745 23.6177L13.5952 23.7955C13.7634 24.0526 14.1317 24.405 14.3539 24.5225C14.992 24.859 15.8682 24.8113 16.2999 24.424C16.484 24.2558 16.5602 24.0812 16.5602 23.824C16.5602 23.5923 16.5317 23.4907 16.411 23.3161C16.2555 23.0939 15.938 22.9066 15.0364 22.5161C14.0047 22.0717 13.5602 21.7955 13.1539 21.3574C12.919 21.1034 12.6967 20.6971 12.6047 20.3574C12.5285 20.0748 12.5094 19.3669 12.5698 19.0812C12.7825 18.0844 13.5348 17.3891 14.6206 17.1828C14.9729 17.1161 15.792 17.1415 16.138 17.2272Z" fill="white"/>
</svg>
