<svg width="84" height="84" viewBox="0 0 84 84" fill="none" xmlns="http://www.w3.org/2000/svg">
  <path d="M41.6667 0C18.6917 0 0 18.6917 0 41.6667C0 64.6417 18.6917 83.3333 41.6667 83.3333C64.6417 83.3333 83.3333 64.6417 83.3333 41.6667C83.3333 18.6917 64.6417 0 41.6667 0ZM41.6667 6.25C61.1958 6.25 77.0833 22.1375 77.0833 41.6667C77.0833 53.8583 70.891 64.6252 61.4868 71.0002L32.7962 28.4587C32.0316 27.3191 30.5991 26.8218 29.2928 27.2176C27.9803 27.6218 27.0833 28.8354 27.0833 30.2083V57.2917C27.0833 59.0167 28.4833 60.4167 30.2083 60.4167C31.9333 60.4167 33.3333 59.0167 33.3333 57.2917V40.4297L55.9937 74.0275C51.6062 75.9754 46.7667 77.0833 41.6667 77.0833C22.1375 77.0833 6.25 61.1958 6.25 41.6667C6.25 22.1375 22.1375 6.25 41.6667 6.25ZM53.125 22.9167C51.4 22.9167 50 24.3167 50 26.0417V43.7215L56.25 52.6855V26.0417C56.25 24.3167 54.85 22.9167 53.125 22.9167Z" fill="white"/>
</svg>
