<svg width="24" height="24" viewBox="0 0 24 24" fill="none" xmlns="http://www.w3.org/2000/svg">
<path d="M12 0C5.3832 0 0 5.3832 0 12C0 18.6168 5.3832 24 12 24C18.6168 24 24 18.6168 24 12C24 5.3832 18.6168 0 12 0ZM12 1.8C17.6244 1.8 22.2 6.3756 22.2 12C22.2 15.5112 20.4166 18.612 17.7082 20.448L9.44531 8.19609C9.22511 7.86789 8.81253 7.72467 8.43633 7.83867C8.05833 7.95507 7.8 8.3046 7.8 8.7V16.5C7.8 16.9968 8.2032 17.4 8.7 17.4C9.1968 17.4 9.6 16.9968 9.6 16.5V11.6438L16.1262 21.3199C14.8626 21.8809 13.4688 22.2 12 22.2C6.3756 22.2 1.8 17.6244 1.8 12C1.8 6.3756 6.3756 1.8 12 1.8ZM15.3 6.6C14.8032 6.6 14.4 7.0032 14.4 7.5V12.5918L16.2 15.1734V7.5C16.2 7.0032 15.7968 6.6 15.3 6.6Z" fill="white"/>
</svg>
