<svg width="24" height="24" viewBox="0 0 24 24" fill="none" xmlns="http://www.w3.org/2000/svg">
<path d="M0 0H24V24H0V0Z" fill="#222222"/>
<path d="M11.9814 13.9924C13.0898 13.9924 13.9884 13.0938 13.9884 11.9854C13.9884 10.877 13.0898 9.97845 11.9814 9.97845C10.873 9.97845 9.97447 10.877 9.97447 11.9854C9.97447 13.0938 10.873 13.9924 11.9814 13.9924Z" fill="#00D8FF"/>
<path d="M11.9814 7.90516C14.6755 7.90516 17.1786 8.29183 19.0655 8.94114C21.3391 9.72376 22.7372 10.9103 22.7372 11.9847C22.7372 13.1043 21.2555 14.3651 18.8141 15.1736C16.9683 15.7851 14.5389 16.1048 11.9814 16.1048C9.35898 16.1048 6.87647 15.805 5.00945 15.167C2.64765 14.3598 1.225 13.0831 1.225 11.9847C1.225 10.9189 2.56011 9.74167 4.80186 8.96037C6.69607 8.30045 9.26082 7.90516 11.9814 7.90516Z" stroke="#00D8FF" stroke-miterlimit="10"/>
<path d="M8.42978 9.95722C9.77549 7.62328 11.3613 5.64815 12.8669 4.33825C14.6808 2.75974 16.4072 2.1416 17.3378 2.67816C18.3074 3.23727 18.6596 5.15072 18.1403 7.67037C17.7476 9.57519 16.8111 11.8388 15.5331 14.0547C14.2232 16.3263 12.7229 18.3273 11.2379 19.6259C9.35898 21.2688 7.5417 21.863 6.59061 21.3145C5.66738 20.782 5.31454 19.0376 5.75692 16.705C6.13099 14.7325 7.07014 12.3137 8.42978 9.95722Z" stroke="#00D8FF" stroke-miterlimit="10"/>
<path d="M8.4331 14.0594C7.0834 11.7274 6.16415 9.3676 5.7808 7.40905C5.31918 5.04925 5.6455 3.24457 6.57536 2.70668C7.54435 2.14558 9.37755 2.79622 11.3009 4.50406C12.7554 5.79539 14.2484 7.73736 15.5298 9.95125C16.8436 12.2209 17.8286 14.5196 18.2112 16.4543C18.6961 18.903 18.3034 20.774 17.353 21.3238C16.4304 21.8577 14.7432 21.2927 12.9431 19.744C11.423 18.4354 9.79605 16.4139 8.4331 14.0594Z" stroke="#00D8FF" stroke-miterlimit="10"/>
</svg>
