<svg width="63" height="63" viewBox="0 0 63 63" fill="none" xmlns="http://www.w3.org/2000/svg">
  <path
    d="M31.5017 11.0956C20.2499 11.0956 11.0957 20.2498 11.0957 31.5016C11.0957 42.7534 20.2499 51.9076 31.5017 51.9076C42.7535 51.9076 51.9077 42.7534 51.9077 31.5016C51.9077 20.2498 42.7535 11.0956 31.5017 11.0956ZM31.5017 42.0618C25.6687 42.0618 20.9415 37.3346 20.9415 31.5016C20.9415 25.6686 25.6687 20.9414 31.5017 20.9414C37.3347 20.9414 42.0619 25.6686 42.0619 31.5016C42.0619 37.3346 37.3347 42.0618 31.5017 42.0618Z"
    fill="white" />
  <path fill-rule="evenodd" clip-rule="evenodd"
    d="M33.2115 7.744V0.125C49.7719 1.0104 62.9275 14.7208 62.9275 31.5016C62.9275 48.2824 49.7719 61.989 33.2115 62.8782V55.2592C45.5539 54.3776 55.3275 44.0644 55.3275 31.5016C55.3275 18.9388 45.5539 8.6256 33.2115 7.744ZM13.5048 47.0815C10.233 43.3043 8.124 38.4935 7.7478 33.2115H0.125C0.5202 40.6025 3.4766 47.3095 8.1088 52.4737L13.501 47.0815H13.5048ZM29.7916 62.8782V55.2592C24.5058 54.883 19.695 52.7778 15.9178 49.5022L10.5256 54.8944C15.6936 59.5304 22.4006 62.483 29.7878 62.8782H29.7916Z"
    fill="url(#paint0_linear_660_8)" />
  <defs>
    <linearGradient id="paint0_linear_660_8" x1="34.443" y1="4.5372" x2="3.5567" y2="35.4236" gradientUnits="userSpaceOnUse">
      <stop stop-color="#0096FF" />
      <stop offset="1" stop-color="#FF1E56" />
    </linearGradient>
  </defs>
</svg>
