<svg width="24" height="24" viewBox="0 0 24 24" fill="none" xmlns="http://www.w3.org/2000/svg">
<path d="M11.9906 4.19241C7.69074 4.19241 4.19246 7.69069 4.19246 11.9906C4.19246 16.2905 7.69074 19.7887 11.9906 19.7887C16.2905 19.7887 19.7888 16.2905 19.7888 11.9906C19.7888 7.69069 16.2905 4.19241 11.9906 4.19241ZM11.9906 16.0262C9.76154 16.0262 7.95504 14.2197 7.95504 11.9906C7.95504 9.76149 9.76154 7.95499 11.9906 7.95499C14.2197 7.95499 16.0262 9.76149 16.0262 11.9906C16.0262 14.2197 14.2197 16.0262 11.9906 16.0262Z" fill="white"/>
<path fill-rule="evenodd" clip-rule="evenodd" d="M12.644 2.9116V0C18.9726 0.338356 24 5.57779 24 11.9906C24 18.4034 18.9726 23.6414 12.644 23.9812V21.0696C17.3607 20.7327 21.0957 16.7915 21.0957 11.9906C21.0957 7.1897 17.3607 3.24851 12.644 2.9116ZM5.1131 17.9444C3.86278 16.501 3.05682 14.6625 2.91306 12.644H0C0.151026 15.4685 1.28082 18.0316 3.05101 20.0051L5.11164 17.9444H5.1131ZM11.3371 23.9812V21.0696C9.31713 20.9258 7.47868 20.1213 6.03523 18.8695L3.97459 20.9301C5.94955 22.7018 8.51263 23.8301 11.3357 23.9812H11.3371Z" fill="url(#paint0_linear_660_8)"/>
<defs>
<linearGradient id="paint0_linear_660_8" x1="13.1146" y1="1.68612" x2="1.31143" y2="13.4894" gradientUnits="userSpaceOnUse">
<stop stop-color="#0096FF"/>
<stop offset="1" stop-color="#FF1E56"/>
</linearGradient>
</defs>
</svg>
