<svg width="24" height="24" viewBox="0 0 24 24" fill="none" xmlns="http://www.w3.org/2000/svg">
<path d="M0 12V24H12H24V12V0H12H0V12Z" fill="#007ACC"/>
<path d="M5.3073 12.0796L5.29968 13.0625L6.86158 13.0625H8.42349V17.5006V21.9387H9.52825H10.633V17.5006V13.0625H12.1949H13.7568V12.0987C13.7568 11.5653 13.7454 11.1196 13.7302 11.1082C13.7187 11.0929 11.8178 11.0853 9.51301 11.0891L5.31872 11.1006L5.3073 12.0796Z" fill="white"/>
<path d="M19.3656 11.0727C19.9751 11.225 20.4399 11.4955 20.8666 11.9374C21.0875 12.1736 21.4151 12.6041 21.4418 12.7069C21.4494 12.7374 20.4056 13.4384 19.7732 13.8308C19.7504 13.846 19.659 13.7469 19.5561 13.5946C19.2475 13.145 18.9237 12.9508 18.4285 12.9165C17.7009 12.8669 17.2323 13.2479 17.2361 13.8841C17.2361 14.0708 17.2628 14.1812 17.339 14.3336C17.499 14.665 17.7961 14.8631 18.7294 15.2669C20.4475 16.006 21.1828 16.4936 21.6399 17.1869C22.1504 17.9603 22.2647 19.1946 21.918 20.1127C21.537 21.1108 20.5923 21.7888 19.2628 22.0136C18.8513 22.086 17.8761 22.0746 17.4342 21.9946C16.4704 21.8231 15.5561 21.3469 14.9923 20.7222C14.7713 20.4784 14.3409 19.8422 14.3675 19.7965C14.379 19.7812 14.478 19.7203 14.5885 19.6555C14.6951 19.5946 15.099 19.3622 15.4799 19.1412L16.1694 18.7412L16.3142 18.9546C16.5161 19.2631 16.958 19.686 17.2247 19.8269C17.9904 20.2308 19.0418 20.1736 19.5599 19.7088C19.7809 19.5069 19.8723 19.2974 19.8723 18.9888C19.8723 18.7108 19.838 18.5888 19.6932 18.3793C19.5066 18.1127 19.1256 17.8879 18.0437 17.4193C16.8056 16.886 16.2723 16.5546 15.7847 16.0288C15.5028 15.7241 15.2361 15.2365 15.1256 14.8288C15.0342 14.4898 15.0113 13.6403 15.0837 13.2974C15.339 12.1012 16.2418 11.2669 17.5447 11.0193C17.9675 10.9393 18.9504 10.9698 19.3656 11.0727Z" fill="white"/>
</svg>
