<svg width="536" height="196" viewBox="0 0 536 196" fill="none" xmlns="http://www.w3.org/2000/svg">
<path d="M488.828 160.5V158.969H492.39V148.922C492.05 149.095 491.657 149.268 491.212 149.441C490.767 149.608 490.337 149.754 489.922 149.877C489.508 149.995 489.168 150.072 488.902 150.109V148.532C489.137 148.477 489.424 148.393 489.765 148.282C490.105 148.164 490.457 148.034 490.822 147.892C491.193 147.75 491.54 147.601 491.861 147.447C492.183 147.286 492.446 147.134 492.65 146.992H494.607V158.969H497.771V160.5H488.828Z" fill="#44528A"/>
<path d="M502.567 160.5V160.277L506.937 154.692C506.646 154.878 506.324 155.023 505.972 155.128C505.619 155.234 505.267 155.286 504.914 155.286C504.382 155.286 503.875 155.193 503.393 155.008C502.916 154.816 502.493 154.541 502.122 154.182C501.751 153.817 501.457 153.378 501.24 152.865C501.024 152.345 500.916 151.755 500.916 151.093C500.916 150.276 501.11 149.547 501.5 148.903C501.89 148.254 502.434 147.744 503.133 147.373C503.838 146.995 504.664 146.807 505.61 146.807C506.352 146.807 507.011 146.924 507.586 147.159C508.161 147.388 508.647 147.707 509.043 148.115C509.445 148.517 509.748 148.984 509.952 149.516C510.162 150.048 510.267 150.61 510.267 151.204C510.267 151.835 510.187 152.41 510.026 152.93C509.865 153.449 509.636 153.95 509.339 154.433C509.049 154.909 508.709 155.404 508.319 155.917L504.868 160.5H502.567ZM505.526 153.857C505.823 153.857 506.126 153.808 506.436 153.709C506.745 153.61 507.029 153.452 507.289 153.236C507.555 153.013 507.768 152.729 507.929 152.382C508.09 152.036 508.171 151.612 508.171 151.111C508.171 150.61 508.068 150.156 507.864 149.748C507.666 149.333 507.379 149.002 507.002 148.755C506.624 148.507 506.164 148.384 505.619 148.384C505.081 148.384 504.617 148.507 504.228 148.755C503.838 149.002 503.541 149.333 503.337 149.748C503.133 150.156 503.031 150.613 503.031 151.121C503.031 151.906 503.241 152.559 503.662 153.078C504.088 153.598 504.71 153.857 505.526 153.857Z" fill="#44528A"/>
<path d="M518.756 160.5V157.16H513.245L512.874 155.639L518.487 146.992H520.926V155.583H522.634L522.513 157.16H520.926V160.5H518.756ZM514.794 155.611H518.746V149.339L514.794 155.611Z" fill="#44528A"/>
<path d="M530.222 160.686C529.486 160.686 528.827 160.571 528.246 160.342C527.671 160.107 527.185 159.786 526.789 159.377C526.394 158.969 526.094 158.502 525.889 157.977C525.685 157.445 525.583 156.879 525.583 156.279C525.583 155.648 525.654 155.076 525.797 154.562C525.945 154.043 526.155 153.542 526.428 153.06C526.706 152.577 527.034 152.073 527.411 151.547L530.686 146.992H532.987V147.215C532.269 148.186 531.552 149.157 530.834 150.128C530.117 151.099 529.396 152.067 528.673 153.032C528.945 152.815 529.27 152.624 529.647 152.457C530.024 152.29 530.46 152.206 530.955 152.206C531.474 152.206 531.966 152.299 532.43 152.484C532.9 152.67 533.314 152.942 533.673 153.301C534.038 153.659 534.323 154.096 534.527 154.609C534.737 155.122 534.842 155.707 534.842 156.362C534.842 157.179 534.653 157.915 534.276 158.57C533.905 159.22 533.373 159.736 532.68 160.12C531.994 160.497 531.174 160.686 530.222 160.686ZM530.203 159.099C530.748 159.099 531.205 158.972 531.576 158.719C531.954 158.465 532.241 158.131 532.439 157.717C532.637 157.296 532.736 156.835 532.736 156.334C532.736 155.809 532.637 155.345 532.439 154.943C532.241 154.535 531.957 154.216 531.586 153.987C531.221 153.752 530.772 153.635 530.241 153.635C529.95 153.635 529.656 153.684 529.359 153.783C529.062 153.882 528.784 154.04 528.524 154.256C528.271 154.473 528.067 154.757 527.912 155.11C527.757 155.456 527.68 155.877 527.68 156.372C527.68 156.866 527.776 157.321 527.968 157.735C528.166 158.15 528.453 158.481 528.83 158.728C529.208 158.975 529.665 159.099 530.203 159.099Z" fill="#44528A"/>
<path d="M366.518 160.75V146.932H375.087V148.727H368.603V152.937H374.473V154.725H368.603V160.75H366.518Z" fill="#44528A"/>
<path d="M390.604 153.841C390.604 155.316 390.334 156.585 389.794 157.646C389.255 158.703 388.515 159.517 387.575 160.089C386.639 160.656 385.575 160.939 384.383 160.939C383.187 160.939 382.118 160.656 381.178 160.089C380.243 159.517 379.505 158.701 378.965 157.64C378.425 156.578 378.156 155.312 378.156 153.841C378.156 152.366 378.425 151.099 378.965 150.042C379.505 148.981 380.243 148.167 381.178 147.6C382.118 147.029 383.187 146.743 384.383 146.743C385.575 146.743 386.639 147.029 387.575 147.6C388.515 148.167 389.255 148.981 389.794 150.042C390.334 151.099 390.604 152.366 390.604 153.841ZM388.539 153.841C388.539 152.716 388.357 151.77 387.993 151C387.633 150.227 387.138 149.642 386.509 149.246C385.883 148.846 385.175 148.646 384.383 148.646C383.587 148.646 382.876 148.846 382.251 149.246C381.626 149.642 381.131 150.227 380.767 151C380.407 151.77 380.227 152.716 380.227 153.841C380.227 154.965 380.407 155.915 380.767 156.688C381.131 157.457 381.626 158.042 382.251 158.442C382.876 158.838 383.587 159.036 384.383 159.036C385.175 159.036 385.883 158.838 386.509 158.442C387.138 158.042 387.633 157.457 387.993 156.688C388.357 155.915 388.539 154.965 388.539 153.841Z" fill="#44528A"/>
<path d="M405.306 146.932V160.75H403.39L396.366 150.616H396.238V160.75H394.153V146.932H396.083L403.114 157.08H403.242V146.932H405.306Z" fill="#44528A"/>
<path d="M413.771 160.75H409.298V146.932H413.913C415.267 146.932 416.43 147.208 417.401 147.762C418.373 148.31 419.117 149.1 419.634 150.13C420.156 151.156 420.417 152.386 420.417 153.821C420.417 155.26 420.154 156.497 419.628 157.532C419.106 158.566 418.35 159.362 417.361 159.92C416.371 160.473 415.175 160.75 413.771 160.75ZM411.383 158.928H413.656C414.709 158.928 415.584 158.73 416.281 158.334C416.978 157.934 417.5 157.356 417.846 156.6C418.193 155.84 418.366 154.914 418.366 153.821C418.366 152.737 418.193 151.817 417.846 151.061C417.505 150.305 416.994 149.732 416.315 149.341C415.636 148.949 414.792 148.754 413.785 148.754H411.383V158.928Z" fill="#44528A"/>
<path d="M423.96 160.75V146.932H432.623V148.727H426.045V152.937H432.171V154.725H426.045V158.955H432.704V160.75H423.96ZM427.455 145.549L429.034 142.438H431.159L429.067 145.549H427.455Z" fill="#44528A"/>
<path d="M436.358 160.75V146.932H445.021V148.727H438.443V152.937H444.569V154.725H438.443V158.955H445.102V160.75H436.358Z" fill="#44528A"/>
<path d="M454.734 160.75V146.932H463.398V148.727H456.819V152.937H462.946V154.725H456.819V158.955H463.479V160.75H454.734Z" fill="#44528A"/>
<path d="M478.286 146.932V160.75H476.37L469.346 150.616H469.218V160.75H467.133V146.932H469.062L476.093 157.08H476.221V146.932H478.286Z" fill="#44528A"/>
<path d="M132.722 161V143.545H144.074V146.196H135.883V150.935H143.486V153.585H135.883V158.349H144.142V161H132.722ZM137.222 141.824L139.131 137.929H142.148L139.531 141.824H137.222Z" fill="#44528A"/>
<path d="M162.84 149.435H159.653C159.562 148.912 159.394 148.449 159.15 148.045C158.905 147.636 158.601 147.29 158.238 147.006C157.874 146.722 157.459 146.509 156.993 146.366C156.533 146.219 156.036 146.145 155.502 146.145C154.553 146.145 153.712 146.384 152.979 146.861C152.246 147.332 151.672 148.026 151.258 148.94C150.843 149.849 150.635 150.96 150.635 152.273C150.635 153.608 150.843 154.733 151.258 155.648C151.678 156.557 152.252 157.244 152.979 157.71C153.712 158.17 154.55 158.401 155.493 158.401C156.016 158.401 156.505 158.332 156.959 158.196C157.42 158.054 157.832 157.847 158.195 157.574C158.564 157.301 158.874 156.966 159.124 156.568C159.38 156.17 159.556 155.716 159.653 155.205L162.84 155.222C162.721 156.051 162.462 156.83 162.064 157.557C161.672 158.284 161.158 158.926 160.522 159.483C159.885 160.034 159.141 160.466 158.289 160.778C157.437 161.085 156.491 161.239 155.451 161.239C153.917 161.239 152.547 160.884 151.343 160.173C150.138 159.463 149.189 158.437 148.496 157.097C147.803 155.756 147.457 154.148 147.457 152.273C147.457 150.392 147.806 148.784 148.505 147.449C149.204 146.108 150.155 145.082 151.36 144.372C152.564 143.662 153.928 143.307 155.451 143.307C156.422 143.307 157.326 143.443 158.161 143.716C158.996 143.989 159.741 144.389 160.394 144.918C161.047 145.44 161.584 146.082 162.005 146.844C162.431 147.599 162.709 148.463 162.84 149.435Z" fill="#44528A"/>
<path d="M181.932 152.273C181.932 154.153 181.58 155.764 180.875 157.105C180.177 158.44 179.222 159.463 178.012 160.173C176.807 160.884 175.441 161.239 173.912 161.239C172.384 161.239 171.015 160.884 169.804 160.173C168.6 159.457 167.645 158.432 166.941 157.097C166.242 155.756 165.892 154.148 165.892 152.273C165.892 150.392 166.242 148.784 166.941 147.449C167.645 146.108 168.6 145.082 169.804 144.372C171.015 143.662 172.384 143.307 173.912 143.307C175.441 143.307 176.807 143.662 178.012 144.372C179.222 145.082 180.177 146.108 180.875 147.449C181.58 148.784 181.932 150.392 181.932 152.273ZM178.753 152.273C178.753 150.949 178.546 149.832 178.131 148.923C177.722 148.009 177.154 147.318 176.427 146.852C175.699 146.381 174.861 146.145 173.912 146.145C172.963 146.145 172.125 146.381 171.398 146.852C170.671 147.318 170.1 148.009 169.685 148.923C169.276 149.832 169.071 150.949 169.071 152.273C169.071 153.597 169.276 154.716 169.685 155.631C170.1 156.54 170.671 157.23 171.398 157.702C172.125 158.168 172.963 158.401 173.912 158.401C174.861 158.401 175.699 158.168 176.427 157.702C177.154 157.23 177.722 156.54 178.131 155.631C178.546 154.716 178.753 153.597 178.753 152.273Z" fill="#44528A"/>
<path d="M185.522 161V143.545H188.683V158.349H196.371V161H185.522Z" fill="#44528A"/>
<path d="M199.715 161V143.545H211.068V146.196H202.877V150.935H210.48V153.585H202.877V158.349H211.136V161H199.715Z" fill="#44528A"/>
<path d="M235.79 143.545V161H232.978L224.753 149.111H224.608V161H221.447V143.545H224.276L232.492 155.443H232.645V143.545H235.79Z" fill="#44528A"/>
<path d="M255.432 152.273C255.432 154.153 255.08 155.764 254.375 157.105C253.677 158.44 252.722 159.463 251.512 160.173C250.307 160.884 248.941 161.239 247.412 161.239C245.884 161.239 244.515 160.884 243.304 160.173C242.1 159.457 241.145 158.432 240.441 157.097C239.742 155.756 239.392 154.148 239.392 152.273C239.392 150.392 239.742 148.784 240.441 147.449C241.145 146.108 242.1 145.082 243.304 144.372C244.515 143.662 245.884 143.307 247.412 143.307C248.941 143.307 250.307 143.662 251.512 144.372C252.722 145.082 253.677 146.108 254.375 147.449C255.08 148.784 255.432 150.392 255.432 152.273ZM252.253 152.273C252.253 150.949 252.046 149.832 251.631 148.923C251.222 148.009 250.654 147.318 249.927 146.852C249.199 146.381 248.361 146.145 247.412 146.145C246.463 146.145 245.625 146.381 244.898 146.852C244.171 147.318 243.6 148.009 243.185 148.923C242.776 149.832 242.571 150.949 242.571 152.273C242.571 153.597 242.776 154.716 243.185 155.631C243.6 156.54 244.171 157.23 244.898 157.702C245.625 158.168 246.463 158.401 247.412 158.401C248.361 158.401 249.199 158.168 249.927 157.702C250.654 157.23 251.222 156.54 251.631 155.631C252.046 154.716 252.253 153.597 252.253 152.273Z" fill="#44528A"/>
<path d="M270.024 143.545H273.186V154.949C273.186 156.199 272.891 157.298 272.3 158.247C271.715 159.196 270.891 159.937 269.828 160.472C268.766 161 267.524 161.264 266.104 161.264C264.678 161.264 263.433 161 262.371 160.472C261.308 159.937 260.485 159.196 259.899 158.247C259.314 157.298 259.022 156.199 259.022 154.949V143.545H262.183V154.685C262.183 155.412 262.343 156.06 262.661 156.628C262.985 157.196 263.439 157.642 264.024 157.966C264.61 158.284 265.303 158.443 266.104 158.443C266.905 158.443 267.598 158.284 268.183 157.966C268.774 157.642 269.229 157.196 269.547 156.628C269.865 156.06 270.024 155.412 270.024 154.685V143.545Z" fill="#44528A"/>
<path d="M279.558 143.545L284.101 157.284H284.28L288.814 143.545H292.291L286.138 161H282.234L276.09 143.545H279.558Z" fill="#44528A"/>
<path d="M295.19 161V143.545H306.543V146.196H298.352V150.935H305.955V153.585H298.352V158.349H306.611V161H295.19Z" fill="#44528A"/>
<path d="M310.368 161V143.545H313.53V158.349H321.218V161H310.368Z" fill="#44528A"/>
<path d="M324.562 161V143.545H327.724V158.349H335.412V161H324.562Z" fill="#44528A"/>
<path d="M338.756 161V143.545H350.108V146.196H341.918V150.935H349.52V153.585H341.918V158.349H350.176V161H338.756Z" fill="#44528A"/>
<path d="M147 74.5C148 73.5 148 72 147 71C146 70 144.5 70 143.5 70C142.5 70 140.5 70.5 137 70.5C133.5 70.5 132 70 130.5 70C129 70 127.5 71 127.5 71C126.5 72 126.5 73.5 127.5 74.5C127.5 74.5 131 75 131.5 75C132 75 133 76 133 77V119.5C133 120.5 132.5 121 131.5 121.5C129.5 122.5 129.176 121.441 127.5 122C125.825 122.558 126 125.625 127.5 126C130.109 126.652 132 125.5 148 125.5C163 125.518 165 126.5 167.5 126C170 125.5 169.747 120.753 173.5 117C176 114.5 172.5 114.5 170.5 114.5C168.5 114.5 166.505 119.558 163 121.5H142.5C142 121.5 141 120.5 141 119.5V77C141 76 141.5 75 142.5 75L147 74.5Z" fill="#44528A"/>
<path d="M273 73.5C278.5 73.5 283 77 285.5 85.5C286 87 288.5 87 289 85.5C289.833 83 288.333 81.4548 288.333 78.5C288.333 76 288.667 73 288 72C287.242 70.8627 285 71 284.5 72C284.185 72.6297 284.5 73.5 283.5 73.5C281.438 73.4999 278.5 69.5 273 69.5C267 69.5 258 74 258 81C258 95 268.158 95.1948 274.5 99C280.842 102.805 284.5 106.643 284.5 111C284.5 115 281 123 275 123C260.5 123 260.875 110 260.5 108.5C260 106.5 257 106.5 256.5 108.5C256.125 110 257 123 258 125C259 127 261 126 261.5 125C262 124 261.5 123.5 262.5 123C263.5 122.5 268 127 275 127C282 127 292 118.445 292 108.5C292 98.555 281 93 275 90.5C270.412 88.5882 265.5 86.5 265.5 81C265.5 76.4248 268.425 73.5 273 73.5Z" fill="#44528A"/>
<path d="M370 88C371.5 88 372 84 370 84C368 84 368 84.5 363.5 84.5C359 84.5 359 84 357 84C355.438 83.9999 355.438 88 357 88C358.5 88 360 87.9999 360 89.5C360 91 359.882 114 360 114.5C360 120 367.5 127 379 127C390.221 127 397 118.5 397 114.5V89.5C397 87.9999 398.69 88 400 88C401.5 88 401.562 84 400 84C398.5 84 398.5 84.5 394.5 84.5C391 84.5 391 84 389 84C387.5 84 387.5 88 389 88C390.5 88 392 87.9999 392 89.5C392 91 392.109 114 392 114.5C389.5 126 369.5 126 367 114.5C366.901 114 367 91 367 89.5C367 87.9999 368.5 88 370 88Z" fill="#44528A"/>
<path d="M430 105.5C430 105.5 440 104 440 94C440 90 436.5 86 433.5 85C430.5 84 429 84 425 84H425C417 84 417 85.0001 410 85C408 85 408 89.5 410.5 89.5C412 89.5 411.361 87.9999 412.5 88C413.356 88 413.5 88.5 413.5 89.5V121C413.5 122 410.978 121.522 410 122.5C409 123.5 409.08 125.08 410 126C411 127 413 125.5 417 125.5C421 125.5 423.5 127 424.5 126C425.5 125 425.5 123.5 424.5 122.5C423.5 121.5 420.5 122 420.5 121V89.5C420.5 87.5 423.158 87 425 87C427 87 434 89 434 95C434 102.5 424 103 423 103.5C422 104 422 105.5 423 106C424 106.5 429.5 110.5 433 118C436.5 125.5 441 126 441 126C441 126 444.5 126.5 446 125.5C447.5 124.5 447 121.5 446.5 121C446 120.5 445 120.5 444.5 121C444 121.5 443.5 123.5 442 123C440.5 122.5 438.5 114.5 436 110C434.578 107.44 430 105.5 430 105.5Z" fill="#44528A"/>
<path d="M485 86.5C484 86.5 482.5 84 474 84C465.5 83.9999 452 90.1027 452 105.5C452 118.233 460.5 127 474 127C487.5 127 494.5 114 494 112.5C493.5 111 490.5 111 490 112.5C489.5 114 486.5 122 474 122C461.5 122 459 111.5 459 105.5C459 99.5 461.5 87 474 87C483 87 488.091 97.1818 488.5 98C489 99 491.5 99 492 98C492.421 97.158 490.5 90.5 489 85C488.5 84 487 83.9999 486.5 85C486 86 486 86.5 485 86.5Z" fill="#44528A"/>
<path d="M516 84.5C507 84.5 508 84 502.5 84C501.5 84.5 501.5 87.5 502.5 88H506.5V120.5C506.5 120.5 506.5 122 503.5 122C501.5 122 501.5 126 503.5 126C506.5 126 511.5 125.5 520 125.5C528.5 125.5 529.5 126.5 532 126C533 125.8 536 118.5 536 117.5C536 116.5 535.5 116 534 116C532.5 116 531.686 119.043 529.5 120.5C528 121.5 527 122 520 122C513 122 513.5 120.5 513.5 120.5V105H522C523 105 523 106 523 106V111C523 111.301 526 111.324 526 111L526 96C526 95.7227 523 95.7383 523 96V100.5C523 101.5 522 101.5 522 101.5H513.5V89.5C513.5 88.0001 517.5 88 520 88H520C527.5 88 528 91.9999 529 93C530 94 532 93 532 91.5C532 90 529.5 84 527.5 84C525.5 83.9999 525 84.5 516 84.5Z" fill="#44528A"/>
<path fill-rule="evenodd" clip-rule="evenodd" d="M325.5 83.5C341 84.5 348.98 94.6407 347 108.5C346 115.5 338 126.5 324.5 127C312.508 127.444 301.5 119 301 108.5C300.405 96 310 82.5 325.5 83.5ZM324.5 87.5C315.5 87.5 308 93.5 308 105.5C308 113 315 123 324.5 123C333.5 123 340 115.5 340 105.5C340 95.5 332 87.5 324.5 87.5Z" fill="#44528A"/>
<path fill-rule="evenodd" clip-rule="evenodd" d="M196.5 84C196.5 82.9422 198.5 82.5 200.5 84C200.75 84.2499 205.375 93.499 209.999 102.748C214.625 111.999 219.25 121.25 219.5 121.5C220.065 122.065 220.79 121.991 221.584 121.911C222.195 121.849 222.848 121.783 223.5 122C225 122.5 225 125.5 223.5 126C222.984 126.172 222.633 126.102 221.958 125.967C221.071 125.79 219.623 125.5 216.5 125.5C213.344 125.5 211.67 125.774 210.627 125.945C209.852 126.072 209.426 126.142 209 126C207.5 125.5 207.5 122.5 209 122C209.682 121.773 210.467 121.855 211.074 121.919C211.802 121.996 212.273 122.045 212 121.5L209 116H188L185.5 121.5C185.221 122.058 185.875 121.993 186.682 121.914C187.322 121.851 188.058 121.779 188.5 122C190 123 189.5 125.5 188.5 126C188.045 126.227 187.694 126.145 187.024 125.987C186.219 125.797 184.955 125.5 182.5 125.5C180.045 125.5 178.483 125.797 177.489 125.987C176.661 126.145 176.227 126.227 176 126C175 125 175.085 122.915 176 122C176.289 121.711 177.028 121.784 177.798 121.86C178.738 121.952 179.725 122.049 180 121.5C180 121.5 196.5 88 197 87C197.307 86.0777 197.048 85.5335 196.802 85.0186C196.648 84.6961 196.5 84.3851 196.5 84ZM198 94.5L207 112H190L198 94.5Z" fill="#44528A"/>
<path d="M45 107C45 103.5 48.5 100.5 51.5 100.5C54.5 100.5 57 103 57 106.5C57 110 54 113 50.5 113C47 113 45 110.5 45 107Z" stroke="#44528A" stroke-width="2.5"/>
<path d="M55.5 194L54.8116 195.043L55.5305 195.518L56.2298 195.015L55.5 194ZM72.5852 128.553L71.9243 129.614L71.9243 129.614L72.5852 128.553ZM72.4066 128.537L71.9511 127.373L72.4066 128.537ZM72.4989 128.512L72.384 129.757L72.4989 128.512ZM72.5591 149.467L71.9432 148.379L72.5591 149.467ZM72.4735 149.563L71.3225 149.075L72.4735 149.563ZM72.5042 149.504L71.5711 148.672L72.5042 149.504ZM7.27526 162.182L7.96366 161.138L7.27526 162.182ZM7.28828 161.84L6.68122 160.747L7.28828 161.84ZM7.09278 162.004L8.34187 162.051L7.09278 162.004ZM100.021 161.945L98.8565 161.492L100.021 161.945ZM99.9519 162.035L99.2221 161.02L99.9519 162.035ZM99.9966 161.997L100.985 162.763L99.9966 161.997ZM113.797 126.523L114.962 126.976L113.797 126.523ZM113.512 126.277L114.128 127.364L113.512 126.277ZM113.871 126.15L114.688 125.204L113.871 126.15ZM41.8692 143.404L42.7919 142.561L41.8692 143.404ZM41.2223 143.463L42.2884 144.115L41.2223 143.463ZM41.5159 143.136L41.3966 141.892L41.5159 143.136ZM25.8146 100.309L24.9344 101.197L25.8146 100.309ZM24.8971 99.6233L25.5848 100.667L24.8971 99.6233ZM36.9841 121.15L38.2272 121.282L36.9841 121.15ZM36.9138 120.876L37.9413 120.164L36.9138 120.876ZM36.9871 121.003L35.776 121.313L36.9871 121.003ZM24.2292 159.162L23.194 158.462L24.2292 159.162ZM24.3912 159.573L24.4928 160.819L24.3912 159.573ZM24.1523 159.478L23.0729 160.109L24.1523 159.478ZM61.1605 160.791L62.1885 160.08L61.1605 160.791ZM60.6945 161.325L61.315 160.24L60.6945 161.325ZM61.5587 161.64L60.6378 160.795L61.5587 161.64ZM10.2416 151.721L9.39691 152.643L10.2416 151.721ZM10.3074 151.386L10.7407 152.559L10.3074 151.386ZM10.0902 151.518L8.86367 151.277L10.0902 151.518ZM48.4179 126.035L48.522 124.79L48.4179 126.035ZM47.9814 126.418L46.7324 126.368L47.9814 126.418ZM48.0573 126.067L47.2298 125.13L48.0573 126.067ZM81.1354 123.695L80.7263 122.514L81.1354 123.695ZM80.9934 122.964L80.9681 124.214L80.9934 122.964ZM82.1972 123.153L80.9624 123.348L82.1972 123.153ZM80.7263 122.514C73.7201 124.941 64.2689 126.105 48.522 124.79L48.3138 127.281C64.2488 128.612 74.0856 127.46 81.5445 124.876L80.7263 122.514ZM46.7324 126.368C46.1946 139.677 50.9114 148.172 60.1325 161.502L62.1885 160.08C53.0172 146.822 48.7276 138.911 49.2304 126.469L46.7324 126.368ZM25.2645 159.863C29.4426 153.688 32.2037 148.759 34.1587 142.979C36.1082 137.214 37.2348 130.666 38.2272 121.282L35.7411 121.019C34.7542 130.35 33.6502 136.679 31.7905 142.178C29.9363 147.66 27.3097 152.379 23.194 158.462L25.2645 159.863ZM24.9344 101.197C34.4645 110.649 41.1285 116.325 49.1478 119.655C57.1584 122.982 66.4017 123.919 80.9681 124.214L81.0186 121.714C66.4646 121.42 57.6429 120.476 50.1066 117.347C42.5788 114.22 36.2137 108.863 26.6948 99.4219L24.9344 101.197ZM37.9413 120.164C30.5361 109.474 28.2805 105.229 26.3218 100.262L23.9961 101.179C26.0581 106.408 28.4384 110.836 35.8862 121.587L37.9413 120.164ZM61.315 160.24C57.1961 157.885 52.1449 152.794 42.7919 142.561L40.9465 144.247C50.2009 154.373 55.5387 159.817 60.0739 162.41L61.315 160.24ZM40.1562 142.81C37.8417 146.591 34.327 150.48 31.0738 153.456C29.451 154.94 27.9168 156.176 26.6584 157.044C26.0279 157.478 25.485 157.808 25.0476 158.03C24.8294 158.14 24.651 158.217 24.5113 158.266C24.4422 158.29 24.3883 158.306 24.3484 158.316C24.3077 158.325 24.2892 158.327 24.2896 158.327L24.4928 160.819C25.0464 160.773 25.6402 160.532 26.1774 160.26C26.7479 159.971 27.3909 159.575 28.0776 159.102C29.4532 158.153 31.0774 156.841 32.7611 155.301C36.1211 152.227 39.8123 148.16 42.2884 144.115L40.1562 142.81ZM112.632 126.07L98.8565 161.492L101.186 162.398L114.962 126.976L112.632 126.07ZM99.2221 161.02L54.7702 192.985L56.2298 195.015L100.682 163.049L99.2221 161.02ZM56.1884 192.957L7.96366 161.138L6.58686 163.225L54.8116 195.043L56.1884 192.957ZM7.89533 162.933L16.6071 158.093L15.3929 155.907L6.68122 160.747L7.89533 162.933ZM9.39691 152.643L15.1553 157.921L16.8447 156.079L11.0862 150.8L9.39691 152.643ZM32.5667 141.828L9.87407 150.214L10.7407 152.559L33.4333 144.172L32.5667 141.828ZM112.896 125.189L71.9432 148.379L73.1751 150.554L114.128 127.364L112.896 125.189ZM15.1592 157.925L53.6592 192.925L55.3408 191.075L16.8408 156.075L15.1592 157.925ZM53.382 192.559L54.382 194.559L56.618 193.441L55.618 191.441L53.382 192.559ZM71.3225 149.075L53.349 191.513L55.651 192.487L73.6245 150.05L71.3225 149.075ZM90.8205 138.439L73.2461 127.492L71.9243 129.614L89.4987 140.561L90.8205 138.439ZM71.9511 127.373L49.0445 136.336L49.9555 138.664L72.8621 129.701L71.9511 127.373ZM73.2461 127.492C73.2435 127.49 73.1739 127.446 73.0997 127.408C73.0036 127.36 72.8359 127.288 72.6138 127.267L72.384 129.757C72.1855 129.738 72.04 129.674 71.9707 129.639C71.9396 129.623 71.9182 129.61 71.915 129.608C71.912 129.606 71.9112 129.606 71.9243 129.614L73.2461 127.492ZM72.8621 129.701C72.8764 129.695 72.8755 129.695 72.8722 129.697C72.8687 129.698 72.8454 129.707 72.8119 129.716C72.7373 129.738 72.5825 129.775 72.384 129.757L72.6138 127.267C72.3918 127.247 72.2136 127.287 72.1103 127.317C72.0305 127.34 71.9538 127.371 71.9511 127.373L72.8621 129.701ZM71.9432 148.379C71.9418 148.38 71.8904 148.408 71.8406 148.441C71.7764 148.483 71.674 148.557 71.5711 148.672L73.4372 150.336C73.3454 150.439 73.2558 150.502 73.209 150.533C73.1879 150.547 73.1722 150.556 73.1694 150.557C73.1668 150.559 73.1658 150.559 73.1751 150.554L71.9432 148.379ZM73.6245 150.05C73.6287 150.04 73.6282 150.041 73.627 150.044C73.6257 150.047 73.6185 150.064 73.6072 150.086C73.5821 150.136 73.5291 150.232 73.4372 150.336L71.5711 148.672C71.4682 148.787 71.4065 148.897 71.3721 148.966C71.3455 149.019 71.3231 149.074 71.3225 149.075L73.6245 150.05ZM7.96366 161.138C7.92869 161.115 7.91708 161.107 7.91059 161.103C7.90242 161.097 7.931 161.116 7.97128 161.152C8.00916 161.186 8.10477 161.277 8.18947 161.425C8.28586 161.595 8.35104 161.81 8.34187 162.051L5.84368 161.956C5.82133 162.543 6.17433 162.899 6.30283 163.014C6.41896 163.118 6.56033 163.207 6.58686 163.225L7.96366 161.138ZM6.68122 160.747C6.65344 160.763 6.50569 160.841 6.38198 160.936C6.24509 161.041 5.86603 161.369 5.84368 161.956L8.34187 162.051C8.3327 162.292 8.25131 162.502 8.14232 162.663C8.04655 162.805 7.94434 162.888 7.904 162.919C7.86108 162.952 7.83114 162.969 7.83972 162.964C7.84654 162.96 7.8587 162.953 7.89533 162.933L6.68122 160.747ZM98.8565 161.492C98.8531 161.5 98.8535 161.499 98.8545 161.497C98.8556 161.494 98.8616 161.479 98.8709 161.459C98.8914 161.414 98.9343 161.328 99.0084 161.232L100.985 162.763C101.068 162.656 101.118 162.557 101.146 162.495C101.168 162.447 101.186 162.399 101.186 162.398L98.8565 161.492ZM100.682 163.049C100.683 163.049 100.725 163.019 100.766 162.986C100.819 162.943 100.902 162.87 100.985 162.763L99.0084 161.232C99.0826 161.136 99.1553 161.073 99.1938 161.042C99.2112 161.028 99.2241 161.018 99.2265 161.017C99.2287 161.015 99.2297 161.014 99.2221 161.02L100.682 163.049ZM114.962 126.976C114.989 126.905 115.061 126.727 115.101 126.565C115.118 126.493 115.315 125.747 114.688 125.204L113.053 127.095C112.784 126.863 112.676 126.564 112.651 126.332C112.63 126.142 112.664 126.004 112.67 125.979C112.679 125.941 112.686 125.926 112.676 125.954C112.667 125.979 112.654 126.011 112.632 126.07L114.962 126.976ZM114.128 127.364C114.182 127.333 114.213 127.316 114.236 127.303C114.263 127.289 114.248 127.299 114.212 127.313C114.188 127.323 114.056 127.376 113.865 127.383C113.632 127.391 113.321 127.327 113.053 127.095L114.688 125.204C114.061 124.662 113.351 124.965 113.283 124.992C113.127 125.054 112.962 125.151 112.896 125.189L114.128 127.364ZM42.7919 142.561C42.7336 142.497 42.6007 142.347 42.4613 142.232C42.3035 142.102 41.9311 141.84 41.3966 141.892L41.6352 144.38C41.4356 144.399 41.2538 144.362 41.1082 144.301C40.9787 144.247 40.8974 144.183 40.8714 144.162C40.8442 144.139 40.8353 144.128 40.8561 144.15C40.8758 144.17 40.9009 144.198 40.9465 144.247L42.7919 142.561ZM42.2884 144.115C42.3233 144.058 42.3424 144.027 42.3574 144.004C42.3732 143.98 42.3661 143.993 42.343 144.021C42.3207 144.048 42.2524 144.127 42.1347 144.205C42.0026 144.292 41.8322 144.361 41.6352 144.38L41.3966 141.892C40.8658 141.942 40.5505 142.266 40.4178 142.426C40.3023 142.566 40.2003 142.738 40.1562 142.81L42.2884 144.115ZM26.6948 99.4219C26.4577 99.1867 26.2051 98.9337 25.9932 98.7638C25.8924 98.683 25.7084 98.5434 25.4709 98.4526C25.2069 98.3516 24.703 98.2543 24.2094 98.5795L25.5848 100.667C25.3957 100.792 25.1837 100.851 24.982 100.856C24.7962 100.86 24.6548 100.817 24.5779 100.788C24.4437 100.736 24.3828 100.677 24.4293 100.714C24.4596 100.739 24.5139 100.786 24.6063 100.875C24.6963 100.961 24.8016 101.065 24.9344 101.197L26.6948 99.4219ZM26.3218 100.262C26.2543 100.091 26.201 99.9553 26.1582 99.8409C26.1144 99.7234 26.0928 99.657 26.0831 99.6218C26.0679 99.5667 26.099 99.6489 26.0923 99.7953C26.0884 99.8793 26.0706 100.026 25.9925 100.195C25.908 100.377 25.7703 100.545 25.5848 100.667L24.2094 98.5795C23.7229 98.9 23.6081 99.3932 23.5949 99.6805C23.5832 99.9361 23.6385 100.161 23.6726 100.285C23.7442 100.545 23.876 100.874 23.9961 101.179L26.3218 100.262ZM38.2272 121.282C38.2294 121.261 38.2382 121.184 38.241 121.109C38.2445 121.016 38.2427 120.868 38.1982 120.694L35.776 121.313C35.7404 121.174 35.7411 121.062 35.7428 121.015C35.7436 120.994 35.7449 120.982 35.7445 120.986C35.7441 120.99 35.7433 120.998 35.7411 121.019L38.2272 121.282ZM35.8862 121.587C35.8983 121.605 35.9026 121.611 35.9052 121.615C35.9076 121.618 35.9005 121.608 35.8899 121.59C35.8662 121.551 35.8118 121.453 35.776 121.313L38.1982 120.694C38.1535 120.519 38.0839 120.388 38.0365 120.309C37.998 120.244 37.9534 120.181 37.9413 120.164L35.8862 121.587ZM23.194 158.462C23.1877 158.471 23.0245 158.691 22.9417 158.949C22.8074 159.368 22.88 159.778 23.0729 160.109L25.2317 158.848C25.2788 158.929 25.341 159.063 25.3642 159.243C25.3881 159.429 25.3609 159.592 25.322 159.713C25.2879 159.82 25.2464 159.888 25.241 159.897C25.2363 159.905 25.2354 159.906 25.2645 159.863L23.194 158.462ZM24.2896 158.327C24.2466 158.33 24.2732 158.327 24.3086 158.327C24.3514 158.327 24.4674 158.329 24.6124 158.373C24.7732 158.421 24.9191 158.505 25.0386 158.613C25.1464 158.711 25.2063 158.804 25.2317 158.848L23.0729 160.109C23.1974 160.322 23.4449 160.632 23.891 160.767C24.0732 160.822 24.2297 160.828 24.3184 160.827C24.3996 160.827 24.4773 160.82 24.4928 160.819L24.2896 158.327ZM60.1325 161.502C60.2193 161.627 60.2846 161.722 60.3371 161.801C60.3916 161.884 60.4122 161.92 60.417 161.93C60.4303 161.955 60.371 161.856 60.3492 161.682C60.3368 161.583 60.3335 161.436 60.3791 161.266C60.4269 161.088 60.5171 160.926 60.6378 160.795L62.4796 162.485C62.8102 162.125 62.8702 161.692 62.8298 161.371C62.7962 161.103 62.6939 160.89 62.6363 160.779C62.5196 160.554 62.3348 160.291 62.1885 160.08L60.1325 161.502ZM60.0739 162.41C60.2911 162.535 60.5663 162.695 60.7998 162.791C60.9155 162.839 61.1381 162.922 61.4096 162.931C61.7372 162.941 62.1557 162.838 62.4796 162.485L60.6378 160.795C60.7554 160.667 60.9053 160.564 61.0765 160.5C61.2406 160.439 61.3866 160.429 61.4884 160.432C61.5875 160.435 61.6602 160.452 61.6952 160.461C61.7145 160.466 61.7287 160.471 61.7371 160.474C61.7456 160.477 61.7503 160.479 61.7505 160.479C61.7508 160.479 61.7481 160.478 61.7419 160.475C61.7358 160.472 61.7273 160.468 61.716 160.463C61.6928 160.451 61.6627 160.435 61.6233 160.414C61.5418 160.37 61.4448 160.314 61.315 160.24L60.0739 162.41ZM11.0862 150.8C11.0555 150.772 11.0454 150.762 11.0398 150.757C11.0328 150.75 11.058 150.774 11.0922 150.816C11.1243 150.855 11.2042 150.959 11.2643 151.119C11.3326 151.301 11.363 151.523 11.3168 151.759L8.86367 151.277C8.75096 151.851 9.0415 152.256 9.15044 152.39C9.24853 152.511 9.37375 152.622 9.39691 152.643L11.0862 150.8ZM9.87407 150.214C9.8446 150.225 9.68697 150.28 9.55041 150.354C9.39875 150.438 8.97639 150.703 8.86367 151.277L11.3168 151.759C11.2706 151.994 11.1583 152.188 11.0263 152.331C10.9102 152.456 10.7969 152.522 10.7521 152.547C10.7046 152.573 10.6724 152.585 10.6815 152.581C10.6887 152.578 10.7016 152.573 10.7407 152.559L9.87407 150.214ZM48.522 124.79C48.4588 124.784 48.2852 124.767 48.1237 124.775C47.9282 124.785 47.5614 124.837 47.2298 125.13L48.8848 127.004C48.7615 127.113 48.6257 127.184 48.4979 127.225C48.3813 127.263 48.2892 127.27 48.2512 127.272C48.2137 127.274 48.1947 127.272 48.2145 127.273C48.2336 127.274 48.2597 127.277 48.3138 127.281L48.522 124.79ZM49.2304 126.469C49.2326 126.415 49.2337 126.389 49.2349 126.371C49.2362 126.351 49.2358 126.371 49.229 126.409C49.2222 126.447 49.2033 126.538 49.151 126.649C49.0939 126.771 49.0068 126.896 48.8848 127.004L47.2298 125.13C46.9002 125.421 46.8023 125.776 46.7676 125.971C46.7393 126.131 46.7349 126.306 46.7324 126.368L49.2304 126.469ZM81.5445 124.876C81.8758 124.762 82.2259 124.642 82.4786 124.524C82.598 124.468 82.8091 124.362 82.9981 124.185C83.2092 123.988 83.5271 123.561 83.4319 122.958L80.9624 123.348C80.9263 123.119 80.962 122.895 81.0477 122.703C81.1261 122.528 81.2298 122.416 81.2905 122.359C81.3961 122.26 81.4761 122.233 81.4174 122.26C81.3785 122.278 81.3068 122.308 81.1808 122.354C81.0579 122.399 80.9109 122.45 80.7263 122.514L81.5445 124.876ZM80.9681 124.214C81.1678 124.218 81.3275 124.221 81.462 124.226C81.5996 124.231 81.6807 124.237 81.7267 124.243C81.7944 124.251 81.7139 124.25 81.5863 124.192C81.5132 124.158 81.3798 124.086 81.2496 123.944C81.1068 123.788 80.9996 123.583 80.9624 123.348L83.4319 122.958C83.3347 122.343 82.8864 122.038 82.6306 121.92C82.3975 121.813 82.1649 121.778 82.0331 121.762C81.7535 121.727 81.3788 121.721 81.0186 121.714L80.9681 124.214Z" fill="#44528A"/>
<path fill-rule="evenodd" clip-rule="evenodd" d="M63 40.2499C50.5221 40.2499 40.75 51.6525 40.75 63.9999C40.75 70.266 43.7611 75.2228 48.1027 78.5923C52.4307 81.9515 58.0953 83.7499 63.5 83.7499C74.3896 83.75 84.25 74.4383 84.25 63.5C84.25 58.148 82.9782 52.3485 79.6656 47.8667C76.3274 43.3503 70.9718 40.2499 63 40.2499ZM43.25 64C43.25 52.368 51.9591 42.75 63.5 42.75C70.2442 42.75 74.51 45.6201 77.1231 49.5992C79.7648 53.6217 80.75 58.8351 80.75 63.5C80.75 72.5858 74.0858 79.7501 64 79.75C58.8398 79.75 53.6218 78.6415 49.7195 76.12C45.8544 73.6225 43.25 69.7263 43.25 64Z" fill="#44528A"/>
<path d="M66.0371 42.5424C62.6957 42.737 59.4988 43.6017 56.7292 45.1198C51.9468 48.2151 48.306 53.6421 47.6166 59.1388C47.5473 59.8153 47.5079 60.5119 47.5 61.2285C47.5682 66.4188 49.9564 71.5838 54.0891 74.9969C57.6398 77.4922 62.4954 78.8325 68.3337 78.8568C69.7268 78.7079 70.9764 78.4447 72.0954 78.0765C59.8933 75.1617 54.4985 69.8097 54.4985 61C54.4985 48.9315 64.8877 43.656 67.091 42.6728C66.7434 42.6151 66.392 42.5714 66.0371 42.5424Z" fill="#C7D89B"/>
<path d="M69.7798 43.4213C65.3862 46.1321 59.9985 51.9378 59.9985 61C59.9985 70.914 69.7039 75.1319 73.441 76.7561C73.6456 76.845 73.8322 76.9261 73.9985 77C74.1136 77.0383 74.2157 77.0806 74.3057 77.1259C73.6328 77.4945 72.8977 77.8125 72.0955 78.0765C59.8933 75.1617 54.4985 69.8097 54.4985 61C54.4985 48.9316 64.8874 43.6561 67.0909 42.6729C68.0167 42.8267 68.915 43.0803 69.7798 43.4213Z" fill="#3AAA35"/>
<path d="M69.7513 43.4101C69.7438 43.4142 69.7363 43.4183 69.7288 43.4224C65.3445 45.8133 59.9985 48.7289 59.9985 61C59.9985 71.5839 66.9581 74.2137 71.4339 75.905C72.4557 76.2911 73.348 76.6283 73.9985 77C74.0904 77.0526 74.1803 77.1013 74.2681 77.1464C75.776 76.3274 76.9732 75.2555 77.9138 73.968C77.0282 73.6213 69.4985 70.3827 69.4985 60.5001C69.4985 49.0958 73.0666 46.6118 74.1744 46.1154C72.8406 44.9653 71.3533 44.0377 69.7513 43.4101Z" fill="#06A099"/>
<path d="M74.1599 46.1028C72.9625 46.5529 68.9985 48.8123 68.9985 59C68.9985 70.3118 76.9956 73.6262 77.9129 73.9692C80.2435 70.7799 80.9985 66.2674 80.9985 61C80.9985 55.4387 78.3257 49.6865 74.1599 46.1028Z" fill="#1F71B8"/>
<path d="M105.5 58C98.985 58.1703 89.5 60.5 89.5 60.5C89.5 60.5 100.053 61.5 106.5 61.5C116.5 61.5 121.5 59.5 121.5 59.5C121.5 59.5 111.774 57.836 105.5 58Z" fill="#44528A"/>
<path d="M95 30C100.311 25.0441 109 19.5 109 19.5C109 19.5 103.217 27.0093 99 31C93.4401 36.2621 83.5 42.5 83.5 42.5C83.5 42.5 90.4473 34.2483 95 30Z" fill="#44528A"/>
<path d="M69 17C70.3794 10.2188 74 0 74 0C74 0 73.8487 10.4732 72.5 17C71.1255 23.6517 67 33.5 67 33.5C67 33.5 67.7061 23.3605 69 17Z" fill="#44528A"/>
<path d="M40 23.5C36.1728 16.531 31.5 5 31.5 5C31.5 5 38.8311 14.9952 42.5 22C45.7476 28.2005 50 38.5 50 38.5C50 38.5 43.3377 29.5777 40 23.5Z" fill="#44528A"/>
<path d="M18.5 48C12.2536 45.7426 3 41 3 41C3 41 13.5669 42.3648 20 44.5C27.2109 46.8933 37.5 53 37.5 53C37.5 53 25.7158 50.6077 18.5 48Z" fill="#44528A"/>
<path d="M16 73C23.2665 69.732 35.5 67 35.5 67C35.5 67 24.8077 73.3737 17.5 76.5C10.8576 79.3417 0 82.5 0 82.5C0 82.5 9.37261 75.9806 16 73Z" fill="#44528A"/>
<path d="M45 92C47.6497 88.1151 53 83 53 83C53 83 50.2014 89.741 47.5 93.5C45.0009 96.9776 40 101.5 40 101.5C40 101.5 42.6377 95.4635 45 92Z" fill="#44528A"/>
<path d="M81.5 97C78.8326 92.4693 76.5 84.5 76.5 84.5C76.5 84.5 82.4774 90.3665 85 95C87.2736 99.1761 89 106.5 89 106.5C89 106.5 83.8981 101.073 81.5 97Z" fill="#44528A"/>
<path d="M102.5 84.5C96.2219 80.753 87 74 87 74C87 74 98.0008 78.2281 104.5 82C111.391 85.9993 121 94 121 94C121 94 109.474 88.6623 102.5 84.5Z" fill="#44528A"/>
<path d="M105.5 58C98.985 58.1703 89.5 60.5 89.5 60.5C89.5 60.5 100.053 61.5 106.5 61.5C116.5 61.5 121.5 59.5 121.5 59.5C121.5 59.5 111.774 57.836 105.5 58Z" stroke="#44528A"/>
<path d="M95 30C100.311 25.0441 109 19.5 109 19.5C109 19.5 103.217 27.0093 99 31C93.4401 36.2621 83.5 42.5 83.5 42.5C83.5 42.5 90.4473 34.2483 95 30Z" stroke="#44528A"/>
<path d="M69 17C70.3794 10.2188 74 0 74 0C74 0 73.8487 10.4732 72.5 17C71.1255 23.6517 67 33.5 67 33.5C67 33.5 67.7061 23.3605 69 17Z" stroke="#44528A"/>
<path d="M40 23.5C36.1728 16.531 31.5 5 31.5 5C31.5 5 38.8311 14.9952 42.5 22C45.7476 28.2005 50 38.5 50 38.5C50 38.5 43.3377 29.5777 40 23.5Z" stroke="#44528A"/>
<path d="M18.5 48C12.2536 45.7426 3 41 3 41C3 41 13.5669 42.3648 20 44.5C27.2109 46.8933 37.5 53 37.5 53C37.5 53 25.7158 50.6077 18.5 48Z" stroke="#44528A"/>
<path d="M16 73C23.2665 69.732 35.5 67 35.5 67C35.5 67 24.8077 73.3737 17.5 76.5C10.8576 79.3417 0 82.5 0 82.5C0 82.5 9.37261 75.9806 16 73Z" stroke="#44528A"/>
<path d="M45 92C47.6497 88.1151 53 83 53 83C53 83 50.2014 89.741 47.5 93.5C45.0009 96.9776 40 101.5 40 101.5C40 101.5 42.6377 95.4635 45 92Z" stroke="#44528A"/>
<path d="M81.5 97C78.8326 92.4693 76.5 84.5 76.5 84.5C76.5 84.5 82.4774 90.3665 85 95C87.2736 99.1761 89 106.5 89 106.5C89 106.5 83.8981 101.073 81.5 97Z" stroke="#44528A"/>
<path d="M102.5 84.5C96.2219 80.753 87 74 87 74C87 74 98.0008 78.2281 104.5 82C111.391 85.9993 121 94 121 94C121 94 109.474 88.6623 102.5 84.5Z" stroke="#44528A"/>
</svg>
